<?xml version="1.0" encoding="UTF-8"?>
<svg viewBox="0 0 440.98407 439.73868" xmlns="http://www.w3.org/2000/svg">
 <defs>
  <linearGradient id="b" x2="0" y1="-231.81" y2="-35.125" gradientUnits="userSpaceOnUse">
   <stop stop-color="#fff" offset="0"/>
   <stop stop-color="#eeeeec" stop-opacity="0" offset="1"/>
  </linearGradient>
  <radialGradient id="a" cx="342.38" cy="595.88" r="221" gradientTransform="matrix(1.3159 -.38216 .33484 1.153 -287.56 45.685)" gradientUnits="userSpaceOnUse">
   <stop offset="0"/>
   <stop stop-opacity="0" offset="1"/>
  </radialGradient>
 </defs>
 <g transform="translate(-75.655 234.89)">
  <g transform="matrix(.94625 .32344 -.32344 .94625 11.638 -96.281)">
   <path d="m294-234.62c-120.93 0.27109-219 98.503-219 219.5s98.066 219.23 219 219.5v-439z" fill="#729fcf"/>
   <path d="m297-234.62c120.93 0.27109 219 98.503 219 219.5s-98.066 219.23-219 219.5v-439z" fill="#edd400"/>
   <path d="m297-230.62c90.999 0.36053 164.78 98.559 164.78 219.5s-73.782 219.14-164.78 219.5v-439z" fill="#eeeeec"/>
   <path d="m294-230.62c-90.999 0.36053-164.78 98.559-164.78 219.5s73.782 219.14 164.78 219.5v-439z" fill="#eeeeec"/>
   <path transform="matrix(.36,0,0,1,190.64,-350)" d="m508 336.86a219.5 219.5 0 1 1 -439 0 219.5 219.5 0 1 1 439 0z" fill="#ef2929"/>
  </g>
  <path transform="translate(7,-352)" d="m508 336.86a219.5 219.5 0 1 1 -439 0 219.5 219.5 0 1 1 439 0z" fill="url(#a)" opacity=".39789"/>
  <path d="m297.09-234.87c-18.787 0-37.03 2.3658-54.438 6.8125 18.298 7.0696 10.219 11.692 10.53 21.296 20.728 8.4362 29.145 12.632 40.268 26.632 44.773-7.5 67.572 0.76958 100.7 13.73 10.062-7.52 19.206-14.617 31.11-11.743 4.4045-2.6259 4.57-6.2802 6.6762-10.414-37.216-29.027-84.024-46.312-134.84-46.312z" fill="#4e9a06"/>
  <path d="m303.68-231.81c-101.03 0-183.91 78.223-191.28 177.38 0 0 91.926-22.752 168.56-78.641 104.57-76.26 214 78.641 214 78.641-7.369-99.156-90.248-177.38-191.28-177.38z" fill="url(#b)" opacity=".84507"/>
 </g>
</svg>
