<?xml version="1.0" encoding="UTF-8"?>
<svg id="svg8" xmlns="http://www.w3.org/2000/svg" xmlns:svg="http://www.w3.org/2000/svg" xmlns:sodipodi="http://sodipodi.sourceforge.net/DTD/sodipodi-0.dtd" xmlns:rdf="http://www.w3.org/1999/02/22-rdf-syntax-ns#" xmlns:inkscape="http://www.inkscape.org/namespaces/inkscape" xmlns:dc="http://purl.org/dc/elements/1.1/" xmlns:cc="http://creativecommons.org/ns#" version="1.1" viewBox="0 0 527.5 366.1">
  <!-- Generator: Adobe Illustrator 29.1.0, SVG Export Plug-In . SVG Version: 2.1.0 Build 142)  -->
  <defs>
    <style>
      .st0 {
        fill: #1c1d21;
      }

      .st1 {
        fill: #222629;
      }

      .st2 {
        fill: #88bf57;
      }

      .st3 {
        fill: #1d2122;
      }

      .st4 {
        fill: #cf3930;
      }

      .st5 {
        fill: #22272a;
      }

      .st6 {
        fill: #fff;
      }

      .st7 {
        fill: #373f42;
        isolation: isolate;
        opacity: .4;
      }

      .st8 {
        fill: #101010;
      }

      .st9 {
        fill: silver;
      }

      .st10 {
        fill: #ddb42c;
      }

      .st11 {
        fill: #2f3336;
      }

      .st12 {
        fill: #009cd3;
      }

      .st13 {
        fill: #05060a;
      }
    </style>
  </defs>
  <g id="_x3C_defs">
    <inkscape:path-effect id="path-effect852" apply_no_weight="true" apply_with_weight="true" effect="bspline" helper_size="0" is_visible="true" only_selected="false" steps="2" weight="33.333333"/>
    <inkscape:path-effect id="path-effect848" apply_no_weight="true" apply_with_weight="true" effect="bspline" helper_size="0" is_visible="true" only_selected="false" steps="2" weight="33.333333"/>
    <inkscape:path-effect id="path-effect844" apply_no_weight="true" apply_with_weight="true" effect="bspline" helper_size="0" is_visible="true" only_selected="false" steps="2" weight="33.333333"/>
    <inkscape:path-effect id="path-effect948" apply_no_weight="true" apply_with_weight="true" effect="bspline" helper_size="0" is_visible="true" lpeversion="1" only_selected="false" steps="2" weight="33.333333"/>
    <inkscape:path-effect id="path-effect944" apply_no_weight="true" apply_with_weight="true" effect="bspline" helper_size="0" is_visible="true" lpeversion="1" only_selected="false" steps="2" weight="33.333333"/>
    <inkscape:path-effect id="path-effect930" apply_no_weight="true" apply_with_weight="true" effect="bspline" helper_size="0" is_visible="true" lpeversion="1" only_selected="false" steps="2" weight="33.333333"/>
    <inkscape:path-effect id="path-effect926" apply_no_weight="true" apply_with_weight="true" effect="bspline" helper_size="0" is_visible="true" lpeversion="1" only_selected="false" steps="2" weight="33.333333"/>
    <inkscape:path-effect id="path-effect855" apply_no_weight="true" apply_with_weight="true" effect="bspline" helper_size="0" is_visible="true" lpeversion="1" only_selected="false" steps="2" weight="33.333333"/>
    <inkscape:path-effect id="path-effect851" apply_no_weight="true" apply_with_weight="true" effect="bspline" helper_size="0" is_visible="true" lpeversion="1" only_selected="false" steps="2" weight="33.333333"/>
  </g>
  <sodipodi:namedview id="base" bordercolor="#666666" borderopacity="1.0" inkscape:current-layer="layer1" inkscape:cx="-2968.2059" inkscape:cy="262.75947" inkscape:document-rotation="0" inkscape:document-units="mm" inkscape:pageopacity="0.0" inkscape:pageshadow="2" inkscape:snap-global="false" inkscape:snap-smooth-nodes="true" inkscape:window-height="1017" inkscape:window-maximized="1" inkscape:window-width="1920" inkscape:window-x="-8" inkscape:window-y="-8" inkscape:zoom="0.08838835" pagecolor="#ffffff" showgrid="false"/>
  <g id="layer1" inkscape:groupmode="layer" inkscape:label="Ebene 1">
    <g id="g968">
      <path id="path942" class="st13" d="M361.7,0c-3.7,0-6.8.5-9.9,1.8-3.7,1.6-7.3,4.3-10,6-2.7,1.7-4.7,2.4-7.9,2.6s-7.6,0-16.8,0c-6.1,0-14.6,0-23.8,0-1.1,0-2.4,0-4,0h-52.3c-1.6,0-2.9,0-4,0-9.2,0-17.7,0-23.8,0-9.3,0-13.7.3-16.8,0-3.2-.2-5.2-.9-7.9-2.6-2.7-1.7-6.3-4.4-10-6C171.4.5,168.3,0,164.6,0c-.9,0-1.7,0-2.6,0-4.9.2-10.7,1.1-17.3,2.4-6.6,1.3-14.1,2.9-23.2,6.3-9,3.4-19.6,8.7-26.6,12.5-7,3.8-10.3,6.1-13,12.9-.9,2.2-1.7,4.9-2.5,8.2,2.6-1.9,5.7-3.8,9.5-5.9,8-4.4,19-9.4,30.3-13.4s22.7-7.1,30.8-8.2c2.5-.3,4.8-.5,6.8-.5,4.5,0,7.9.7,11.7,1.5,5.4,1.3,11.5,2.9,16.5,3.6,5,.7,9.1.3,25,.1,9.5-.1,22.9-.1,35.4-.2.1,0,.2,0,.2,0q.1,0,14,0c1.1,0,2.8,0,4.1,0,1.3,0,2.9,0,4.1,0q13.9,0,14,0s0,0,.2,0c12.4,0,25.9,0,35.4.2,16,.2,20,.5,25-.1,5-.7,11.1-2.3,16.5-3.6,5.4-1.3,10.3-2.1,18.5-1,8.2,1.1,19.6,4.1,30.8,8.2,11.2,4,22.3,9,30.3,13.4,3.1,1.7,5.7,3.3,8,4.8-.7-2.8-1.5-5.2-2.3-7.2-2.7-6.7-6-9.1-13-12.9-7-3.8-17.5-9-26.6-12.5s-16.5-5-23.2-6.3c-6.6-1.3-12.4-2.2-17.3-2.4-.9,0-1.8,0-2.6,0h0Z" inkscape:connector-curvature="0"/>
      <path id="path849" class="st1" d="M156.8,13.3c-2,0-4.3.2-6.8.5-8.2,1.1-19.6,4.1-30.8,8.2-11.2,4-22.3,9-30.3,13.4-8,4.4-13,8.1-17,12.2-4.1,4.1-7.3,8.4-13,21.6-5.7,13.2-14.1,35.4-25.3,67.6-11.2,32.2-25.4,74.4-30.8,109.6-5.4,35.2-2.1,63.5,4.7,81,6.8,17.5,17,24.1,24.9,28.8,7.9,4.6,13.4,7.2,16.7,8.6,3.3,1.4,4.4,1.6,6.2,1,1.8-.6,4.4-2.1,8.9-5.1,4.5-3,10.8-7.5,17-14,6.2-6.4,12.3-14.7,19.9-24.8,7.6-10.1,16.6-21.9,24.3-31.7,7.7-9.8,14.2-17.7,23.8-22,9.6-4.2,22.3-4.8,43.5-5.1,20.8-.3,49.6-.3,71.2-.3,21.6,0,50.4,0,71.2.3,21.2.3,34,.9,43.5,5.1,9.6,4.2,16,12.1,23.8,22,7.7,9.8,16.8,21.7,24.3,31.7,7.6,10.1,13.6,18.4,19.9,24.8,6.2,6.4,12.6,11,17,14,4.5,3,7,4.5,8.9,5.1,1.8.6,2.9.4,6.2-1,3.3-1.4,8.8-4,16.7-8.6s18.1-11.3,24.9-28.8c6.8-17.5,10.2-45.7,4.7-81-5.4-35.2-19.6-77.4-30.8-109.6-11.2-32.2-19.6-54.3-25.3-67.6-5.7-13.2-8.9-17.6-13-21.6s-9-7.8-17-12.2c-8-4.4-19-9.4-30.3-13.4-11.2-4-22.7-7.1-30.8-8.2-8.2-1.1-13-.2-18.5,1-5.4,1.3-11.5,2.9-16.5,3.6s-9.1.3-25,.1c-9.5-.1-22.9-.1-35.4-.2-.1,0-.2,0-.2,0q-.1,0-14,0c-1.1,0-2.8,0-4.1,0-1.3,0-2.9,0-4.1,0q-13.9,0-14,0s0,0-.2,0c-12.4,0-25.9,0-35.4.2-16,.2-20,.5-25-.1s-11.1-2.3-16.5-3.6c-3.7-.9-7.2-1.5-11.7-1.5h0Z" inkscape:connector-curvature="0"/>
      <circle id="path920" class="st3" cx="192.7" cy="186.3" r="45.1"/>
      <path id="path1051" d="M400.4,118.2c-10.1,0-18.3,8.2-18.3,18.3h0c0,10.1,8.2,18.3,18.3,18.3h0c10.1,0,18.3-8.2,18.3-18.3h0c0-10.1-8.2-18.3-18.3-18.3h0Z" inkscape:connector-curvature="0"/>
      <path id="path1049" d="M439.4,81.5c-10.1,0-18.3,8.2-18.3,18.3,0,10.1,8.2,18.3,18.3,18.3,10.1,0,18.3-8.2,18.3-18.3h0c0-10.1-8.2-18.3-18.3-18.3h0Z" inkscape:connector-curvature="0"/>
      <path id="path1047" d="M363.7,81.5c-10.1,0-18.3,8.2-18.3,18.3,0,10.1,8.2,18.3,18.3,18.3,10.1,0,18.3-8.2,18.3-18.3h0c0-10.1-8.2-18.3-18.3-18.3h0Z" inkscape:connector-curvature="0"/>
      <path id="path858" d="M400.4,44.8c-10.1,0-18.3,8.2-18.3,18.3,0,10.1,8.2,18.3,18.3,18.3h0c10.1,0,18.3-8.2,18.3-18.3h0c0-10.1-8.2-18.3-18.3-18.3Z" inkscape:connector-curvature="0"/>
      <path id="path866" class="st11" d="M224.6,87.8c-6.4,0-11.6,5.2-11.6,11.7,0,6.4,5.2,11.7,11.7,11.7h0c6.4,0,11.7-5.2,11.7-11.7h0c0-6.4-5.2-11.7-11.7-11.7h0s0,0,0,0Z" inkscape:connector-curvature="0"/>
      <path id="path868" class="st11" d="M302.8,87.8c-6.4,0-11.6,5.2-11.6,11.7,0,6.4,5.2,11.7,11.7,11.7h0c6.4,0,11.7-5.2,11.7-11.7h0c0-6.4-5.2-11.7-11.7-11.7h0s0,0,0,0Z" inkscape:connector-curvature="0"/>
      <path id="path875" class="st8" d="M192.6,145c-6.8,0-12.2,1.5-12.2,3.4v22.1c0,1.9-1.6,3.5-3.5,3.5h-22.1c-1.9,0-3.4,5.5-3.4,12.3h0c0,6.8,1.5,12.3,3.4,12.3h0s0,0,0,0h22c1.9,0,3.5,1.6,3.5,3.5v22.1c0,1.9,5.5,3.4,12.3,3.4h0c6.8,0,12.3-1.5,12.3-3.4h0s0,0,0,0v-22c0-1.9,1.6-3.5,3.5-3.5h22s0,0,0,0c1.9,0,3.4-5.5,3.4-12.3h0s0,0,0,0c0-6.8-1.5-12.2-3.4-12.2h-22.1c-1.9,0-3.5-1.6-3.5-3.5v-22s0,0,0,0c0-1.9-5.5-3.4-12.3-3.4h0s0,0,0,0h0Z" inkscape:connector-curvature="0"/>
      <circle id="circle912" class="st11" cx="127.1" cy="100" r="39"/>
      <circle id="circle914" cx="127.1" cy="100" r="33.4"/>
      <circle id="circle916" class="st5" cx="127.1" cy="100" r="30.2"/>
      <circle id="circle918" class="st0" cx="127.1" cy="100" r="21.5"/>
      <path id="path922" class="st7" d="M156.8,13.3c-2,0-4.3.2-6.8.5-8.2,1.1-19.6,4.1-30.8,8.2-11.2,4-22.3,9-30.3,13.4-8,4.4-13,8.1-17,12.2-1.6,1.6-3.1,3.3-4.7,5.6,4.5-2.9,10.1-6.3,16.2-9.6,10.2-5.4,21.8-10.4,31-14.2,9.2-3.8,15.9-6.3,22.9-7.5,7.1-1.2,14.5-1,19-.9,4.5.1,6.1.2,8.6,2s6,5.5,11.7,11.4,13.5,13.8,19.4,20.1,10.2,10.7,14.4,13.6c11.4,5.5,22.5,5.1,30.4,5.1,5.8,0,14.3,0,23.1,0,8.8,0,17.3,0,23.1,0,9.4,0,23.3-.4,30.4-5.1,4.2-2.8,8.4-7.3,14.4-13.6,6-6.2,13.8-14.2,19.4-20.1,5.6-5.8,9.1-9.5,11.7-11.4,2.5-1.9,4.1-1.9,4.9-1.9q.8,0,4.5-.1c3.7,0,11.2-.3,18.3.9s13.8,3.8,22.9,7.5c9.2,3.8,20.9,8.8,31,14.2,5.6,3,10.7,6.1,15,8.8-1.4-1.9-2.7-3.4-4.2-4.8-4.1-4.1-9-7.8-17-12.2-8-4.4-19-9.4-30.3-13.4-11.2-4-22.7-7.1-30.8-8.2-8.2-1.1-13-.2-18.5,1-5.4,1.3-11.5,2.9-16.5,3.6s-9.1.3-25,.1c-9.5-.1-22.9-.1-35.4-.2-.1,0-.2,0-.2,0q-.1,0-14,0c-1.1,0-2.8,0-4.1,0-1.3,0-2.9,0-4.1,0q-13.9,0-14,0s0,0-.2,0c-12.4,0-25.9,0-35.4.2-16,.2-20,.5-25-.1s-11.1-2.3-16.5-3.6c-3.7-.9-7.2-1.5-11.7-1.5h0Z" inkscape:connector-curvature="0"/>
      <path id="path881" class="st6" d="M217.9,93.8v7.1h3.7v-1.9h-1.9v-3.3h5.3v1.8h1.9v-3.6h-9ZM222.4,98v7.1h9v-7.1h-9ZM224.2,99.9h5.3v3.3h-5.3v-3.3Z" inkscape:connector-curvature="0"/>
      <circle id="circle1020" class="st11" cx="333.6" cy="180.6" r="39"/>
      <circle id="circle1022" cx="333.6" cy="180.6" r="33.4"/>
      <circle id="circle1024" class="st5" cx="333.6" cy="180.6" r="30.2"/>
      <circle id="circle1026" class="st0" cx="333.6" cy="180.6" r="21.5"/>
      <path id="path1032" class="st12" d="M374.5,110.1l-8-11.1,6.7-9.5h-5.8l-3.8,5.6-3.8-5.6h-5.6l6.5,9.5-7.8,11.1h5.8l4.9-7,4.9,7h6.1Z" inkscape:connector-curvature="0"/>
      <path id="path1034" class="st10" d="M390.4,52.8l7.6,11.4v9.2h4.7v-9.2l7.6-11.4h-5.6l-4.3,6.6-4.3-6.6h-5.6Z" inkscape:connector-curvature="0"/>
      <path id="path1036" class="st4" d="M433.3,89.5v20.6h7.8c4.3,0,6.7-2.3,6.7-5.7s-1.8-4.7-4.4-5.2c1.7-.9,2.6-2.5,2.6-4.4,0-3.9-2.8-5.2-6.3-5.2h-6.4ZM438,97.6v-4.4h.4c2,0,3.1.6,3.1,2.1s-1.1,2.3-3.1,2.3h-.4ZM438,106.5v-4.9h1.5c2.2,0,3.4.7,3.4,2.6s-1.2,2.3-3.4,2.3h-1.5Z" inkscape:connector-curvature="0"/>
      <path id="path1038" class="st2" d="M402.6,126.2h-4.3l-8.3,20.6h5l1.5-4.1h7.8l1.5,4.1h5l-8.3-20.6ZM402.7,138.5h-4.6l2.3-6h0l2.3,6Z" inkscape:connector-curvature="0"/>
      <path id="path842" class="st6" d="M297.2,95c-.5,0-.9.4-1,.9,0,.5.4.9.9,1,0,0,0,0,0,0h11.2c.5,0,.9-.4,1-.9,0-.5-.4-.9-.9-1,0,0,0,0,0,0h-11.2ZM297.2,98.5c-.5,0-.9.4-1,.9,0,.5.4.9.9,1,0,0,0,0,0,0h11.2c.5,0,.9-.4,1-.9,0-.5-.4-.9-.9-1,0,0,0,0,0,0h-11.2ZM297.2,102c-.5,0-.9.4-1,.9,0,.5.4.9.9,1,0,0,0,0,0,0h11.2c.5,0,.9-.4,1-.9,0-.5-.4-.9-.9-1,0,0,0,0,0,0h-11.2Z" inkscape:connector-curvature="0"/>
      <path id="path884" class="st9" d="M263.5,25.5c-11.6,0-21,9.4-21,21s9.4,21,21,21,21-9.4,21-21-9.4-21-21-21ZM263.5,27.3c10.6,0,19.1,8.5,19.1,19.1s-8.5,19.1-19.1,19.1-19.1-8.5-19.1-19.1,8.5-19.1,19.1-19.1Z" inkscape:connector-curvature="0"/>
    </g>
  </g>
</svg>