<?xml version="1.0" encoding="UTF-8"?>
<svg id="Layer_1" xmlns="http://www.w3.org/2000/svg" version="1.1" viewBox="0 0 276.3 503.2">
  <!-- Generator: Adobe Illustrator 29.1.0, SVG Export Plug-In . SVG Version: 2.1.0 Build 142)  -->
  <defs>
    <style>
      .st0, .st1, .st2, .st3, .st4, .st5, .st6, .st7, .st8, .st9, .st10, .st11, .st12 {
        isolation: isolate;
        opacity: 1;
        stroke: #000;
      }

      .st0, .st2, .st3, .st5, .st6, .st7, .st8, .st9, .st10, .st11 {
        stroke-width: 5px;
      }

      .st0, .st5, .st6, .st8, .st10, .st11 {
        fill-rule: evenodd;
      }

      .st0, .st7, .st8 {
        fill: #ff7f00;
      }

      .st1, .st2, .st3, .st4, .st5, .st6, .st7, .st8, .st9, .st10, .st11 {
        stroke-linejoin: round;
      }

      .st1, .st2, .st3, .st4, .st5, .st6, .st7, .st8, .st9, .st10, .st11, .st12 {
        stroke-linecap: round;
      }

      .st1, .st4 {
        stroke-width: 6.7px;
      }

      .st1, .st6 {
        fill: #fff;
      }

      .st2, .st10 {
        fill: lime;
      }

      .st3, .st4, .st11 {
        fill: #ff0;
      }

      .st12 {
        fill: none;
        stroke-width: 8px;
      }
    </style>
  </defs>
  <g>
    <g>
      <path class="st6" d="M100,166.3l-50.7,70.7,30.6,25.9,9.8-15.5,10.4-81.1h0Z"/>
      <path class="st3" d="M27.1,249.1c-8.3.2-17.2,7.6-21.8,18.8-4.6,11.2-3.3,22.7,2.4,28.7l3.2-6.1c-3.7-4.6-4.3-12.7-1.1-20.5,3.4-8.2,10-13.7,16.1-13.9,1.4,0,2.8.2,4.1.7,7,2.8,9.3,13.4,5.1,23.6-2.5,6.2-6.9,10.9-11.5,12.9l-.5,6.3c6.5-2.5,12.8-8.9,16.4-17.7,5.6-13.7,2.5-27.9-6.9-31.8-1.5-.6-3-.9-4.6-1-.3,0-.5,0-.8,0h0Z"/>
      <path class="st6" d="M192.5,310.9l-.2.8c.2,0,.3.1.5.2,9.4,3.8,12.5,18.1,6.9,31.8-4,9.9-12.4,17.5-19.8,19.2l24.8,10c12.6.2,24.1-2.4,31.1-16.4,2.6-8.4,3.4-17.2-2.5-27.5-13,0-20.3-6.4-26.8-13.9l-13.9-3.9h0Z"/>
    </g>
    <g>
      <path class="st1" d="M195.3,341.7c-2.5,6.4-6,10.3-11.3,12.5-3.8-1.1-10.8-1.9-13.5-3-3.2-5.1-4.2-9.9-.5-19.8,3.8-10.3,13.2-16.1,20.1-13.2,7,2.8,9.3,13.4,5.1,23.6h0Z"/>
      <path class="st4" d="M35,280.3c-2.6,6.4-7.2,11.1-12,13-4.2-.5-8.1-1.1-11.8-1.6-2.9-4-5-11.8-1.5-21.8,3.6-10.3,13.2-16.1,20.1-13.2,7,2.8,9.3,13.4,5.1,23.6h0Z"/>
    </g>
  </g>
  <g>
    <g>
      <g>
        <path class="st6" d="M171.1,351.3l-2.9,7.3,12.7,2.7,2.3-6.8-12.1-3.2h0Z"/>
        <g>
          <path class="st11" d="M32.1,249.1l-.2.8c.2,0,.3.1.5.2,9.4,3.8,12.5,18.1,6.9,31.8-3.9,9.4-10.8,16.2-17.9,18.2h2.1s22.1,9.9,22.1,9.9c16.2.5,25.2-5.7,30-15.7,3.8-10.4,2.5-19.7-3.2-28.2l-.6-.3-.2.3c-13.8.2-17.1-8.7-25-13.6l.2-.3h-.2c0,0-14.6-3-14.6-3h0Z"/>
          <path class="st11" d="M53.9,241.3l-7.1,11.1c7.9,4.9,11.2,13.7,25,13.6l3.9-6.8-21.8-17.9h0Z"/>
          <path class="st11" d="M11.1,291.1l-3,6.1,15.2,2.3.4-6.2-12.5-2.1h0Z"/>
        </g>
        <g>
          <path class="st6" d="M192.5,310.9l-.2.8c.2,0,.3.1.5.2,9.4,3.8,12.5,18.1,6.9,31.8-4,9.9-12.4,17.5-19.8,19.2l24.8,10c12.6.2,24.1-2.4,31.1-16.4,2.6-8.4,3.4-17.2-2.5-27.5-13,0-20.3-6.4-26.8-13.9l-13.9-3.9h0Z"/>
          <path class="st6" d="M192.5,310.9l-.2.8c.2,0,.3.1.5.2,9.4,3.8,12.5,18.1,6.9,31.8-4,9.9-12.4,17.5-19.8,19.2l24.8,10c12.6.2,24.1-2.4,31.1-16.4,2.6-8.4,3.4-17.2-2.5-27.5-13,0-20.3-6.4-26.8-13.9l-13.9-3.9h0Z"/>
        </g>
        <path class="st8" d="M220,404.3c-17.5-13.8-14.9-32.2-13.6-40.4,1.3-8.5,7.6-24.4,29.3-30.3,20-5.4,28.1,12.6,31.3,31.3l-1.5,112.6-61.1,22.7v-32.3l14.6-7.1,1-56.6h0Z"/>
        <path class="st10" d="M105.3,63.7c6.6-15,10.1-30.5,30.7-42.9l22.6-9.9c12.1-8.5,26.1-8.4,40.3-.2l17.1,8c11.4,8.1,21.8,13,30,40,6.6,11.8,10.6,21.5,6.6,27.6-7.3,10.9-14.4,14.9-23,18.9-34,9.5-68.1,14-102.1,10-16.6-3.4-36.1-3-38.6-24.3-3.4-9.9,5.2-18.6,16.4-27.1h0Z"/>
        <g>
          <path class="st11" d="M235.5,101.8c-1.5.8-3.1,1.6-4.8,2.3-34,9.5-68.1,14-102.1,10-3.2-.7-6.6-1.2-9.9-1.7l-.4,26.2c4.7,10.2,10.6,19.9,27.3,24.8,26.7,3.6,53.4,6.6,78.8-9.6,17.9-18.4,8.7-34.8,11.1-52h0Z"/>
          <path class="st11" d="M214,159.3c-22.2,9.8-45.3,7.1-68.4,4-1.5-.4-2.9-.9-4.3-1.5l.2,7c25.3,11.2,50.1,13.3,72.7-1l-.2-8.6h0Z"/>
        </g>
        <g>
          <path class="st6" d="M124.7,149.7l-22,9.1,88.4,35.4,62.6-25.8-33.3-12.3c-2.1,1.2-4.2,2.2-6.4,3.2l.2,8.6c-22.6,14.3-47.4,12.2-72.7,1l-.2-7c-7.9-3-12.9-7.3-16.6-12.2h0ZM206.6,162.1c-.5.1-.9.3-1.4.4.5-.1.9-.3,1.4-.4Z"/>
          <path class="st6" d="M101.1,158.3l-16.7,127.3,122.2,46.5-16.2-139.4-89.4-34.3h0Z"/>
          <path class="st6" d="M207.2,332.1l64.1-23.7-18.2-139.9-63.1,25.8,17.2,137.9h0Z"/>
        </g>
        <path class="st5" d="M88.5,287.6v25.8l116.7,42.9v-24.2l-116.7-44.4h0Z"/>
        <g>
          <path class="st8" d="M268.3,309.8l-62.1,22.7v25.2l2.4-1c3.3-8.4,10.8-18.7,27.4-23.2,8.4-2.3,14.6-.4,19.4,3.9l13-5.4v-22.2h0Z"/>
          <path class="st8" d="M147.1,335.2c-8.4,14.6-5.8,35.3,6.6,44.8l-1,56.6-14.7,7.1v32.3l9.2-3.9v-26.5l15.9-7.6.7-54.4c-4.6-3.9-17-29.8-4.4-43.8-4.7-1.6-6.7-2.9-12.3-4.5h0Z"/>
          <path class="st8" d="M147.8,445.1v33.1s57.1,22.5,57.1,22.5v-33.1l-57.1-22.5h0Z"/>
          <path class="st8" d="M148.1,445.7l15.4-7.6,56.6,22.5-15.4,7.3-56.6-22.2h0Z"/>
          <path class="st8" d="M164.5,384.1l-1,54.8,56.1,22,.8-56.1-55.8-20.7h0Z"/>
          <path class="st8" d="M153.6,381.3c-14.1-14.4-13.9-30.1-7.1-46.4l-52.5-18.6c-7,15.5-3.9,29.7,4.3,43.2l55.4,21.8h0Z"/>
          <path class="st8" d="M218.6,404.8c-14.1-14.4-15.7-30.5-10.7-47.5l-48.9-17.5c-7,15.5-7.1,24.7,4.3,43.2l55.4,21.8h0Z"/>
          <path class="st8" d="M98.2,360.2l-.4,53.6,55.7,21.8v-54.6l-55.4-20.7h0Z"/>
          <path class="st8" d="M97.8,414.1l-16.1,5.4,56.8,23.6,14.6-6.8-55.4-22.1h0Z"/>
          <path class="st8" d="M80.7,419.1l-.4,32.9,57.5,24.6v-33.6l-57.1-23.9h0Z"/>
        </g>
        <path class="st11" d="M192.5,310.9l-.2.8c.2,0,.3.1.5.2,9.4,3.8,12.5,18.1,6.9,31.8-4,9.9-12.4,17.5-19.8,19.2l24.8,10c12.6.2,24.1-2.4,31.1-16.4,2.6-8.4,3.4-17.2-2.5-27.5-13,0-20.3-6.4-26.8-13.9l-13.9-3.9h0Z"/>
      </g>
      <g>
        <path class="st3" d="M188,310.9c-.2,0-.5,0-.7,0-8.2.3-17.1,7.7-21.6,18.8-4.6,11.2-3.4,22.7,2.4,28.6l2.8-6.9c-3.3-4.7-3.8-12.4-.7-20,3.5-8.6,10.5-14.1,16.8-14,1.2,0,2.3.3,3.4.7,7,2.8,9.3,13.4,5.1,23.5-2.7,6.5-7.3,11.3-12.2,13.1l-3,7.3c7.6-1.4,15.4-8.4,19.5-18.6,5.6-13.7,2.5-27.9-6.9-31.8-1.5-.6-3.2-.9-4.8-1h0Z"/>
        <path class="st11" d="M210,305.6l-4.3,10c4.9,2.9,15.5,15.1,27.1,12.9l5-10c-6.4-8.6-15.7-12.9-27.9-12.9h0Z"/>
        <path class="st3" d="M195.6,341.4c-2.7,6.4-7.4,11.1-12.2,13-4.3-.5-8.3-2.5-12-3-3-4-5.2-10.4-1.6-20.3,3.7-10.3,13.5-16.1,20.6-13.2,7.1,2.8,9.5,13.4,5.2,23.5h0Z"/>
      </g>
      <g>
        <path class="st6" d="M245,319.8l25.7-56.4c5.5-12.1,2.9-20.8-2.1-30.7l-12.1-23.6c-5.1-12.1-16.9-27.2-33.6-20-14.8,6.4-16.9,26.4-14.3,40.7l14.3,33.6-18.6,40c19.3-2.5,30.8,5.8,40.7,16.4h0Z"/>
        <path class="st6" d="M210.9,302.2c-2,0-4.1.2-6.3.5-1.7,0,0,2.9,3.8,6.4l1.5-3.6c12.1,0,21.4,4.3,27.9,12.9l-2.5,5c5.4,1.7,9.8,1.8,10.3-2.5-9.2-12.1-20.6-18.8-34.8-18.7h0Z"/>
      </g>
      <path class="st9" d="M151.9,125.5c0,2.8-1.7,5.1-3.8,5.1-2.1,0-3.8-2.2-3.8-5,0,0,0,0,0,0"/>
      <path class="st9" d="M125,113.5c-.9.9-1.4,2.3-1.4,3.9,0,2.8,1.7,5,3.8,5s3.8-2.3,3.8-5-.3-2.2-.8-3.1c-.6,0-1.2-.1-1.8-.2-1.2-.2-2.4-.4-3.5-.7h0Z"/>
      <path class="st2" d="M190.5,5.4c3.1,1,6.3,2.4,9.5,4.2l17.1,8c1.1.8,2.2,1.6,3.3,2.3-1.9-7-14-12.8-29.9-14.6h0ZM168.1,5.5c-14.8,1.8-26.2,7-28.9,13.4l20.6-9c2.7-1.9,5.5-3.3,8.3-4.4h0Z"/>
    </g>
    <g>
      <g>
        <g>
          <path class="st8" d="M177.7,2.8c-6.8,0-13.3,2.1-19.4,6.4l-21.5,10.3c-16.2,8-28.9,30.4-30.3,41.6-3.9,14.5,10.8,30.6,33.7,35,13.3,2.8,41,4.4,54.1,2.5,32.9-4.8,47.4-13.4,53-37-3.2-12.5-11.8-36.8-31.5-44.6l-17.1-8c-7.1-4.1-14.1-6.2-20.9-6.1h0Z"/>
          <path class="st8" d="M253.9,79.3c-.2,1.7-1.8,4.4-2.6,6.9-11,8.9-26.7,13.4-47.9,18.7-34.8,8.8-102.8,2.5-114.6-18.2,1.1,23.4,19.9,24.6,38.3,27.8,36.3,5.4,82.5,4.2,108.5-10.7,8.5-4.3,18.2-14.1,18.3-24.5h0Z"/>
        </g>
        <path class="st0" d="M154.6,10.2c3.3,7.4,14,9.2,24.6,10,15.4-.4,22.6-5.6,22.9-8.9-14.9-11-30.7-11.9-47.5-1.1Z"/>
        <path class="st0" d="M160.1,16c-20,20.9-32.3,45.4-36.2,74.9,3.8,2.2,7.6,3.4,11.4,3.7,1.3-30.4,11.4-54.8,32.6-75.7-4.5-4.3-5.8-2.9-7.8-2.9h0Z"/>
        <path class="st0" d="M173.9,19.8l-.4,79.3h9.6l-.7-78.9c-5.4-3.7-6.1-.8-8.6-.4h0Z"/>
        <path class="st0" d="M112.1,205.9l-24.6,81.1,83.9,31.8c7.1-7.4,15.4-10.6,25.4-7.5l-18.2-79.6-66.4-25.7h0Z"/>
        <path class="st0" d="M106.8,160.9l4.6,36.8,11.1,3.9-1.4-36.1-14.3-4.6h0Z"/>
        <path class="st0" d="M171.1,184.8l-2.5,34.6,9.3,3.6,7.5-31.8-14.3-6.4h0Z"/>
      </g>
      <g>
        <path class="st7" d="M122.1,203.6c0,4.2-2.4,7.7-5.5,7.7s-5.6-3.4-5.6-7.6c0,0,0,0,0-.1"/>
        <path class="st7" d="M178.2,225.4c0,4.2-2.4,7.7-5.5,7.7-3.1,0-5.6-3.4-5.6-7.6,0,0,0,0,0-.1"/>
      </g>
    </g>
    <g>
      <g>
        <path class="st0" d="M125.3,233.1l-.4,48.6,43.6,16.1-.7-49.3-42.5-15.4h0Z"/>
        <path class="st0" d="M124.3,233.1v19.6l20.4,20.7,22.1-5.7v-18.6l-42.5-16.1h0Z"/>
      </g>
      <path class="st11" d="M171.6,351.8l-3,6.1,12.1,2.7,2.1-5.9-11.1-2.8h0Z"/>
    </g>
    <g>
      <path class="st7" d="M248.1,61.7c4.4,9.4,4.8,8.7,5.4,18.9-2.7,11.1-29.4,20.1-40.4,23.6-13.4,4.3-49,6.5-78.2,2.5-24.1-3.4-43.6-11.5-46.1-22.1,5.6-13.2,6-14,16.6-20.4-.8,15.2,13.5,29.1,36.2,32.3,15.6,2.2,43.2,4.2,54.1,2.5,34-5.4,47.4-14.8,52.5-37.2h0Z"/>
      <g>
        <path class="st0" d="M196.1,16.6c20,20.9,31.6,40,35.5,69.5-3.2,2.1-5.9,4.5-11,5.4-1.3-30.4-11.8-51.1-33.1-72,2-1.8,4-3.6,8.6-2.9h0Z"/>
        <path class="st0" d="M158.2,14.5c-36,14.7-43,39-48.2,63.9-3.1-4.8-5.7-9.7-4.3-15.7,8.4-29,25.1-45.2,48.7-52.3l3.8,4.1h0Z"/>
        <path class="st0" d="M199.6,14.5c35.5,15.8,36.9,35.9,42.5,60.1,2.6-3.7,4.3-8.3,5-14-8.3-30.4-20.1-40.7-44.8-50.4-4.1,1.4-2.9,2.9-2.7,4.3h0Z"/>
      </g>
    </g>
  </g>
  <path class="st12" d="M126.8,140.4c5.2,9.5,13,10.2,21.8,7.4"/>
</svg>