<?xml version="1.0" encoding="UTF-8"?>
<svg viewBox="0 0 160 160" xmlns="http://www.w3.org/2000/svg" xmlns:xlink="http://www.w3.org/1999/xlink">
 <defs>
  <linearGradient id="a">
   <stop stop-opacity=".2" offset="0"/>
   <stop stop-color="#fff" stop-opacity="0" offset="1"/>
  </linearGradient>
  <linearGradient id="c" x1=".88406" x2="-.11232" y1="1.0693" y2="-.26733" xlink:href="#a"/>
  <linearGradient id="b" x1=".93116" x2="-.22101" y1=".26667" y2="-6.219e-16" xlink:href="#a"/>
 </defs>
 <g transform="matrix(.80483 -.5935 .5935 .80483 -38.75 69.865)" fill-rule="evenodd">
  <path d="m10.308 84.25 117.36 21.502 8.2215-41.125-125.58 19.623z" fill="#f3fafa" stroke="#000" stroke-linejoin="round" stroke-width="1.25"/>
  <path d="m5.7542 84.118 131.63-12.255-10.314 34.746-121.31-22.491z" fill="#f3fafa" stroke="#000" stroke-linejoin="round" stroke-width="1.25"/>
  <path d="m45.469 92.154 81.026 15.051 8.2469-31.751-89.273 16.7z" fill="url(#c)"/>
  <path d="m36.382 78.482 98.963-14.226-1.6494 10.309-97.314 3.9173z" fill="url(#b)"/>
  <path d="m7.7286 84.443 129.19-13.397 19.473 27.476-148.67-14.079z" fill="#f3fafa" stroke="#000" stroke-linejoin="round" stroke-width="1.25"/>
  <path d="m6.4325 84.11 129.39-19.084 0.56482-25.645-129.95 44.729z" fill="#f3fafa" stroke="#000" stroke-linejoin="round" stroke-width="1.25"/>
  <path d="m7.4926 83.918 48.004 6.4243-2.3342-10.97-45.67 4.5461z" fill="#f3fafa" stroke="#000" stroke-linejoin="round" stroke-width="1.25"/>
  <path d="m7.0662 84.05 45.773-6.266-2.025-10.526-43.748 16.792z" fill="#f3fafa" stroke="#000" stroke-linejoin="round" stroke-width="1.25"/>
  <path d="m54.066 80.552 1.7768 7.6149 71.326 6.5996-73.103-14.214z" fill="#fffafa"/>
  <path d="m13.453 82.328 32.236-12.184 1.2692 7.6149-33.505 4.5689z" fill="#fffafa"/>
  <path d="m12.945 84.105 33.505-3.0459 1.0153 7.1072-34.521-4.0613z" fill="#fffafa"/>
 </g>
</svg>
