<?xml version="1.0" encoding="utf-8"?>
<!-- Generator: Adobe Illustrator 21.0.2, SVG Export Plug-In . SVG Version: 6.00 Build 0)  -->
<svg version="1.1" id="Layer_1" xmlns="http://www.w3.org/2000/svg" xmlns:xlink="http://www.w3.org/1999/xlink" x="0px" y="0px"
	 viewBox="0 0 841.9 595.3" style="enable-background:new 0 0 841.9 595.3;" xml:space="preserve">
<style type="text/css">
	.st0{fill:#F16766;stroke:#1A2745;stroke-width:2;stroke-linecap:round;stroke-linejoin:round;stroke-miterlimit:10;}
	.st1{fill:#5C7CBC;stroke:#1A2745;stroke-width:2;stroke-linecap:round;stroke-linejoin:round;stroke-miterlimit:10;}
	.st2{fill:#81D3F6;stroke:#1A2745;stroke-width:2;stroke-linecap:round;stroke-linejoin:round;stroke-miterlimit:10;}
	.st3{fill:#FFFFFF;stroke:#1A2745;stroke-width:2;stroke-linecap:round;stroke-linejoin:round;stroke-miterlimit:10;}
	.st4{fill:none;stroke:#1A2745;stroke-linecap:round;stroke-linejoin:round;stroke-miterlimit:10;}
</style>
<g>
	<polygon class="st0" points="275.3,235.9 291.4,241.3 297.3,257.4 300.7,253.9 300.7,232.1 279,232.3 	"/>
	<path class="st1" d="M303.5,201.5l-2.9,2.9c-0.9,0.9-2.4,0.9-3.3,0v0c-0.9-0.9-0.9-2.4,0-3.3l2.9-2.9c0.9-0.9,2.4-0.9,3.3,0l0,0
		C304.4,199.1,304.4,200.6,303.5,201.5z"/>
	<path class="st1" d="M313.4,203.9l-2.8,2.8c-1,1-2.6,1-3.6,0l0,0c-1-1-1-2.6,0-3.6l2.8-2.8c1-1,2.6-1,3.6,0h0
		C314.3,201.3,314.3,202.9,313.4,203.9z"/>
	<polygon class="st2" points="273.1,198.7 311.8,219.6 324.6,206.8 276.4,195.4 	"/>
	<path class="st1" d="M331.1,229.1l-2.9,2.9c-0.9,0.9-0.9,2.4,0,3.3l0,0c0.9,0.9,2.4,0.9,3.3,0l2.9-2.9c0.9-0.9,0.9-2.4,0-3.3l0,0
		C333.5,228.2,332,228.2,331.1,229.1z"/>
	<path class="st1" d="M328.7,219.2l-2.8,2.8c-1,1-1,2.6,0,3.6h0c1,1,2.6,1,3.6,0l2.8-2.8c1-1,1-2.6,0-3.6l0,0
		C331.3,218.2,329.7,218.2,328.7,219.2z"/>
	<polygon class="st2" points="333.9,259.5 312.9,220.8 325.8,208 337.2,256.2 	"/>
	<path class="st3" d="M331.5,192l-38.6,41.7c-0.1,0.1-0.2,0.3-0.2,0.5l-1.2,7.1l6.4-2.1c0.1,0,0.2-0.1,0.3-0.2l42.6-37.8
		c4.5-4.5,6.1-10.2,3.5-12.8C341.8,185.9,336,187.5,331.5,192z"/>
</g>
<g>
	<line class="st4" x1="274.6" y1="205.7" x2="263.2" y2="217.1"/>
	<line class="st4" x1="261.7" y1="218.6" x2="258.8" y2="221.5"/>
	<line class="st4" x1="262.5" y1="217.8" x2="262.4" y2="217.9"/>
</g>
<g>
	<line class="st4" x1="273.9" y1="211.3" x2="262.5" y2="222.7"/>
	<line class="st4" x1="261" y1="224.2" x2="258.1" y2="227.1"/>
	<line class="st4" x1="261.8" y1="223.4" x2="261.7" y2="223.4"/>
</g>
<g>
	<line class="st4" x1="281.5" y1="208.5" x2="270.2" y2="219.8"/>
	<line class="st4" x1="268.7" y1="221.3" x2="265.8" y2="224.2"/>
	<line class="st4" x1="269.4" y1="220.5" x2="269.4" y2="220.6"/>
</g>
<g>
	<line class="st4" x1="320.2" y1="245.9" x2="308.8" y2="257.3"/>
	<line class="st4" x1="307.4" y1="258.8" x2="304.4" y2="261.7"/>
	<line class="st4" x1="308.1" y1="258" x2="308" y2="258"/>
</g>
<g>
	<line class="st4" x1="318.2" y1="252.8" x2="306.9" y2="264.1"/>
	<line class="st4" x1="305.4" y1="265.6" x2="302.4" y2="268.5"/>
	<line class="st4" x1="306.1" y1="264.8" x2="306.1" y2="264.9"/>
</g>
<g>
	<line class="st4" x1="322.8" y1="253.1" x2="311.4" y2="264.4"/>
	<line class="st4" x1="309.9" y1="265.9" x2="307" y2="268.8"/>
	<line class="st4" x1="310.7" y1="265.1" x2="310.6" y2="265.2"/>
</g>
</svg>
