<?xml version="1.0" encoding="UTF-8"?>
<svg viewBox="0 0 793.7 1122.5" xmlns="http://www.w3.org/2000/svg">
 <g fill-rule="evenodd">
  <path d="m386.58 306.75c-87.257 46.593-105.34 133.94-86.883 179.34-45.015-56.491 0.69388-149.92 93.797-200.69 87.256-46.593 230.62-38.726 230.54 68.713-30.154-97.187-150.2-93.959-237.45-47.367z"/>
  <path d="m612.33 306.75c33.997 57.815-9.8062 142.9-97.837 190.04-88.03 47.139-186.95 38.484-220.95-19.332-33.997-57.815 9.8064-142.9 97.837-190.04 88.03-47.139 186.95-38.484 220.95 19.331zm12.081 14.801c24.899 71.329-8.1839 143.96-103.19 197.27-95.005 53.31-166.3 47.493-222.16-5.2991-53.349-50.469-16.418-171.22 86.856-226.89 95.005-53.31 212.73-35.533 238.49 34.924z"/>
  <path d="m279.99 413.08c-24.368 78.491-71.812 126.13-152.34 207.45 18.631-25.688 41.986 6.5 31.089 18.61 95.884-50.616 206.63-76.082 289.73-90.141-8.075-11.355-8.632-21.039 1.668-27.382-26.265 6.839-75.873 10.021-109.42-4.597-6.753 2.296-10.536 11.208-9.869 18.705 5.46 4.264 5.71 9.037-19.92 15.22-42.248 13.064-76.122 23.414-114.98 40.448-3.529 1.021-7.41-0.31598-5.516-2.372 29.366-33.061 55.153-63.257 67.468-80.188 6.157-8.466 16.198-14.46 31.709-7.125-5.861-7.86-6.55-17.076 7.034-21.047-5.509-32.323-3.186-39.83-1.314-52.24 0.65598-13.159-6.214-18.571-15.328-15.343z" fill="#7f0000"/>
  <path d="m171.95 611.19c-4.0296-7.1342-22.086-13.906-25.257-11.232l-101.11 69.97c-2.6107 1.972-6.9378 8.6269-1.5764 6.1538 5.1816-0.86975 17.758 1.583 21.052 6.7112 4.1711 7.1533 4.3905 22.189 1.07 26.572l102.92-74.173c0.70427-0.70105 2.102-1.567 2.3147-2.6919 4.0457-5.7263 2.2805-18.745 0.59258-21.31z" fill="#808080"/>
  <path d="m50.784 669.66c-5.8478-2.9984-11.937 5.0561-12.094 11.626l-0.2676 11.158c-0.1576 6.5699 5.778 9.0958 11.626 12.094l11.012 5.6466c5.8478 2.9985 11.937-5.0562 12.094-11.626l0.2676-11.158c0.15758-6.5696-5.778-9.0957-11.626-12.094l-11.012-5.6465h-8e-6z" fill="#7f0000"/>
  <g fill="none" stroke="#000" stroke-width="1.25">
   <path d="m291.97 429.71l229.37-160.27"/>
   <path d="m289.58 446.76l251.71-175.62"/>
   <path d="m291.87 462.12l262.27-185.9"/>
   <path d="m295.26 475.88l274.24-193.38"/>
   <path d="m302.04 487.34l280.42-199.06"/>
   <path d="m311.5 497.41l282.71-199.66"/>
   <path d="m322.66 505.89l278.93-197.47"/>
   <path d="m335.81 512.46l273.76-193.27"/>
   <path d="m349.06 519.44l267.39-187.9"/>
   <path d="m365.49 524.13l254.74-178.43"/>
   <path d="m385.93 525.93l236.6-166.48"/>
   <path d="m294.27 412.48l204.35-142.93"/>
   <path d="m408.02 526.92l211.5-149.19"/>
   <path d="m349.94 324.52l194.88 152.09"/>
   <path d="m341.04 333.42l193.19 151.25"/>
   <path d="m331.72 341.89l191.07 149.55"/>
   <path d="m324.1 351.21l187.68 147.43"/>
   <path d="m316.9 360.95l182.6 143.62"/>
   <path d="m311.39 371.55l173.28 138.11"/>
   <path d="m305.03 382.14l166.5 133.88"/>
   <path d="m299.1 395.27l155.91 124.56"/>
   <path d="m360.96 316.05l193.61 152.52"/>
   <path d="m371.97 308.42l193.19 151.67"/>
   <path d="m384.26 301.22l190.65 149.55"/>
   <path d="m396.97 294.44l185.99 146.59"/>
   <path d="m410.52 288.51l180.9 142.77"/>
   <path d="m424.08 282.58l174.97 138.11"/>
   <path d="m437.64 277.49l168.19 132.18"/>
   <path d="m455.01 274.1l156.75 123.28"/>
   <path d="m472.38 270.71l144.89 114.39"/>
   <path d="m497.37 270.29l123.71 96.594"/>
   <path d="m298.25 394.85l173.7-123.71"/>
   <path d="m438.62 523.64l172.22-123.07"/>
  </g>
  <path d="m103.25 630.1l-21.906 15.128c2.7891-1.5535 11.536 16.565 13.028 19.912 1.0125 3.1744 2.9121 22.099 0.61727 23.228l22.816-16.523c1.271-1.8359 0.48521-18.209-0.8731-21.534-1.6501-3.0792-10.857-22.471-13.681-20.212z"/>
  <path d="m146.71 599.62c2.7891-0.28247 12.259 15.568 13.751 18.915 1.0125 3.1744 2.6125 21.2 0.3177 22.33l8.7063-6.1024c6.0597-3.5818 5.0446-21.143 2.9442-24.277-1.6111-3.0117-18.714-12.859-25.719-10.865z"/>
  <path d="m146.16 599.9l-21.183 15.252c2.7891-1.5535 11.96 15.718 13.451 19.065 1.0125 3.1744 2.6125 21.5 0.31769 22.629l22.816-16.523c1.271-1.8359 0.7848-17.61-0.5735-20.935-1.6501-3.0792-12.004-21.748-14.828-19.488z"/>
  <path d="m81.766 645.65l-22.877 15.252c2.7891-1.5535 12.409 18.487 13.901 21.833 1.0125 3.1745 0.66528 21.649-1.6295 22.779l24.164-17.421c1.271-1.836 1.2342-18.358-0.12412-21.684-1.6501-3.0792-10.609-23.019-13.433-20.759z"/>
  <path d="m124.98 615.02l-21.906 15.076c2.7891-1.5535 11.836 16.017 13.327 19.364 1.0125 3.1744 2.9121 21.949 0.6173 23.079l22.366-16.373c1.271-1.8358 0.93459-18.209-0.42371-21.534-1.6501-3.0792-11.156-21.872-13.981-19.612z"/>
  <path d="m59.312 660.69l-12.922 8.4732c2.7891-1.5534 17.316 6.8866 20.865 8.8969 2.5822 1.5557 4.3071 3.9542 6.2489 6.9904 0.21182-1.9064-10.097-24.714-14.193-24.36z"/>
 </g>
</svg>
