<?xml version="1.0" encoding="UTF-8"?>
<svg version="1.0" viewBox="0 0 301.36126 292.63863" xmlns="http://www.w3.org/2000/svg">
 <g transform="translate(-207.98 295.08)" stroke-linecap="round" stroke-linejoin="round">
  <g transform="matrix(.69382 .72015 -.72015 .69382 -14.022 -374.65)">
   <g transform="matrix(-.16106 -.98694 -.98694 .16106 198.72 237.83)" stroke="#844e28" stroke-width="17.287">
    <path d="m493.31-307.3c-79.863 24.415-361.47 136.97-208.35 180.64 56.959 6.7136 81.593-28.913 101.8-51.788" fill="none"/>
    <path d="m286.02-273.61c-17.447 14.189-27.832 34.574-41.382 52.098-5.4095 22.586 17.501 46.962 39.578 46.7 20.286-6.2768 34.841-24.118 50.86-37.159 18.905-21.981-13.593-34.749-26.243-47.984-6.8186-5.6144-14.189-11.223-22.814-13.655z" fill="#3e2822"/>
   </g>
   <path d="m599.2-110.38-152.38-86.434-25.93-100.44 25.93 100.44-135.1 23.856" fill="none" stroke="#4f331f" stroke-width="34.573"/>
  </g>
  <path d="m312.13-196.76c-4.4172-12.2-24.703-14.96-29.23-1.3216-5.256 9.5201-10.392 23.137-2.4098 32.602 10.629 10.287 27.592 17.488 41.839 10.294 13.312-6.0854 15.92-27.028 3.6157-35.424-4.2725-2.7746-9.8398-2.7639-13.815-6.1498z" fill="#9d9d9d" stroke="#6d6560" stroke-width="17.287"/>
  <g fill="none" stroke="#90552c" stroke-width="10">
   <path d="m347.26-275.2-29.345 19.092"/>
   <path d="m358.57-266-29.345 19.092"/>
   <path d="m371.65-257.87-29.345 19.092"/>
  </g>
  <g transform="matrix(.16305 .98662 -.98662 .16305 171.51 -558.25)" fill="none" stroke="#90552c" stroke-width="10">
   <path d="m347.26-275.2-29.345 19.092"/>
   <path d="m358.57-266-29.345 19.092"/>
   <path d="m371.65-257.87-29.345 19.092"/>
  </g>
 </g>
</svg>
