<?xml version="1.0" encoding="UTF-8"?>
<svg id="svg8" xmlns="http://www.w3.org/2000/svg" version="1.1" viewBox="0 0 196.4 203.1">
  <!-- Generator: Adobe Illustrator 29.1.0, SVG Export Plug-In . SVG Version: 2.1.0 Build 142)  -->
  <defs>
    <style>
      .st0 {
        fill: #fff;
      }

      .st0, .st1, .st2, .st3, .st4, .st5, .st6, .st7, .st8 {
        fill-rule: evenodd;
      }

      .st1 {
        fill: #cd9b43;
      }

      .st2 {
        fill: #992720;
      }

      .st3 {
        fill: #1f1f1f;
      }

      .st4 {
        fill: #9b673b;
      }

      .st5 {
        fill: #cbcbcb;
      }

      .st6 {
        fill: #b98733;
      }

      .st7 {
        fill: #2c2c2c;
      }

      .st8 {
        fill: #b32d25;
      }
    </style>
  </defs>
  <g id="layer1">
    <path id="path818" class="st1" d="M77.4,160.8c13.9.5,32.1-3.8,42,1.2l14.2-15.7c-6.1-9.4-3.6-28.1-5.5-41.9l-50.7,56.4Z"/>
    <path id="path820" class="st1" d="M110.8,127.4l-12.5,13.8,57.9,57,17.2-19-62.6-51.8Z"/>
    <path id="path822" class="st4" d="M106.7,132l-4.2,4.6,59.9,55.7,5.8-6.4-61.5-53.9Z"/>
    <path id="path824" class="st7" d="M128.4,107.8c-1.1-18-5.5-33.1-19.5-45.8-28-25.3-64.9-37.7-92.5-7.1-27.6,30.5-11.5,65.9,16.5,91.2,14.7,13.3,30.8,15.4,47.9,14.7l47.6-53Z"/>
    <path id="path826" class="st3" d="M85.9,155.1c-4.3-.1-7.4-.2-13.3-.3-16.7-.3-42.3-11.3-49.3-18.5,8.2,5.9,15.1,20.7,46.2,24.3.7,0,5.5-.2,12.1-.5.5-.5,3.8-4.3,4.3-5.2h0Z"/>
    <path id="path828" class="st6" d="M81.7,160.3c1.1-1.8,3.2-3.9,4.2-5.1,17.5.4,22.4,1.6,30.9,5.5-10.1-1.2-24.8-.8-35.1-.4Z"/>
    <path id="path830" d="M87.3,151.4c5.2-6.1,10.6-12.1,15.9-18.1,0,0,0-.1.2-.2,0,0,0-.1.1-.2,5.3-5.9,10.8-11.9,16.3-17.8.6-.7,7.5-8.3,8.6-7.5.9,1.1-6,8.7-6.6,9.4-5.2,6.1-10.6,12.1-15.9,18.1,0,0-.1.1-.2.2,0,0,0,.1-.1.2-5.3,5.9-10.8,11.9-16.3,17.7-.6.7-7.5,8.3-8.6,7.6-.9-1.1,6-8.7,6.6-9.4h0Z"/>
    <path id="path832" d="M134.7,145.4c13.1,10.6,26.2,21.4,39.2,32.1.3.2.5.5.6.9.1.4,0,.7,0,1.1-1.1,3.1-2.9,5.1-5.1,7.5-.8,1-1.7,1.9-2.5,2.8-.1.2-.3.3-.4.4-.1.2-.3.3-.4.5-.8.9-1.7,1.8-2.5,2.7-2.2,2.4-4,4.3-6.9,5.9-.4.2-.7.2-1.1.2-.4,0-.7-.2-1-.5-12-11.9-24.1-23.8-36-35.7-.8-.9-21.2-21-20.3-21.9.9-1,21.4,19.1,22.3,19.9,12.2,11.7,24.3,23.6,36.3,35.4-.2-.2-.5-.3-.8-.4-.3,0-.5,0-.8.1,2.4-1.3,4.1-3.1,5.9-5.1.8-.9,1.6-1.9,2.5-2.8.2-.2.3-.3.4-.5.1-.1.3-.3.4-.4.8-.9,1.7-1.9,2.5-2.8,1.7-1.9,3.5-3.8,4.5-6.3,0,.3,0,.5,0,.8.1.3.2.5.5.7,0,0-26.6-22-39-32.5-.9-.8-23-19.1-22.1-20.1.9-1,22.9,17.2,23.9,18h0Z"/>
    <path id="path834" d="M128.2,149c13.7,11.7,27.3,23.6,40.9,35.5.2.2.3.3.5.6.1.2.2.4.2.7,0,.3,0,.5-.1.7,0,.2-.2.4-.4.6-.8.9-1.6,1.7-2.4,2.6-.1.1-.2.3-.3.4-.1.1-.2.3-.4.4-.8.9-1.6,1.7-2.4,2.6-.2.2-.3.3-.6.4-.2.1-.5.2-.7.2-.3,0-.5,0-.7-.1-.2,0-.5-.3-.6-.4-13.2-12.3-26.4-24.6-39.5-37-.8-.8-20-18.7-19.1-19.7.9-1,20.2,16.9,21,17.7,13.4,12.1,26.6,24.4,39.8,36.7-.2-.2-.3-.2-.5-.3-.2,0-.3,0-.6,0-.2,0-.3,0-.5.1-.2,0-.3.2-.4.3,0,0,1.6-1.8,2.4-2.7.1-.1.3-.3.4-.4.1-.1.2-.3.4-.4.8-.9,1.6-1.7,2.4-2.6-.1.2-.2.3-.3.5,0,.2,0,.3,0,.6,0,.2,0,.3.2.5,0,.1.2.3.3.4,0,0-27.1-23.9-40.5-35.9-.8-.8-20.6-18.1-19.7-19.1.9-1,20.7,16.3,21.5,17h0Z"/>
    <path id="path836" d="M57.2,160.9c-.6-.1-1.1-.3-1.7-.4-9.8-2.6-16.2-6.3-23.9-12.9-14.1-13-24.3-25.9-29.8-44.6-2.2-9-2.4-16-.4-25,2.6-9.4,6.2-16.1,12.5-23.5.3-.3.6-.7.9-1,0,0,0,0,0,0,0-.1.8-.9,1-1,6.7-7.1,13-11.3,22.1-14.8,8.8-2.9,15.8-3.3,25-2.1,19.2,3.5,33,12.4,47.4,25.1,7.1,6.7,11.4,12.6,15,21.6.3.8.6,1.6.9,2.4,2.6,8,3.5,14.7,4,23.1,0,.1,0-.1,0-.1.5,7.1.3,14.1.6,21.2,0,1.6,3.8,16.5,2.9,17.6-3,.9-5.4-16.4-5.5-17.4-.6-7-.6-14-1.3-21,0,.2,0,0,0-.1-.6-8-1.6-14.4-4.2-22-.3-.8-.5-1.5-.8-2.2-3.5-8.5-7.4-13.8-14.2-20.1-13.8-12-27.1-20.6-45.4-23.9-8.4-1.1-14.8-.7-22.9,2-8.5,3.3-14.2,7.3-20.4,13.8-.3.3-.6.6-.9,1,0,0,0,0,0,0-.3.3-.6.6-.9,1-5.9,6.8-9.2,12.9-11.6,21.6-1.9,8.3-1.6,14.7.3,23,5.1,17.8,15,30.2,28.4,42.7,7.2,6.2,13.1,9.7,22.2,12.3.5.1,1.1.3,1.6.4,8,1.8,14.5,2.1,22.7,1.9,0,0,0,0,.1,0,.6.3,18-.8,20.8-.9,1.1,0,18.3.6,17.7,3.7-1,1-16-1.2-17.6-1.1-7,.5-13.9,1.3-20.9,1.5-.1,0,0,0,.1,0-8.5.4-15.3.2-23.7-1.5h0Z"/>
    <path id="path838" class="st1" d="M164.8,124.8c-10.9,8.6-28.1,16-33,25.9l-20.8-4.2c-.7-11.1-13.8-24.8-20.5-37l74.3,15.3Z"/>
    <path id="path840" class="st1" d="M118.1,117.8l18.3,3.7-12.8,80.2-25.1-5.1,19.6-78.8Z"/>
    <path id="path842" class="st4" d="M124.1,119l6.2,1.3-15.1,80.3-8.5-1.7,17.4-79.9Z"/>
    <path id="path844" class="st8" d="M92.2,112.5c-9.8-15.2-15.3-29.9-11.5-48.4C88.2,27.1,110.5-4.7,150.9,3.5c40.4,8.2,48.4,46.2,40.9,83.2-4,19.5-15.6,30.7-29.8,40.2l-69.8-14.4Z"/>
    <path id="path846" class="st2" d="M154.6,125.3c3.4-2.6,5.9-4.5,10.6-8.1,13.2-10.1,27.4-34.2,28.7-44.1-3,9.6.2,25.6-22.7,47-.5.5-4.5,3.1-10,6.8-.8-.1-5.6-1.2-6.6-1.6h0Z"/>
    <path id="path848" class="st6" d="M161,127c-1.9-.8-4.9-1.2-6.4-1.7-13.9,10.7-17.1,14.5-21.6,22.8,7.4-7,19.4-15.3,28-21.1Z"/>
    <path id="path850" d="M151.2,123.2c-7.8-1.8-15.7-3.5-23.5-5.1,0,0-.2,0-.2,0,0,0-.1,0-.2,0-7.8-1.6-15.8-3.2-23.6-4.6-.9-.2-10.9-2.3-11.4-1,0,1.4,9.9,3.5,10.9,3.7,7.8,1.8,15.7,3.5,23.5,5.1,0,0,.2,0,.2,0,0,0,.1,0,.2,0,7.8,1.6,15.8,3.2,23.6,4.6.9.2,10.9,2.3,11.4,1,0-1.4-10-3.4-10.9-3.7h0Z"/>
    <path id="path852" d="M109.5,146.4c-4.3,16.4-8.4,32.8-12.5,49.2,0,.4,0,.7,0,1.1.1.4.3.6.6.9,2.7,1.8,5.4,2.4,8.5,3,1.2.2,2.5.5,3.7.8.2,0,.4,0,.6.1.2,0,.4,0,.6.1,1.2.2,2.4.5,3.7.7,3.2.6,5.8,1.1,9.1.6.4,0,.7-.2,1-.5.3-.3.4-.6.5-1,2.6-16.7,5.3-33.4,7.8-50.1.2-1.2,4.6-29.4,3.3-29.7-1.3-.2-5.8,28-6.1,29.2-2.8,16.7-5.5,33.4-8.2,50,0-.3.2-.5.4-.8.2-.2.5-.3.8-.4-2.7.4-5.2-.1-7.8-.6-1.2-.2-2.4-.5-3.6-.7-.2,0-.4,0-.6-.1-.2,0-.4,0-.6-.1-1.2-.3-2.5-.5-3.7-.8-2.5-.5-5.1-1-7.3-2.4.3.2.4.4.5.6.1.3.1.5,0,.8,0,0,8.3-33.5,12-49.3.3-1.2,7.2-29,5.9-29.3-1.3-.3-8.3,27.4-8.6,28.6Z"/>
    <path id="path854" d="M116.9,145.5c-4,17.6-7.9,35.2-11.8,52.8,0,.3,0,.5,0,.7,0,.3.1.4.3.7.2.2.3.4.5.5.2.2.4.2.7.3,1.2.2,2.3.5,3.5.7.2,0,.3,0,.5.1.2,0,.4,0,.5.1,1.2.2,2.3.5,3.5.7.3,0,.5,0,.7,0,.3,0,.5-.2.7-.3.2-.2.4-.3.5-.5.1-.1.2-.5.3-.7,3.3-17.7,6.6-35.5,9.8-53.2.2-1.1,5-26.9,3.7-27.2-1.3-.2-6.2,25.6-6.4,26.7-3.5,17.7-6.9,35.4-10.3,53.1,0-.2,0-.3.2-.5.1-.2.2-.3.4-.4.2-.1.3-.2.5-.2.2,0,.4,0,.6,0,0,0-2.4-.5-3.5-.7-.2,0-.3,0-.5-.1-.2,0-.3,0-.5-.1-1.1-.2-2.3-.5-3.5-.7.2,0,.3.1.5.2.2.1.3.2.4.4.1.2.2.3.2.5,0,.1,0,.4,0,.6,0,0,7.7-35.3,11.3-52.9.2-1.1,5.8-26.8,4.5-27.1-1.3-.3-6.9,25.4-7.2,26.5h0Z"/>
    <path id="path856" d="M181.1,113c.4-.5.8-.9,1.1-1.3,6.3-7.9,9.3-14.7,11.5-24.6,3.6-18.9,4.2-35.2-2.5-53.5-3.6-8.5-7.5-14.3-14.5-20.4-7.7-6.1-14.5-9.3-24-11.5-.5-.1-.9-.2-1.4-.3h0c-.1,0-1.2-.3-1.4-.3-9.6-1.7-17.1-1.4-26.6,1.2-8.8,2.9-14.7,6.7-21.3,13.1-13.3,14.2-19.2,29.5-23.2,48.3-1.8,9.7-1.7,16.8.8,26.3.2.8.5,1.6.7,2.5,2.7,8,5.9,13.9,10.5,20.9,0,.1,0,0,0-.1,3.8,6,8.1,11.5,12.1,17.4.9,1.3,6.7,15.6,8.1,15.9,3-1.1-5.4-16.4-5.9-17.3-3.7-6-7.8-11.6-11.5-17.6,0,.2,0,0,0,0-4.2-6.8-7.3-12.5-9.7-20.2-.2-.8-.5-1.5-.7-2.3-2.2-8.9-2.2-15.5-.5-24.6,4-17.8,9.6-32.6,22.3-46.1,6.1-5.9,11.5-9.4,19.6-12,8.8-2.4,15.7-2.6,24.6-1,.4,0,.9.2,1.3.2h0c.4.1.9.2,1.3.3,8.8,2,15.1,4.9,22.2,10.5,6.4,5.6,10,10.9,13.4,18.7,6.5,17.4,5.9,33.2,2.5,51.2-2.1,9.3-4.8,15.6-10.6,23.1-.3.4-.7.8-1,1.3-5.4,6.2-10.5,10.3-17.2,14.9,0,0,0,0,0,0-.3.5-15,10-17.2,11.6-.8.6-14.4,11.3-12.1,13.5,1.4.2,12.2-10.5,13.5-11.3,5.9-3.8,11.9-7.2,17.7-11.1,0,0,0,0,0,0,7.1-4.7,12.5-8.9,18.2-15.3h0Z"/>
    <path id="path858" class="st0" d="M63.4,156.3c9.3,10.9,8,27.3-3,36.6-10.9,9.3-27.4,8-36.7-3-9.3-10.9-8-27.3,3-36.6,10.9-9.3,27.4-8,36.7,3Z"/>
    <path id="path860" class="st5" d="M63.5,156.2c9.3,11,8,27.4-3,36.6-10.9,9.3-27.4,8-36.7-3-1.2-1.4-2.2-2.9-3-4.4,9.4,10.4,25.4,11.5,36.2,2.4,9.6-8.1,11.8-21.6,6-32.2.2.2.3.4.5.6h0Z"/>
    <path id="path862" d="M16.4,175.6c.2,1.6.4,3,.8,4.6,1.1,3.8,2.4,6.6,4.8,9.8,2.5,3.1,4.8,5.1,8.3,7.1,3.4,1.8,6.2,2.8,10.1,3.3,3.8.4,6.8.2,10.6-.7,3.6-1.1,6.4-2.3,9.4-4.6.2-.1.3-.2.4-.3h0c0,0,.4-.3.4-.3,2.9-2.4,4.8-4.8,6.7-8,1.8-3.4,2.7-6.2,3.2-10.1.4-3.8.2-6.8-.8-10.5-1.1-3.8-2.5-6.6-5-9.7-2.5-3.1-4.9-5.1-8.3-7-1.4-.8-2.7-1.4-4.3-1.9-2-.6-3.7-1-5.8-1.3-3.8-.3-6.7,0-10.4,1-.8.3-9.7,4-9,5.7.2.1,8.2-3.2,9.5-3.6,3.4-.8,6.1-.9,9.5-.5,1.8.3,3.4.6,5.1,1.3,1.4.5,2.5,1,3.8,1.7,3.1,1.8,5.1,3.6,7.4,6.4,2.1,2.9,3.4,5.3,4.3,8.7.8,3.3,1,6,.6,9.3-.5,3.4-1.3,5.9-2.9,8.9-1.7,2.9-3.4,4.9-5.9,7,0,0-.3.3-.4.3h0c-.1.1-.3.2-.4.3-2.6,2-5.1,3.1-8.2,4-3.3.9-5.9,1.1-9.3.7-3.4-.5-5.9-1.3-8.9-2.9-3.1-1.7-5.2-3.5-7.4-6.3-2.2-2.8-3.4-5.3-4.4-8.7-.4-1.4-.6-2.7-.8-4.1-.2-1.9-.2-3.4,0-5.3.4-3.5,1.2-6,2.7-9.1.6-1.2,5.8-8.2,5.8-8.4-1.4-1.2-7.2,6.6-7.7,7.3-1.9,3.3-2.8,6.1-3.4,9.8-.3,2.1-.3,3.8-.2,5.9h0Z"/>
  </g>
</svg>