<?xml version="1.0" encoding="UTF-8"?>
<svg id="Layer_2_copy" xmlns="http://www.w3.org/2000/svg" version="1.1" viewBox="0 0 441 502.8">
  <!-- Generator: Adobe Illustrator 29.1.0, SVG Export Plug-In . SVG Version: 2.1.0 Build 142)  -->
  <defs>
    <style>
      .st0 {
        fill: #8e7e39;
      }

      .st1 {
        fill: #ebb594;
      }

      .st2 {
        fill: #ce8546;
      }

      .st3 {
        fill: #740a0a;
      }

      .st4 {
        fill: #0d2e47;
      }

      .st5 {
        fill: #38a2a5;
      }
    </style>
  </defs>
  <path class="st3" d="M162.1,248.5c.1.4.2.8.3,1.2,0-.5-.2-.9-.3-1.2ZM164.5,245.8c0-.2,0-.4.1-.6,0,.2-.1.4-.1.6ZM201.6,266.4c1-1,1.9-2,2.9-2.9-.9.9-1.9,1.9-2.9,2.9ZM232.1,247.4h0s0,0,0,0h0ZM232.1,247.4h0s0,0,0,0h0ZM368.9,399.7c-2.4-12.1-13.3-51-18.5-67.2-4.3-13.3-14.9-33.2-22.5-47.8-1.8-3.4-3.4-6.5-4.7-9.1-6.8-13.3-11.6-21.8-24.4-30.1-6.5-4.2-19.1-9.5-29.9-13.7.6-.2,1.3-.3,1.9-.5.5-.1,1.1-.3,1.6-.4,2.7-.8,5.2-1.6,7.5-2.5.6-.2,1.2-.5,1.8-.7,1.2-.5,2.4-1,3.5-1.6,18.5-9.2,24.9-27.2,30.8-48,.8-2.7,1.3-5.4,1.7-8.3.2-1.4.4-2.8.5-4.2.4-3.9.5-7.8.4-11.5,0-.5,0-1.1,0-1.6,0-1,0-1.9-.1-2.9,0-.9-.1-1.9-.2-2.8,0-1.1-.2-2.2-.3-3.3.6.1,1.2.2,1.8.2s.8,0,1.3,0c8.3-1.1,24.5-9.5,26.1-33.7,1.6-23-13.7-45.2-32.6-47.7-8.6-1.1-16.6,3.2-24.3,13.2-2.5,3.2-4.9,6.5-6.6,9.8-.8-.4-1.6-.9-2.5-1.4-.9-.5-1.7-.9-2.6-1.4-4.3-2.2-9.1-4.4-14.2-6.3-.4-.2-.9-.3-1.3-.5-2.1-.8-4.3-1.5-6.5-2.2-.5-.1-.9-.3-1.4-.4-.6-.2-1.1-.3-1.7-.5,0,0-.2,0-.2,0-.5-.2-1.1-.3-1.6-.4-.4-.1-.9-.2-1.3-.3-.4,0-.9-.2-1.3-.3-.4,0-.8-.2-1.2-.3-.5-.1-1.1-.2-1.6-.3-.6-.1-1.2-.2-1.8-.3-.5,0-1-.2-1.5-.2-.6,0-1.2-.2-1.8-.3,0,0-.1,0-.2,0-.6,0-1.3-.2-1.9-.2-.6,0-1.2-.1-1.8-.2-2-.2-4.1-.3-6.1-.3-2.9,0-5.8,0-8.6,0-.5,0-1,0-1.6,0-1.4,0-2.8.1-4.2.2-.5,0-.9,0-1.4,0-.5,0-1,0-1.5.1-.6,0-1.1,0-1.7.2-.9,0-1.8.2-2.7.3-1,.1-1.9.2-2.9.4-.4,0-.9.1-1.3.2-.9.2-1.9.3-2.8.5-.5,0-1,.2-1.5.3-.6.1-1.2.2-1.8.4-.4,0-.8.2-1.2.3-.2,0-.4,0-.5.1-.8.2-1.7.4-2.5.6-.4,0-.8.2-1.2.3-.7.2-1.3.4-2,.6-.8.2-1.6.5-2.4.7-.7.2-1.4.5-2.1.7-.6.2-1.2.4-1.8.7-1.7.6-3.3,1.3-4.8,2-.4.2-.9.4-1.3.6,0,0-.1,0-.2.1-.5.2-1,.5-1.4.7-.3.1-.5.2-.8.4-.5.2-1,.5-1.4.8-.4.2-.8.4-1.2.7-.3.2-.6.4-1,.6-.5.3-1,.6-1.6,1,0,0,0,0,0,0-5.5-7.8-15.9-19.1-28.9-17.4-16.4,2.1-25.4,12.9-28.5,33.8-2.6,17.8,6.2,29.3,14,35.7,3.6,2.9,7.9,4.4,12.9,4.4s1,0,1.6,0c0,.5,0,1-.1,1.4-.2,2.8-.2,5.3,0,7.3.9,11.5.1,25.5-2.1,35.7-2.2,10.1,5.2,25.3,17.2,35.5.8.7,1.6,1.4,2.4,2.1,1.2,1,2.4,2,3.5,3,.6.5,1.2.9,1.8,1.4.3.2.6.5.9.7.3.2.6.4.9.7.3.2.6.4.9.6.4.2.7.5,1.1.7.2.1.4.3.6.4.2.1.4.3.6.4,1.5.9,3.2,1.8,5.1,2.6.4.2.7.3,1.1.4.3.1.7.3,1,.4.2.1.5.2.8.3.9.3,1.8.6,2.7.9,2,.6,4.2,1.1,6.6,1.6h0c.2,0,.3,0,.5,0,.3,0,.6.1,1,.2,0,0,0,0,0,0,.4,0,.8.1,1.2.2,1.7.3,3.5.5,5.5.7.4,0,.9.1,1.3.1,1,.1,2.1.2,3.2.3,1,0,2.1.2,3.2.2,0,0,.1,0,.2,0,4.9.3,9.8.4,14.6.4s2.1,0,3.1,0c1.1,0,2.2,0,3.2,0h0c1.2,0,2.3,0,3.5-.1.4,0,.8,0,1.2,0,.4,0,.8,0,1.2,0,.9,0,1.9-.1,2.8-.1.1,0,.2,0,.3,0,.8,0,1.5-.1,2.3-.1,1.9-.1,3.7-.3,5.6-.5h0c2.7-.3,5.3-.6,7.8-.9.6,0,1.3-.2,1.9-.3.6,0,1.2-.2,1.8-.3.5,0,1-.2,1.5-.2,2.9-.5,5.7-1,8.3-1.6,11.5,4.3,26.5,10.4,33.6,15,12.1,7.9,16.5,15.7,23.3,28.9,1.3,2.6,3,5.7,4.8,9.1,7.6,14.5,18,34.3,22.3,47.4,5.3,16.1,16.1,54.8,18.5,66.8,2.3,11.5-.1,26.2-14.2,29.9-13.9,3.7-28.2.6-36.9-7.5,0,0-.1-.1-.2-.2-.8-.8-1.6-1.6-2.3-2.5-9-11.2-9-24.4-7.7-36.9l.2-1.9c1.5-13.6,2.9-26.4-3.6-42.8l-.6-1.5c-6.4-16-12.9-32.6-13.1-42.2,0-.8-.7-1.5-1.5-1.5h0c-.8,0-1.5.7-1.5,1.5.2,10.2,6.9,27,13.4,43.3l.6,1.5c6.2,15.7,4.9,28.2,3.4,41.4l-.2,1.9c-1.4,13.2-1.4,27.1,8.3,39.1.6.7,1.1,1.4,1.8,2-4.4,8.4-9.1,15.1-14,19.7-4.6,4.4-8.2,8.4-11.7,12.4-6.6,7.5-12.4,14-22.4,18.6-15.2,6.9-40.3,3.6-49.6,0-9.2-3.6-13.8-11.1-14.3-22.9-.1-3.9-.4-9.8-.8-16.3,0,0,0-.2,0-.3,0-1.4-.2-2.9-.2-4.3,0,0,0,0,0-.1,0-.8-.1-1.5-.1-2.3s-.1-1.5-.1-2.3c0-.8-.1-1.6-.2-2.4,0-.3,0-.7,0-1,0-.1,0-.3,0-.5,0-.4,0-.7,0-1.1-.1-1.3-.2-2.7-.3-4,0-.5,0-1.1-.1-1.6,0-.5,0-1-.1-1.5-.1-1-.2-2-.3-3,0-.7-.1-1.3-.2-1.9,0,0,0-.2,0-.2,0-.7-.2-1.4-.3-2.1,0-.6-.1-1.1-.2-1.6-.1-.9-.3-1.8-.4-2.7,0-.3,0-.5-.1-.8,0-.3,0-.5-.1-.8-2.3-12.5-1.5-21.3,2.6-29.3,4.5-8.7,19.2-17.2,30.9-14.7,13.5,2.9,23.7,9,30.8,18.4,0,0,0,0,0,0,.1.1.2.2.3.4,2.8,3.8,5.2,8.2,7,13,5.7,15,6.6,26.1,6.6,31.7s-.2,4.2-.2,4.2c-.1.8.4,1.6,1.2,1.7.8.1,1.6-.4,1.7-1.2.1-.6,2.2-14.4-6.6-37.5-1.8-4.6-3.9-8.8-6.5-12.5,9.1-4.1,14.7-2,14.8-2,.8.3,1.6,0,2-.8.3-.8,0-1.6-.8-2-.3-.1-7-2.8-17.8,2.3-7.5-9.5-18.1-15.7-32-18.7-13.1-2.8-29.1,6.4-34.1,16.3-4.5,8.7-5.3,18-2.9,31.2,1.4,7.8,2.5,21.3,3.1,32.9-11,4.4-18.8,7.8-23,10.3-10.7,6.2-37.7,18.6-48.6,22.5-10.2,3.7-26,1.9-37.4-1-12-3.1-18.9-7.7-20.6-13.6-1.3-4.5-1.7-13.1-2.1-21.3-.2-4.2-.4-8.6-.8-12.5-.4-4.5-1.4-9.3-2.5-14.5-1.7-8.4-3.7-18-3.2-27.4.8-14.3,13.8-23.7,25.7-25.2,12-1.6,28.3,6.5,36.4,18,1.7,2.4,3.3,5.5,4.9,9.1,0,0,0,0,0,0,0,0,0,.1,0,.2,6.2,13.9,11,33.2,11.1,33.4.2.8,1,1.3,1.8,1.1.8-.2,1.3-1,1.1-1.8-.2-1-4.8-19-10.8-32.9,6-4,12.2-6.9,18.3-8.9,18-5.7,34.5,6.4,34.6,6.5.7.5,1.6.4,2.1-.3.5-.7.4-1.6-.3-2.1-.6-.4-10.6-7.8-23.9-8.6.5-15.4-1.7-35.5-2.9-46.5-.2-1.7-.4-3.2-.5-4.5-1.2-11.3,3.8-31.6,3.8-31.8.2-.8-.3-1.6-1.1-1.8-.8-.2-1.6.3-1.8,1.1-.2.9-5.1,21-3.9,32.8.1,1.2.3,2.8.5,4.5,1.2,10.9,3.4,30.9,2.8,46.1-3.3,0-6.8.6-10.4,1.7-6.2,2-12.5,5-18.6,9-1.5-3.1-3-5.9-4.6-8.1-2.9-4.1-6.8-7.9-11.1-10.9-1.4-9,2.5-16.6,5.6-19.6,3.1-3,3.9-5.9,5.1-10.4.8-3,1.9-6.8,3.9-12,1.7-4.2,3.1-9.3,4.6-14.7,3.4-11.9,7.2-25.3,14.9-36.3,4.1-5.9,9.6-11.1,16.5-15.5,0-.2-.1-.4-.2-.6-.3-.9-.4-1.8-.3-2.6-7.7,4.8-14,10.5-18.5,17-7.9,11.4-11.8,25.1-15.3,37.2-1.5,5.3-3,10.4-4.6,14.4-2.1,5.4-3.2,9.2-4,12.3-1.2,4.4-1.8,6.6-4.3,9-3.8,3.7-7.3,11.2-6.8,19.7-8-4.8-17.2-7.3-25-6.3-13.4,1.8-27.4,11.9-28.3,28-.6,9.8,1.5,19.6,3.2,28.2,1,5.1,2,9.9,2.4,14.1.3,3.9.5,8.2.8,12.4.5,8.8.9,17.2,2.2,22,2,7.1,9.7,12.4,22.7,15.7,7.1,1.8,15.8,3.2,23.9,3.2s10.9-.6,15.3-2.2c10-3.7,37.5-16.1,49.1-22.8,4-2.3,11.3-5.6,21.7-9.7.3,5.7.5,10.8.7,14.2.5,13.1,5.8,21.5,16.2,25.6,5.5,2.2,16.5,4.2,27.8,4.2s17.3-1.1,24.1-4.2c10.6-4.8,16.6-11.5,23.4-19.3,3.4-3.9,7-7.9,11.5-12.2,5.1-4.8,9.8-11.4,14.2-19.8,6.7,5.6,16,8.7,25.8,8.7s8.3-.5,12.5-1.6c15.1-4,19.1-19.6,16.4-33.4ZM292.8,77.2c6.3-8.2,12.6-12.2,19.2-12.2s1.5,0,2.2.2c17.1,2.2,31.4,23.4,30,44.5-1.5,22.3-16,30-23.5,30.9-.3,0-.6,0-.9,0-3.6,0-5.7-3.3-7.6-7.9,13.2-1.8,16-9.5,18.3-15.7.4-1.1.7-2,1.1-3,3.3-7.9,2.2-23.3-4.2-31.3-3.6-4.5-7.9-7-12.6-7.2-5-.2-9.9,2.2-14.7,7.1-4.5,4.7-8.4,11.6-10,17.7-.4-.2-.7-.4-1-.5-2.6-1.3-3.4-1.7-4.3-4.7-.6-2.1-.2-4.6,1-7.2,0,0,0,0,0,0,0,0,0-.1,0-.2,1.6-3.5,4.2-7.1,6.9-10.5ZM311.1,130c-.3-.8-.6-1.6-.9-2.4-1.1-3-2.2-6-3.6-8.9l-.9-1.9c-3.7-7.7-4.5-9.2-11-13.6-.6-.4-1.2-.8-1.7-1.1,1.3-5.8,5.1-12.7,9.4-17.1,4.1-4.3,8.3-6.3,12.4-6.2,4.8.2,8.3,3.4,10.4,6.1,5.7,7.1,6.7,21.3,3.8,28.3-.4,1-.8,2.1-1.2,3.1-2.2,6.1-4.5,12.4-16.6,13.8ZM143.3,136.1c-5.1.4-9.4-.8-12.9-3.6-7.2-5.9-15.4-16.5-13-33,2.9-19.6,10.8-29.3,25.9-31.2,11.4-1.5,20.9,8.9,26,16.1-.4.3-.8.6-1.2.9-.3.2-.5.4-.8.6-.3.2-.6.5-.9.7,0,0,0,0-.1,0h0c-.5.4-.9.8-1.4,1.2-.5.4-.9.8-1.4,1.2-4.9-7.2-11.5-10.8-18.7-10.4-15.4,1-16.3,13-17.2,24.5l-.2,2.1c-.4,5.6,1.7,11.6,5.7,15.9,3.2,3.5,7.3,5.6,11.5,6.1-.1.6-.2,1.3-.4,1.9,0,.4-.1.8-.2,1.3-.1.6-.2,1.1-.3,1.6-.1.6-.2,1.3-.3,1.9,0,0,0,.2,0,.3,0,.6-.1,1.2-.2,1.8ZM146.1,120.7c0,0,0,.2,0,.3,0,.1,0,.2,0,.4-.1.5-.2,1-.4,1.5-.1.5-.2,1.1-.4,1.6-3.6-.3-7.1-2.1-9.9-5.2-3.5-3.7-5.3-8.8-4.9-13.6l.2-2.1c.9-11.7,1.6-20.9,14.4-21.8,7.9-.5,13.1,4.6,16.3,9.5-.2.2-.5.5-.7.7-.4.4-.8.8-1.2,1.3-.4.5-.9,1-1.3,1.5-.2.3-.5.6-.8.9-.8,1-1.5,2.1-2.2,3.2-.2.4-.5.8-.7,1.1-.3.5-.6,1-.9,1.5,0,0,0,0,0,0-.3.5-.6,1-.8,1.6-.3.5-.5,1.1-.8,1.6-.3.6-.5,1.1-.8,1.7,0,0,0,0,0,0,0,.2-.2.4-.3.7-.1.2-.2.4-.3.7,0,0,0,.2-.1.2-.1.3-.3.6-.4.9,0,0,0,0,0,0-.1.3-.2.6-.3.8,0,0,0,0,0,.1-.2.4-.3.8-.5,1.2,0,.2-.2.5-.3.7-.2.6-.4,1.2-.6,1.8-.2.7-.5,1.4-.7,2.1-.2.7-.4,1.3-.6,2,0,0,0,.2,0,.3-.2.7-.4,1.4-.6,2.1,0,.2-.1.4-.2.6ZM230.8,234.2c-.9,0-1.7,0-2.6.1-.7,0-1.5,0-2.2,0-.3,0-.6,0-1,0h-.2c-.1,0-.2,0-.3,0-.5,0-1.1,0-1.6,0,0,0-.1,0-.2,0,0,0,0,0,0,0h-.1c-1.2,0-2.4,0-3.6,0-4.9,0-9.9-.1-14.8-.5-.2,0-.5,0-.7,0-.2,0-.4,0-.5,0-.2,0-.5,0-.7,0-.6,0-1.1,0-1.6-.1-.8,0-1.6-.1-2.4-.2-.6,0-1.1-.1-1.6-.2-.6,0-1.1-.1-1.7-.2-.4,0-.9-.1-1.3-.2,0,0,0,0-.1,0-1-.1-1.9-.3-2.9-.4-5.7-6.8-15.2-19-16.9-27.6-2.3-11.3-1.6-21.8,2.1-32,2.9-8.1,15.7-13.9,26.4-14.9,7.4-.7,30-2.7,40.4,6.1,9.4,8.1,10,22.7,8.8,33.5-1.1,10.1-6.5,25.6-18.1,36.4-.9,0-1.7.1-2.6.1ZM262.2,230.4c-.5.1-1.1.2-1.6.3-1.4.3-2.7.5-4.1.8-.4,0-.8.1-1.3.2-.1,0-.2,0-.3,0-.5,0-1.1.2-1.6.2-.5,0-1.1.2-1.6.2-1.1.2-2.2.3-3.3.4-.6,0-1.1.1-1.7.2-1.1.1-2.3.3-3.4.4-.9,0-1.7.2-2.6.2s-1.8.1-2.6.2c10.5-11.2,15.4-25.9,16.5-35.8,1.8-16.5-1.6-29-9.9-36.1-11.3-9.7-34.9-7.6-42.6-6.9-11.5,1-25.5,7.3-28.9,16.8-3.9,10.8-4.6,21.8-2.2,33.6,1.6,8.2,9.3,18.9,15.2,26.1-.4,0-.7-.2-1.1-.3-.4,0-.7-.2-1.1-.3-.7-.2-1.4-.4-2-.6-.3,0-.6-.2-1-.3-.3-.1-.6-.2-.9-.3-.2,0-.4-.1-.6-.2-1.3-.5-2.5-1-3.6-1.5,0,0-.1,0-.2-.1-.2-.1-.5-.2-.7-.4-1.4-.7-2.7-1.5-3.9-2.3-.4-.2-.8-.5-1.1-.8,0,0-.1,0-.2-.1-.4-.3-.8-.6-1.2-.9,0,0,0,0-.1,0-.4-.3-.7-.6-1.1-.9-.4-.3-.8-.6-1.2-.9-.4-.3-.7-.6-1.1-.9-.8-.7-1.7-1.4-2.5-2.2-.8-.7-1.6-1.4-2.4-2.1-11-9.3-18.1-23.6-16.2-32.5,2.3-10.4,3.1-24.8,2.1-36.5-.9-11,3.8-39.5,15.6-52.4.5-.5.9-1,1.4-1.5.4-.4.8-.8,1.2-1.2.1-.1.3-.3.4-.4h0c.4-.4.8-.8,1.2-1.2t0,0c0,0,.1,0,.2-.1.1-.1.2-.2.4-.3.1-.1.2-.2.4-.3.3-.2.5-.5.8-.7,0,0,0,0,0,0,.2-.2.5-.4.8-.6.4-.3.7-.6,1.1-.8.1-.1.3-.2.4-.3.1,0,.2-.2.4-.3,0,0,0,0,.1,0,.2-.2.4-.3.6-.4.3-.2.5-.4.8-.5,0,0,0,0,0,0,.1,0,.3-.2.4-.3,0,0,0,0,.1,0,.6-.4,1.3-.8,1.9-1.2.3-.2.6-.4,1-.6.7-.4,1.4-.8,2.1-1.2,0,0,0,0,.1,0,.4-.2.9-.5,1.3-.7,0,0,.1,0,.2-.1.6-.3,1.1-.6,1.7-.8.5-.2,1-.5,1.6-.7.4-.2.7-.3,1.1-.5.2,0,.4-.2.6-.2.4-.2.8-.3,1.2-.5.5-.2,1-.4,1.5-.6.5-.2,1.1-.4,1.6-.6.5-.2,1-.3,1.5-.5,0,0,.2,0,.3,0,.5-.2,1-.3,1.5-.5l1.1-.3c0,0,.1,0,.2,0,.3,0,.5-.2.8-.2,0,0,0,0,0,0,.7-.2,1.4-.4,2.1-.6.5-.1.9-.2,1.4-.4.3,0,.6-.1.9-.2.3,0,.6-.1.9-.2.4,0,.8-.2,1.2-.3.6-.1,1.2-.2,1.8-.4.3,0,.7-.1,1-.2.4,0,.8-.2,1.2-.2.2,0,.4,0,.7-.1.7-.1,1.5-.2,2.2-.3.4,0,.8-.1,1.1-.2s.8-.1,1.1-.2c0,0,0,0,0,0,.8,0,1.6-.2,2.5-.3.7,0,1.4-.1,2.1-.2.4,0,.9,0,1.3-.1.7,0,1.4,0,2.1-.2.8,0,1.6,0,2.3-.1.4,0,.8,0,1.2,0,0,0,.1,0,.2,0,.4,0,.7,0,1.1,0,0,0,.1,0,.2,0h0c.3,0,.7,0,1,0,.2,0,.4,0,.6,0h0c.1,0,.2,0,.4,0s.3,0,.5,0,0,0,0,0h.1s0,0,.1,0c.9,0,1.8,0,2.7,0s2.4,0,3.6,0c.6,0,1.1,0,1.7,0,.3,0,.6,0,.9,0,0,0,.1,0,.2,0s.1,0,.2,0c.4,0,.8,0,1.2,0,.5,0,.9,0,1.4.1.4,0,.8,0,1.2.1.3,0,.7,0,1,.1h0s0,0,0,0c0,0,.2,0,.3,0,.5,0,1.1.1,1.6.2,0,0,0,0,0,0,.5,0,1,.1,1.5.2.5,0,1.1.2,1.6.3.4,0,.9.2,1.3.2.1,0,.2,0,.3,0,.6.1,1.2.2,1.8.4.6.1,1.2.2,1.8.4h0l1.2.3c.8.2,1.5.4,2.2.6.4,0,.7.2,1.1.3.6.2,1.1.3,1.6.5.5.1,1,.3,1.4.4.3,0,.6.2.9.3.3,0,.6.2.9.3.6.2,1.1.4,1.7.6.6.2,1.1.4,1.7.6.4.2.9.3,1.3.5.4.1.7.3,1.1.4.5.2,1,.4,1.6.6.8.3,1.6.7,2.4,1,0,0,0,0,.1,0,.3.1.6.3,1,.4.4.2.7.3,1,.5.6.2,1.1.5,1.7.8.4.2.8.4,1.2.6,1.4.7,2.8,1.3,4.1,2,.7.4,1.4.7,2.1,1.1.5.3,1,.5,1.5.8.5.3,1,.5,1.4.8-1,2.8-1.4,5.5-.6,8.1,1.3,4.3,3.1,5.2,5.9,6.6.8.4,1.6.8,2.6,1.4,0,0,0,0,0,0,.8.4,1.6.9,2.5,1.6,5.8,3.9,6.3,4.9,10,12.5l.9,1.9c1.3,2.8,2.4,5.8,3.5,8.6.2.6.4,1.1.6,1.7.2.5.3.9.5,1.4,0,.1,0,.2.1.3,0,.1,0,.2.1.3.6,1.6,1.2,3.1,2,4.5,0,.2.2.4.3.6.3.6.6,1.1,1,1.6.2.3.3.5.5.7.4.5.7.9,1.1,1.3.2.2.3.3.5.5.2.2.5.4.7.6,0,.3,0,.7.1,1,0,.3,0,.5,0,.8,0,.3,0,.6,0,.8s0,.6,0,.9c0,.3,0,.6,0,.9,0,.6,0,1.2.1,1.8,0,1.2.1,2.4.2,3.7,0,.5,0,.9,0,1.4,0,.8,0,1.6,0,2.4,0,7.1-.6,14.7-2.6,21.5-5.9,20.8-11.9,37.4-29.3,46.1-.4.2-.9.4-1.3.6-.2.1-.4.2-.7.3-.2.1-.5.2-.7.3-.6.3-1.2.5-1.8.8,0,0-.2,0-.3.1-.1,0-.2,0-.4.1-.2,0-.4.1-.5.2-.4.2-.8.3-1.2.5,0,0-.2,0-.3.1-.2,0-.3.1-.5.2-.4.1-.8.3-1.2.4-.8.3-1.7.5-2.5.8-.2,0-.5.2-.8.2-.3,0-.6.2-1,.3-.5.1-1.1.3-1.6.4-1.6.4-3.3.8-5,1.2-.6.1-1.2.3-1.9.4ZM228.2,250.5c0,0-.2,0-.2,0,0,0,.1,0,.2,0,.1,0,.2,0,.3,0,0,0-.2,0-.2,0ZM232.1,247.4h0s0,0,0,0h0ZM253.2,246s0,0,.1,0c.2.1.4.2.6.3-.2-.1-.4-.3-.7-.4ZM248,243c0,0,.1,0,.2.1.1,0,.2.1.4.2-.2-.1-.4-.2-.6-.3ZM232.1,247.4h0s0,0,0,0h0Z"/>
  <path class="st5" d="M242.5,259.5c-1.8.4-4.9.6-7.3-1-1.8-1.2-3.6-2.8-5.4-4.4-.8-.7-1.7-1.5-2.5-2.2,0-.1,0-.2,0-.3,0-.3,0-.6.1-.9,0,0,0,0,0,0,.2,0,.3,0,.5,0,0,0,.1,0,.2,0s0,0,0,0c0,0,.2,0,.2,0,.1,0,.2,0,.4,0,.1,0,.3,0,.4,0,.2,0,.4,0,.5,0,.1,0,.3,0,.4,0,2.6,0,4,.2,4.7.5,3.1,1.2,6.1,5.7,7.6,8.6Z"/>
  <path class="st5" d="M197.4,249.5c-.5.3-1,.7-1.6,1.1-.2.1-.3.2-.5.3-.4.3-.9.6-1.4.9,0,0-.2.1-.3.2-.2.1-.4.2-.5.3-.4.2-.8.4-1.2.7-.4.2-.8.4-1.2.6-.4.2-.8.4-1.2.6-3.8,1.8-9.3,2-12.4,2,1.6-2.8,5.4-7.7,12.4-9.7,1.8-.5,3.8-.8,6-.8s1.1,0,1.7,0c0,0,.1,0,.2,0,0,.1,0,.2,0,.4,0,0,0,0,0,0,0,.2,0,.5,0,.8,0,.9,0,1.7,0,2.6Z"/>
  <path class="st5" d="M202.3,261.4c-4.9,5-11.1,11.4-14.7,15.5-5.4,6.3-15.4,8.2-17.1,7.5-1.1-1.7-4.1-8.6-4.1-16.7s-.2-15.9-1.7-20.7c0-.3-.2-.7-.2-1.2,0-.2,0-.4.1-.6.1-.4.4-.9.8-1.5.1-.1.2-.3.4-.4.6-.6,1.3-1.2,2.4-1.9.3-.2.6-.3.9-.5,1.1-.6,2.4-1.2,4-1.9.4-.1.7-.3,1.2-.4.4-.1.8-.3,1.3-.4,1.7-.6,3.9-1.1,6.5-1.8.2,0,.5-.1.7-.2.5-.1,1-.2,1.6-.4.3,0,.6-.1.8-.2.6-.1,1.3-.3,1.9-.4.3,0,.7-.1,1-.2h0c.2,0,.3,0,.5,0,.3,0,.6.1,1,.2,0,0,0,0,0,0,.4,0,.8.1,1.2.2,1.7.3,3.5.5,5.5.7.4,0,.9.1,1.3.1,1,.1,2.1.2,3.2.3-.6,1-1.2,2.1-1.8,3.2,0,.2-.2.4-.2.6-.1.3-.3.7-.4,1.1,0,.2-.1.3-.2.5,0,.2-.1.4-.2.7-.4,0-.8,0-1.1,0,0,0-.2,0-.2,0-.4,0-.8,0-1.1,0-2.4,0-4.7.3-6.8.9-11.3,3.3-15.2,13.1-15.4,13.5-.2.4-.1.9.1,1.3s.7.7,1.2.7c.1,0,1.1,0,2.5,0,3.3,0,9.2-.3,13.6-2.3.3-.1.6-.3,1-.5.2-.1.5-.2.7-.3,2-1,3.9-2.2,5.6-3.3,0,0,0,.1,0,.1,0,.4.2.7.3,1,.1.4.2.7.4,1.1.3.9.7,1.7,1.1,2.5.1.3.3.6.5.9,0,0,0,0,0,.1.1.2.2.4.4.6.1.2.3.4.4.6.4.6.8,1.1,1.2,1.6Z"/>
  <path class="st5" d="M224.6,247.6c0,.6,0,1.1,0,1.6h0c0,.2,0,.3,0,.5,0,.2,0,.5,0,.7,0,.1,0,.3,0,.4,0,.1,0,.3,0,.4,0,.3,0,.6-.1.8,0,.3-.1.5-.2.8,0,.3-.1.5-.2.8s-.2.5-.2.7c0,.2-.1.4-.2.6,0,.2-.2.4-.3.6-.1.2-.2.4-.3.6,0,.1-.1.2-.2.3,0,.1-.1.2-.2.3,0,.1-.2.3-.3.4,0,0,0,0,0,0-.1.2-.3.4-.4.6-.1.2-.2.3-.4.5-.2.3-.5.6-.8.9-.1.1-.3.3-.4.4,0,0-.1.1-.2.1-.3.2-.6.5-.9.7-.1.1-.3.2-.4.3-.1,0-.2.2-.3.2,0,0-.1,0-.2.1-.2.1-.4.2-.5.3-.3.2-.5.3-.8.4,0,0-.2,0-.3.1,0,0-.2,0-.3.1-.1,0-.2.1-.4.2-.1,0-.3.1-.4.2-.1,0-.2.1-.4.1t0,0c-.1,0-.3,0-.4.1-.2,0-.4.1-.5.1-.1,0-.2,0-.4,0-.2,0-.4,0-.6.1-.2,0-.4,0-.5,0-.1,0-.2,0-.4,0h0c-.2,0-.4,0-.5,0-.2,0-.4,0-.5,0h-.3c-.1,0-.2,0-.4,0-.2,0-.4,0-.6,0,0,0-.1,0-.2,0,0,0-.2,0-.3,0,0,0-.1,0-.2,0,0,0-.2,0-.3,0-.1,0-.2,0-.4-.1,0,0-.1,0-.2,0,0,0-.1,0-.2,0-.1,0-.2-.1-.4-.2-.1,0-.3-.1-.4-.2-.1,0-.2-.1-.4-.2-.4-.3-.8-.6-1.2-1-.2-.2-.4-.3-.5-.5,0,0,0,0,0,0h0s0,0,0,0c-.1-.1-.2-.2-.4-.4-3.1-3.3-5-8.3-4.8-12.9,0-.3,0-.5,0-.8,0-.3,0-.6.1-.8,0,0,0,0,0,0,0-.2,0-.4.1-.6,0,0,0-.1,0-.2,0-.2.1-.4.2-.6,0-.2.1-.4.1-.5,0-.2.1-.4.2-.5,0,0,0,0,0,0,0,0,0,0,0,0,0-.2.1-.4.2-.5.2-.5.4-.9.6-1.4.1-.2.2-.4.3-.6.1-.2.2-.4.3-.6,0-.2.2-.3.3-.5.3-.4.5-.8.8-1.2.2-.3.4-.6.6-.9,4.9.3,9.8.4,14.6.4s2.1,0,3.1,0c0,0,0,0,0,.1.3.6.6,1.2.8,1.9.4,1,.7,2,.9,3,0,.2.1.5.2.8,0,.1,0,.3.1.4,0,.2,0,.4.1.6,0,.3.1.6.1.9,0,.4,0,.7.1,1,0,.2,0,.5,0,.7,0,.1,0,.3,0,.4,0,0,0,.2,0,.3Z"/>
  <path class="st5" d="M261,265.9c-1.8,6.5-10.5,17.7-13,20.8-2-.8-7.1-3.5-13.7-10.9-.2-.2-.3-.4-.5-.5-.2-.2-.3-.4-.5-.5-.9-1-1.8-2.1-2.7-3.2-.3-.4-.6-.7-.8-1.1-.4-.5-.8-1-1.2-1.5-.5-.6-1-1.3-1.4-1.9,0-.1-.2-.2-.3-.4-.4-.5-.7-1-1.1-1.5-.4-.6-.8-1.2-1.2-1.8-.6-.9-1.1-1.7-1.7-2.5.2-.2.3-.4.5-.5,0,0,0,0,.1-.1.2-.2.3-.4.4-.5,0,0,0,0,0,0,.1-.2.3-.4.4-.6,0,0,0,0,0-.1,0-.1.1-.2.2-.3,0,0,0,0,0,0,.1-.1.2-.3.3-.5s0,0,0,0c0-.1.2-.3.3-.5.1-.2.2-.4.4-.7,0,0,0-.1,0-.2.1-.2.2-.5.3-.7.1-.3.2-.5.3-.8,0,0,0,0,0,0,.4.4.9.8,1.4,1.2,1.9,1.7,3.8,3.4,5.8,4.7,2.1,1.3,4.3,1.7,6.4,1.7s5.1-.8,5.2-.9c.4-.1.7-.4.9-.8s.2-.8,0-1.2c-.2-.4-4.3-9.6-10.1-11.8-.6-.2-1.4-.4-2.4-.5-.2,0-.4,0-.6,0,0,0-.1,0-.2,0-.2,0-.5,0-.7,0,0,0,0,0,0,0h0c-.8,0-1.7,0-2.7,0-.3,0-.6,0-.9,0-.3,0-.6,0-.9,0,0-.2,0-.3,0-.5,0-.3,0-.6,0-.9,0-.3,0-.7-.1-1,0-.3,0-.7-.1-1,0-.3-.1-.6-.2-.9h0c0-.3-.1-.6-.2-.9,0-.4-.2-.7-.3-1.1,0,0,0,0,0-.1-.1-.4-.2-.7-.3-1.1,0-.2-.1-.4-.2-.6,0,0,0,0,0,0,0,0,0-.1,0-.1-.1-.3-.2-.6-.3-.9-.1-.4-.3-.7-.4-1,1.2,0,2.3,0,3.5-.1.4,0,.8,0,1.2,0,.4,0,.8,0,1.2,0,.9,0,1.9-.1,2.8-.1.1,0,.2,0,.3,0t0,0c.8,0,1.5,0,2.3-.1.4.2.8.4,1.2.6,0,0,.1,0,.1,0,0,0,.1,0,.2,0,0,0,.1,0,.2,0,.5.3,1,.5,1.5.8.1,0,.2.1.4.2.4.2.8.4,1.2.6.1,0,.2.1.3.2.5.3,1.1.6,1.6.9.5.3,1,.6,1.5.9,1,.6,1.9,1.1,2.9,1.6.2.1.4.2.6.4.1,0,.2.1.4.2.3.2.6.4,1,.6,0,0,0,0,0,0,0,0,.1,0,.2.1.5.3,1,.6,1.5.9,0,0,0,0,.1,0,.2.1.4.2.6.4,0,0,.2.1.3.2,0,0,.1,0,.2.1,0,0,0,0,.1,0,0,0,0,0,0,0,0,0,.1,0,.2.1.2.1.4.2.6.4.2.1.4.2.6.3.3.2.6.3.8.5.2.1.4.2.6.4.4.3.9.5,1.3.8,0,0,0,0,0,0,0,0,0,0,0,0,0,0,0,0,0,0,0,0,0,0,.1,0h0s0,0,0,0c.8.5,1.5.9,2.1,1.2l.8.5c1.7,1,3.4,8.4,1.3,16Z"/>
  <path class="st1" d="M242.7,164.1c-10.4-8.9-33-6.8-40.4-6.1-10.7,1-23.5,6.8-26.4,14.9-3.7,10.3-4.4,20.7-2.1,32,1.7,8.7,11.2,20.9,16.9,27.6,3.7.6,7.9,1.1,12.9,1.4.2,0,.4,0,.7,0,6.1.4,12.4.5,18.5.4,0,0,.2,0,.3,0,3.5,0,7-.2,10.4-.4,11.6-10.8,16.9-26.3,18.1-36.4,1.2-10.8.6-25.4-8.8-33.5ZM225.7,208.2c-.2.3-5.8,7.6-17.5,7.6s-1.1,0-1.6,0c-2.7-.1-5.3-.7-7.7-1.5,0,0,0,0,0,0-8.5-2.9-14.3-8.9-14.6-9.2-.6-.6-.6-1.6,0-2.1.6-.6,1.6-.5,2.1,0,0,0,4.4,4.6,11,7.5-.6-4.6-.5-9.5-.2-13.5-5.8-.9-9.4-4.6-9.5-9.9-.2-5.2,6.6-19.3,11.1-19.9,0,0,.2,0,.3,0,.5,0,2.2,0,6.4,4.8,3.1,3.5,8.7,11.1,8.2,15.2-.6,5-7.1,9.7-13.5,10-.4,4.3-.5,9.8.4,14.5,1.9.6,4,1,6.1,1.1,11.2.6,16.5-6.3,16.6-6.4.5-.7,1.4-.8,2.1-.3.7.5.8,1.4.3,2.1Z"/>
  <path class="st1" d="M328.9,113.1c-.4,1-.8,2.1-1.2,3.1-2.2,6.1-4.5,12.4-16.6,13.8-.3-.8-.6-1.6-.9-2.4-1.1-3-2.2-6-3.6-8.9l-.9-1.9c-3.7-7.7-4.5-9.2-11-13.6-.6-.4-1.2-.8-1.7-1.1,1.3-5.8,5.1-12.7,9.4-17.1,4.1-4.3,8.3-6.3,12.4-6.2,4.8.2,8.3,3.4,10.4,6.1,5.7,7.1,6.7,21.3,3.8,28.3Z"/>
  <path class="st1" d="M161.2,91.2c-.7.7-1.3,1.3-2,2-6.9,7.5-11.5,19.7-14,31.2-3.6-.3-7.1-2.1-9.9-5.2-3.5-3.7-5.3-8.8-4.9-13.6l.2-2.1c.9-11.7,1.6-20.9,14.4-21.8,7.9-.5,13.1,4.6,16.3,9.5Z"/>
  <path class="st2" d="M344.3,109.7c-1.5,22.3-16,30-23.5,31-.3,0-.6,0-.9,0-3.6,0-5.7-3.3-7.6-7.9,13.2-1.8,16-9.5,18.3-15.7.4-1.1.7-2,1.1-3,3.3-7.9,2.2-23.3-4.2-31.3-3.6-4.5-7.9-7-12.6-7.2-5-.2-9.9,2.2-14.7,7.1-4.5,4.7-8.4,11.6-10,17.7-.4-.2-.7-.4-1-.5-2.6-1.3-3.4-1.7-4.3-4.7-.6-2.1-.2-4.6,1-7.2,0,0,0,0,0,0,0,0,0-.2.1-.3,1.6-3.5,4.2-7.1,6.9-10.5,6.3-8.2,12.6-12.2,19.2-12.2s1.5,0,2.2.2c17.1,2.2,31.4,23.4,30,44.5Z"/>
  <path class="st2" d="M169.3,84.4c-2.1,1.4-4,3-5.9,4.7-4.9-7.2-11.5-10.8-18.7-10.4-15.4,1-16.3,13-17.2,24.5l-.2,2.1c-.4,5.6,1.7,11.6,5.7,15.9,3.2,3.5,7.3,5.6,11.5,6.1-.6,3.1-1,6-1.4,8.8-5.1.4-9.4-.8-12.9-3.6-7.2-5.9-15.4-16.5-13-33,2.9-19.6,10.8-29.3,25.9-31.2,11.4-1.5,20.9,8.9,26,16.1Z"/>
  <path class="st2" d="M366,400.3c-2.4-12.1-13.2-50.7-18.5-66.8-4.3-13.1-14.7-32.9-22.3-47.4-1.8-3.4-3.4-6.5-4.8-9.1-6.8-13.2-11.2-21.1-23.3-28.9-7.1-4.6-22.1-10.6-33.6-15-2.7.6-5.5,1.1-8.3,1.6-.5,0-1,.2-1.5.2-.6,0-1.2.2-1.8.3-.6.1-1.3.2-1.9.3-2.6.3-5.2.6-7.8.9,1.9,1,3.8,2.1,5.6,3.1.9.5,1.8,1,2.7,1.5.9.5,1.7,1,2.5,1.5.2.1.4.2.6.4,3,1.8,5.4,3.2,6.8,4l.8.5c3.6,2.1,4.8,11.4,2.7,19.4-2.2,8.2-13.8,22.1-14.3,22.7-.3.4-.7.5-1.1.5s-.2,0-.4,0c-.3,0-6.9-1.9-16.1-12.1-1.3-1.4-2.6-2.9-3.7-4.4-.4-.5-.8-1-1.2-1.5-.2-.3-.5-.6-.7-1-.4-.5-.8-1-1.2-1.5-.6-.8-1.2-1.6-1.7-2.4-.2-.3-.5-.7-.7-1-.5-.7-.9-1.3-1.3-1.9-.2-.3-.4-.6-.6-.9,0-.1-.1-.2-.2-.3,0,0,0,0-.1.1-.2.1-.4.3-.6.4-.2.1-.4.3-.7.4-.2.1-.4.2-.6.4-1.2.7-2.5,1.2-3.8,1.5-.1,0-.3,0-.4.1-.1,0-.3,0-.4,0-.2,0-.4,0-.6.1-.2,0-.5,0-.8,0-.4,0-.9,0-1.4,0h-.4c-.2,0-.3,0-.5,0-.2,0-.3,0-.5,0-.2,0-.4,0-.6-.1-.3,0-.6-.2-.9-.3-.2,0-.4-.1-.5-.2-.1,0-.2-.1-.4-.2-.4-.2-.8-.4-1.2-.6-.1,0-.3-.2-.4-.3-.5-.3-.9-.6-1.4-1-.9.9-1.9,1.9-2.9,2.9-.1.1-.2.2-.3.4-.5.6-1.1,1.1-1.6,1.7-.7.7-1.3,1.4-2,2-1.2,1.2-2.4,2.5-3.5,3.7-1.6,1.7-3.1,3.3-4.2,4.7-4.9,5.7-13.5,8.6-18.2,8.6s-.3,0-.4,0c-1.5,0-2.5-.5-3.1-1.2-1.7-2.3-4.8-10.1-4.8-18.5s0-1.2,0-1.9c0-1,0-1.9,0-2.9,0-.1,0-.2,0-.3,0-.5,0-1.1,0-1.6,0-1,0-2-.1-3,0-.7,0-1.4-.1-2,0-.2,0-.4,0-.7,0-.4,0-.7-.1-1.1,0-.6-.1-1.1-.2-1.6,0-.2,0-.3,0-.5,0-.3,0-.6-.1-1,0-.5-.2-1-.2-1.5,0-.5-.2-.9-.3-1.2-6.9,4.4-12.4,9.6-16.5,15.5-7.6,11-11.5,24.5-14.9,36.3-1.5,5.4-3,10.5-4.6,14.7-2.1,5.2-3.1,9-3.9,12-1.2,4.5-2,7.4-5.1,10.4-3.1,3-7,10.6-5.6,19.6,4.3,3,8.2,6.7,11.1,10.9,1.6,2.2,3.1,5,4.6,8.1,6.1-4,12.4-7,18.6-9,3.6-1.1,7.1-1.6,10.4-1.7.6-15.2-1.6-35.2-2.8-46.1-.2-1.7-.4-3.3-.5-4.5-1.2-11.8,3.7-32,3.9-32.8.2-.8,1-1.3,1.8-1.1.8.2,1.3,1,1.1,1.8,0,.2-5,20.5-3.8,31.8.1,1.2.3,2.8.5,4.5,1.2,11,3.4,31.1,2.9,46.5,13.4.8,23.4,8.2,23.9,8.6.7.5.8,1.4.3,2.1-.5.7-1.4.8-2.1.3-.2-.1-16.6-12.2-34.6-6.5-6.1,1.9-12.3,4.9-18.3,8.9,6,13.9,10.6,31.9,10.8,32.9.2.8-.3,1.6-1.1,1.8-.8.2-1.6-.3-1.8-1.1,0-.2-4.9-19.5-11.1-33.4,0,0,0-.1,0-.2,0,0,0,0,0,0-1.6-3.5-3.2-6.7-4.9-9.1-8.1-11.5-24.5-19.6-36.5-18-11.8,1.6-24.9,10.9-25.7,25.2-.5,9.5,1.4,19,3.2,27.4,1.1,5.2,2.1,10,2.5,14.5.3,3.9.5,8.3.8,12.5.4,8.3.8,16.8,2.1,21.3,1.7,6,8.6,10.5,20.6,13.6,11.4,3,27.3,4.8,37.4,1,10.9-4,37.9-16.3,48.6-22.5,4.2-2.5,12-5.9,23-10.3-.7-11.6-1.7-25.1-3.1-32.9-2.4-13.2-1.6-22.5,2.9-31.2,5.1-9.8,21.1-19.1,34.1-16.3,13.9,3,24.5,9.2,32,18.7,10.8-5.1,17.5-2.4,17.8-2.3.8.3,1.1,1.2.8,2-.3.8-1.2,1.1-2,.8-.1,0-5.7-2.1-14.8,2,2.6,3.7,4.7,7.9,6.5,12.5,8.8,23.1,6.7,36.9,6.6,37.5-.1.8-.9,1.4-1.7,1.2-.8-.1-1.4-.9-1.2-1.7,0,0,.2-1.5.2-4.2,0-5.7-.9-16.7-6.6-31.7-1.9-4.9-4.2-9.2-7-13-.1-.1-.2-.2-.3-.4,0,0,0,0,0,0-7.1-9.4-17.3-15.4-30.8-18.4-11.6-2.5-26.4,6-30.9,14.7-4.1,8-4.9,16.8-2.6,29.3,0,.3,0,.5.1.8,0,.3,0,.5.1.8.1.8.3,1.7.4,2.7,0,.5.1,1.1.2,1.6,0,.7.2,1.4.3,2.1,0,0,0,.2,0,.2,0,.6.1,1.3.2,1.9.1,1,.2,2,.3,3,0,.5,0,1,.1,1.5,0,.5,0,1,.1,1.6.1,1.3.2,2.6.3,4,0,.4,0,.7,0,1.1,0,.1,0,.3,0,.5,0,.3,0,.7,0,1,0,.8.1,1.6.2,2.4,0,.8.1,1.5.1,2.3s.1,1.5.1,2.3c0,0,0,.1,0,.1,0,1.5.2,2.9.2,4.3,0,0,0,.2,0,.3.4,6.5.6,12.4.8,16.3.5,11.8,5.1,19.3,14.3,22.9,9.2,3.6,34.4,6.9,49.6,0,10.1-4.5,15.8-11,22.4-18.6,3.5-4,7-8,11.7-12.4,5-4.7,9.7-11.3,14-19.7-.6-.6-1.2-1.3-1.8-2-9.7-12-9.7-25.9-8.3-39.1l.2-1.9c1.4-13.2,2.8-25.7-3.4-41.4l-.6-1.5c-6.4-16.2-13.1-33.1-13.4-43.3,0-.8.6-1.5,1.5-1.5h0c.8,0,1.5.6,1.5,1.5.2,9.7,6.8,26.2,13.1,42.2l.6,1.5c6.5,16.4,5.1,29.2,3.6,42.8l-.2,1.9c-1.4,12.5-1.4,25.7,7.7,36.9.7.9,1.5,1.7,2.3,2.5,0,0,.1.1.2.2,8.6,8.2,22.9,11.2,36.9,7.5,14.1-3.7,16.5-18.5,14.2-29.9ZM114.4,450c-1.1,5.7-7.1,9.1-16,9.1s-14.4-2.1-19.3-5.4c-8.8-5.9-9-12.9-9.2-20.3,0-1.6,0-3.3-.2-5.1-.4-4.9-1.5-11.6-2.7-18.7-1.2-7-2.4-14.3-3-20.5-1.4-13.7,9.1-21.8,20-23.7,1.7-.3,3.3-.5,4.9-.5,17.8,0,23.7,18.8,25.6,30,2.5,14.7,2.1,44,0,55ZM256.8,445.3c-3.5,15.1-16.7,20.5-28,20.5h0c-3.8,0-7.6-.6-11-1.7-11.5-3.8-11.8-16.6-12-27.9,0-2.7-.1-5.3-.3-7.7v-.4c-1-12.7-2.2-28.4-3.5-38-1.4-10.9,12-19.9,19.9-21.9,1.5-.4,3-.6,4.6-.6,11.6,0,21.2,10.4,26.4,20.1,6.3,11.7,8.1,39.2,3.9,57.5Z"/>
  <path class="st3" d="M253,387.8c-5.2-9.7-14.8-20.1-26.4-20.1s-3.1.2-4.6.6c-7.9,2-21.3,11-19.9,21.9,1.2,9.6,2.5,25.4,3.5,38v.4c.2,2.4.3,5,.3,7.7.2,11.3.5,24.1,12,27.9,3.4,1.1,7.2,1.7,11,1.7h0c11.2,0,24.5-5.4,28-20.5,4.2-18.4,2.4-45.8-3.9-57.5ZM253.9,444.7c-3.9,16.9-20.2,18.2-25.1,18.2h0c-3.4,0-6.9-.5-10-1.5-9.5-3.1-9.7-14.3-9.9-25.1,0-2.6-.1-5.4-.3-7.9v-.4c-1-12.7-2.3-28.5-3.5-38.2-1.2-9,10.9-16.9,17.6-18.6,1.3-.3,2.6-.5,3.8-.5,10.2,0,19.2,9.9,23.7,18.5,6,11.2,7.7,37.6,3.6,55.5Z"/>
  <path class="st1" d="M253.9,444.7c-3.9,16.9-20.2,18.2-25.1,18.2h0c-3.4,0-6.9-.5-10-1.5-9.5-3.1-9.7-14.3-9.9-25.1,0-2.6-.1-5.4-.3-7.9v-.4c-1-12.7-2.3-28.5-3.5-38.2-1.2-9,10.9-16.9,17.6-18.6,1.3-.3,2.6-.5,3.8-.5,10.2,0,19.2,9.9,23.7,18.5,6,11.2,7.7,37.6,3.6,55.5Z"/>
  <path class="st3" d="M114.4,395c-1.9-11.2-7.8-30-25.6-30s-3.2.2-4.9.5c-10.9,2-21.3,10-20,23.7.6,6.2,1.9,13.5,3,20.5,1.2,7.1,2.3,13.8,2.7,18.7.1,1.7.2,3.4.2,5.1.2,7.4.4,14.4,9.2,20.3,4.9,3.3,12.3,5.4,19.3,5.4s14.9-3.4,16-9.1c2.1-11.1,2.5-40.3,0-55ZM111.4,449.5c-.6,3.1-3.2,4.7-5.9,5.6-2.8.9-5.7,1-7.1,1-6.3,0-13.2-1.9-17.6-4.9-7.5-5.1-7.7-10.5-7.9-17.9,0-1.7,0-3.4-.2-5.2-.4-5-1.5-11.8-2.7-18.9-1.2-7-2.4-14.2-3-20.3-1.2-11.8,7.9-18.8,17.5-20.5,1.5-.3,3-.4,4.4-.4,15.6,0,20.9,17.3,22.6,27.5,2.4,14.2,2,43.3,0,54Z"/>
  <path class="st1" d="M111.4,449.5c-.6,3.1-3.2,4.7-5.9,5.6-2.8.9-5.7,1-7.1,1-6.3,0-13.2-1.9-17.6-4.9-7.5-5.1-7.7-10.5-7.9-17.9,0-1.7,0-3.4-.2-5.2-.4-5-1.5-11.8-2.7-18.9-1.2-7-2.4-14.2-3-20.3-1.2-11.8,7.9-18.8,17.5-20.5,1.5-.3,3-.4,4.4-.4,15.6,0,20.9,17.3,22.6,27.5,2.4,14.2,2,43.3,0,54Z"/>
  <path class="st2" d="M314.9,142.1c-.3-.2-.5-.4-.7-.6-.2-.2-.3-.3-.5-.5-.4-.4-.8-.9-1.1-1.3-.2-.2-.4-.5-.5-.7-.3-.5-.7-1-1-1.6-.1-.2-.2-.4-.3-.6-.7-1.4-1.4-2.9-2-4.5,0,0,0-.2-.1-.3,0,0,0-.2-.1-.3-.2-.5-.4-.9-.5-1.4-.2-.6-.4-1.1-.6-1.7-1-2.9-2.1-5.9-3.5-8.7l-.9-1.9c-3.7-7.6-4.1-8.5-10-12.5-.9-.6-1.8-1.1-2.5-1.6,0,0,0,0,0,0-1-.6-1.9-1-2.6-1.4-2.8-1.4-4.6-2.3-5.9-6.6-.8-2.6-.4-5.3.6-8.1-12.6-7.1-31.4-15.3-51.3-15.7-25.1-.5-44.6,4-59.1,13.7,0,0,0,0,0,0,0,0-.1,0-.2.1-2.8,1.9-5.4,4-7.8,6.3,0,0,0,0,0,0,0,0,0,0-.1.2h0c-.9.9-1.8,1.8-2.6,2.7-11.9,12.8-16.5,41.3-15.6,52.4,1,11.8.2,26.1-2.1,36.5-1.9,8.9,5.2,23.2,16.2,32.5.9.7,1.7,1.4,2.4,2.1,6.5,5.6,11.7,10.1,23.6,12.8-5.9-7.2-13.6-18-15.2-26.1-2.4-11.8-1.6-22.9,2.2-33.6,3.4-9.5,17.5-15.8,28.9-16.8,7.8-.7,31.3-2.9,42.6,6.9,8.2,7.1,11.6,19.6,9.9,36.1-1.1,9.8-6,24.6-16.5,35.8,18.7-1.5,35.6-5.1,45.8-10.2,17.4-8.7,23.3-25.3,29.3-46.1,3.3-11.5,2.8-25.4,1.9-35.2ZM182.6,153.3c-5.8,0-10.5-6.8-10.5-15.2s4.7-15.2,10.5-15.2,10.5,6.8,10.5,15.2-4.7,15.2-10.5,15.2ZM243.6,152.8c-5.8,0-10.5-6.8-10.5-15.2s4.7-15.2,10.5-15.2,10.5,6.8,10.5,15.2-4.7,15.2-10.5,15.2Z"/>
  <path d="M243.6,122.5c-5.8,0-10.5,6.8-10.5,15.2s4.7,15.2,10.5,15.2,10.5-6.8,10.5-15.2-4.7-15.2-10.5-15.2ZM240.7,136.7c-1.6,0-2.9-1.9-2.9-4.2s1.3-4.2,2.9-4.2,2.9,1.9,2.9,4.2-1.3,4.2-2.9,4.2Z"/>
  <path d="M182.6,123c-5.8,0-10.5,6.8-10.5,15.2s4.7,15.2,10.5,15.2,10.5-6.8,10.5-15.2-4.7-15.2-10.5-15.2ZM179.6,137.2c-1.6,0-2.9-1.9-2.9-4.2s1.3-4.2,2.9-4.2,2.9,1.9,2.9,4.2-1.3,4.2-2.9,4.2Z"/>
  <path d="M213.7,187.2c-.6,5-7.1,9.7-13.5,10-.2,0-.4,0-.5,0s-.5,0-.7,0c-.6,0-1.2-.1-1.7-.2-5.8-.9-9.4-4.6-9.5-9.9-.2-5.2,6.6-19.3,11.1-19.9,0,0,.2,0,.3,0,.5,0,2.2,0,6.4,4.8,3.1,3.5,8.7,11.1,8.2,15.2Z"/>
  <path class="st3" d="M225.7,208.2c-.2.3-5.8,7.6-17.5,7.6s-1.1,0-1.6,0c-2.7-.1-5.3-.7-7.7-1.5,0,0,0,0,0,0-8.5-2.9-14.3-8.9-14.6-9.2-.6-.6-.6-1.6,0-2.1.6-.6,1.6-.5,2.1,0,0,0,4.4,4.6,11,7.5-.6-4.6-.5-9.5-.2-13.5.6,0,1.1.1,1.7.2.2,0,.5,0,.7,0s.4,0,.5,0c-.4,4.3-.5,9.8.4,14.5,1.9.6,4,1,6.1,1.1,11.2.6,16.5-6.3,16.6-6.4.5-.7,1.4-.8,2.1-.3.7.5.8,1.4.3,2.1Z"/>
  <path class="st0" d="M250.5,241c-.9-.5-1.8-1-2.7-1.5.9.5,1.8,1,2.7,1.5Z"/>
  <path class="st0" d="M256.8,248.2s0,0,0,0c0,0,0,0-.1,0,0,0,0,0,.1,0,0,0,0,0,0,0Z"/>
  <path class="st4" d="M164.6,245.1c0,.2-.1.4-.1.6,0-.2,0-.4.1-.6Z"/>
  <path class="st4" d="M261.2,247.4l-.8-.5c-1.4-.8-3.8-2.3-6.8-4-.2-.1-.4-.2-.6-.4-.8-.5-1.7-1-2.5-1.5-.9-.5-1.8-1-2.7-1.5-1.8-1.1-3.8-2.1-5.6-3.1h0c-1.8.2-3.7.3-5.6.5.4.2.8.4,1.2.6,0,0,.1,0,.1,0,0,0,.1,0,.2,0,0,0,.1,0,.2,0,.2,0,.4.2.6.3,0,0,.1,0,.2.1.2.1.5.3.7.4.1,0,.2.1.4.2.4.2.8.4,1.2.6.1,0,.2.1.3.2.5.3,1.1.6,1.6.9.5.3,1,.6,1.5.9,1,.6,1.9,1.1,2.9,1.6.1,0,.3.1.4.2.2.1.4.2.6.3.3.2.6.4,1,.6,0,0,0,0,0,0,0,0,.1,0,.2.1.5.3,1,.6,1.5.9,0,0,0,0,.1,0,.2,0,.3.2.5.3,0,0,0,0,.1,0,0,0,.2.1.3.2,0,0,.1,0,.2.1,0,0,0,0,.1,0,0,0,0,0,0,0,0,0,.1,0,.2.1.2,0,.3.2.5.3.2.1.4.3.7.4.3.2.6.3.8.5.2.1.4.2.6.4.4.3.9.5,1.3.8,0,0,0,0,0,0,0,0,0,0,0,0,0,0,0,0,0,0,0,0,0,0,.1,0,0,0,0,0,0,0,.8.5,1.5.9,2.1,1.2l.8.5c1.7,1,3.4,8.4,1.3,16-1.8,6.5-10.5,17.7-13,20.8-2-.8-7.1-3.5-13.7-10.9-.2-.2-.3-.4-.5-.5-.2-.2-.3-.4-.5-.5-.9-1-1.8-2.1-2.7-3.2-.3-.4-.6-.7-.8-1.1-.4-.5-.8-1-1.2-1.5-.5-.6-1-1.3-1.4-1.9,0-.1-.2-.2-.3-.4-.4-.5-.7-1-1.1-1.5-.4-.6-.9-1.2-1.2-1.8-.6-.9-1.1-1.7-1.7-2.5.2-.2.3-.4.5-.5,0,0,0,0,.1-.1.2-.2.3-.4.4-.5,0,0,0,0,0,0,.1-.2.3-.4.4-.6,0,0,0,0,0-.1,0-.1.1-.2.2-.3,0,0,0,0,0,0,.1-.1.2-.3.3-.5s0,0,0,0c0-.1.2-.3.3-.5.1-.2.2-.4.4-.7,0,0,0-.1,0-.2.1-.2.2-.5.3-.7.1-.3.2-.5.3-.8,0,0,0,0,0,0,.4.4.9.8,1.4,1.2,1.9,1.7,3.8,3.4,5.8,4.7,2.1,1.3,4.3,1.7,6.4,1.7s5.1-.8,5.2-.9c.4-.1.7-.4.9-.8s.2-.8,0-1.2c-.2-.4-4.3-9.6-10.1-11.8-.6-.2-1.4-.4-2.4-.5-.2,0-.4,0-.6,0,0,0-.1,0-.2,0-.2,0-.5,0-.7,0,0,0,0,0,0,0,0,0,0,0,0,0h0c-.8,0-1.7,0-2.7,0-.3,0-.6,0-.9,0-.3,0-.6,0-.9,0,0-.2,0-.3,0-.5,0-.3,0-.6,0-.9,0-.3,0-.7-.1-1,0-.3,0-.7-.1-1,0-.3-.1-.6-.2-.9h0c0-.3-.1-.6-.2-.9,0-.4-.2-.7-.3-1.1,0,0,0,0,0-.1-.1-.4-.2-.7-.3-1.1,0-.2-.1-.4-.2-.6,0,0,0,0,0,0,0,0,0-.1,0-.1-.1-.3-.2-.6-.3-.9-.1-.4-.3-.7-.4-1h0c-1.1,0-2.2,0-3.2,0,0,0,0,0,0,.1.3.6.6,1.2.8,1.9.4,1,.7,2,.9,3,0,.2.1.5.2.8,0,.1,0,.3.1.4,0,.2,0,.4.1.6,0,.3.1.6.1.9,0,.4,0,.7.1,1,0,.2,0,.5,0,.7,0,.1,0,.3,0,.4,0,0,0,.2,0,.2,0,.6,0,1.1,0,1.6h0c0,.2,0,.3,0,.5,0,.2,0,.5,0,.7,0,.1,0,.3,0,.4,0,.1,0,.3,0,.4,0,.3,0,.6-.1.8,0,.3-.1.5-.2.8,0,.3-.1.5-.2.8s-.2.5-.2.7c0,.2-.1.4-.2.6,0,.2-.2.4-.3.6-.1.2-.2.4-.3.6,0,.1-.1.2-.2.3,0,.1-.1.2-.2.3,0,.1-.2.3-.3.4,0,0,0,0,0,0-.1.2-.3.4-.4.6-.1.2-.2.3-.4.5-.2.3-.5.6-.8.9-.1.1-.3.3-.4.4,0,0-.1.1-.2.1-.3.2-.6.5-.9.7-.1.1-.3.2-.4.3-.1,0-.2.2-.3.2,0,0-.1,0-.2.1-.2.1-.4.2-.5.3-.3.2-.5.3-.8.4,0,0-.2,0-.3.1,0,0-.2,0-.3.1-.1,0-.2.1-.4.2-.1,0-.3.1-.4.2-.1,0-.2.1-.4.1t0,0c-.1,0-.3,0-.4.1-.2,0-.4.1-.5.1-.1,0-.2,0-.4,0-.2,0-.4,0-.6.1-.2,0-.4,0-.5,0-.1,0-.2,0-.4,0h0c-.2,0-.4,0-.5,0-.2,0-.4,0-.5,0h-.3c-.1,0-.2,0-.4,0-.2,0-.4,0-.6,0,0,0-.1,0-.2,0,0,0-.2,0-.3,0,0,0-.1,0-.2,0,0,0-.2,0-.3,0-.1,0-.2,0-.4-.1,0,0-.1,0-.2,0,0,0-.1,0-.2,0-.1,0-.2-.1-.4-.2-.1,0-.3-.1-.4-.2-.1,0-.2-.1-.4-.2-.4-.3-.8-.6-1.2-1-.2-.2-.4-.3-.5-.5,0,0,0,0,0,0h0s0,0,0,0c-.1-.1-.2-.2-.4-.4-3.1-3.3-5-8.3-4.8-12.9,0-.3,0-.5,0-.8,0-.3,0-.6.1-.8,0,0,0,0,0,0,0-.2,0-.4.1-.6,0,0,0-.1,0-.2,0-.2.1-.4.2-.6,0-.2.1-.4.1-.5,0-.2.1-.4.2-.5,0,0,0,0,0,0,0,0,0,0,0,0,0-.2.1-.4.2-.5.2-.5.4-.9.6-1.4.1-.2.2-.4.3-.6.1-.2.2-.4.3-.6,0-.2.2-.3.3-.5.3-.4.5-.8.8-1.2.2-.3.4-.6.6-.9,0,0-.1,0-.2,0-1.1,0-2.2-.1-3.2-.2-.6,1-1.2,2.1-1.8,3.2,0,.2-.2.4-.2.6-.1.3-.3.7-.4,1.1,0,.2-.1.3-.2.5,0,.2-.1.4-.2.7-.4,0-.8,0-1.1,0,0,0-.2,0-.2,0-.4,0-.8,0-1.1,0-2.4,0-4.7.3-6.8.9-11.3,3.3-15.2,13.1-15.4,13.5-.2.4-.1.9.1,1.3s.7.7,1.2.7c.1,0,1.1,0,2.5,0,3.3,0,9.2-.3,13.6-2.3.3-.1.6-.3,1-.5.2-.1.5-.2.7-.3,2-1,3.9-2.2,5.6-3.3,0,0,0,.1,0,.1,0,.4.2.7.3,1,.1.4.2.7.4,1.1.3.9.7,1.7,1.1,2.5.1.3.3.6.5.9,0,0,0,0,0,.1.1.2.2.4.4.6.1.2.3.4.4.6.4.6.8,1.1,1.2,1.6-4.9,5-11.1,11.4-14.7,15.5-5.4,6.3-15.4,8.2-17.1,7.5-1.1-1.7-4.1-8.6-4.1-16.7s-.2-15.9-1.7-20.7c0-.3-.2-.7-.2-1.2,0-.2,0-.4.1-.6.1-.4.4-.9.8-1.5.1-.1.2-.3.4-.4.6-.6,1.3-1.2,2.4-1.9.3-.2.6-.3.9-.5,1.1-.6,2.4-1.2,4-1.9.4-.1.7-.3,1.2-.4.4-.1.8-.3,1.3-.4,1.7-.6,3.9-1.1,6.5-1.8.2,0,.5-.1.7-.2.5-.1,1-.2,1.6-.4.3,0,.6-.1.8-.2.6-.1,1.3-.3,1.9-.4.3,0,.7-.1,1-.2-2.4-.5-4.6-1-6.6-1.6-.4.1-.8.2-1.2.3-.4,0-.7.2-1.1.3-2.4.6-4.4,1.2-6,1.8-.4.1-.9.3-1.2.4-1.9.7-6.1,2.4-8.5,5.2-.1.1-.2.2-.3.4-.2.3-.4.5-.6.8,0,0-.1.2-.1.3-.4.7-.7,1.5-.8,2.4,0,.8,0,1.7.3,2.6,0,.2.1.4.2.6.1.4.2.8.3,1.2,0,.4.2.9.2,1.5,0,.3,0,.6.1,1,0,.2,0,.3,0,.5,0,.5.1,1.1.2,1.6,0,.4,0,.7.1,1.1,0,.2,0,.4,0,.7,0,.6,0,1.3.1,2,0,.9.1,1.9.1,3,0,.5,0,1,0,1.6,0,.1,0,.2,0,.3,0,.9,0,1.9,0,2.9,0,.6,0,1.2,0,1.9,0,8.5,3.1,16.2,4.8,18.5.6.8,1.6,1.2,3.1,1.2.1,0,.3,0,.4,0,4.6,0,13.2-2.9,18.2-8.6,1.2-1.4,2.6-3,4.2-4.7,1.1-1.2,2.3-2.4,3.5-3.7.7-.7,1.3-1.4,2-2,.6-.6,1.1-1.1,1.6-1.7.1-.1.2-.2.3-.4,1-1,1.9-2,2.9-2.9.4.4.9.7,1.4,1,.1,0,.3.2.4.3.4.2.8.5,1.2.6.1,0,.3.1.4.2.2,0,.4.1.5.2.3.1.6.2.9.3.2,0,.4,0,.6.1.2,0,.3,0,.5,0,.2,0,.3,0,.5,0h.4c.4,0,.9,0,1.4,0,.3,0,.5,0,.8,0,.2,0,.4,0,.6-.1.1,0,.3,0,.4,0,.1,0,.3,0,.4-.1,1.3-.3,2.6-.8,3.8-1.5.2-.1.4-.2.6-.4.2-.1.4-.3.7-.4.2-.1.4-.3.6-.4,0,0,.1,0,.1-.1,0,0,.1.2.2.3.2.3.4.6.6.9.4.6.9,1.3,1.3,1.9.2.3.5.7.7,1,.6.8,1.1,1.6,1.7,2.4.4.5.8,1,1.2,1.5.2.3.5.6.7,1,.4.5.8,1,1.2,1.5,1.2,1.5,2.4,3,3.7,4.4,9.2,10.2,15.8,12,16.1,12.1.1,0,.3,0,.4,0,.4,0,.9-.2,1.1-.5.5-.6,12.1-14.5,14.3-22.7,2.2-8,.9-17.2-2.7-19.3ZM228,250.5c0,0,.2,0,.2,0,0,0,.2,0,.2,0,.1,0,.2,0,.4,0,.1,0,.3,0,.4,0,.2,0,.4,0,.5,0,.1,0,.3,0,.4,0,2.6,0,4,.2,4.7.5,3.1,1.2,6.1,5.7,7.6,8.6-1.8.4-4.9.6-7.3-1-1.8-1.2-3.6-2.8-5.4-4.4-.8-.7-1.7-1.5-2.5-2.2,0-.1,0-.2,0-.3,0-.3,0-.6.1-.9,0,0,0,0,0,0,.2,0,.3,0,.5,0ZM197.4,249.5c-.5.3-1,.7-1.6,1.1-.2.1-.3.2-.5.3-.4.3-.9.6-1.4.9,0,0-.2.1-.3.2-.2.1-.4.2-.5.3-.4.2-.8.4-1.2.7-.4.2-.8.4-1.2.6-.4.2-.8.4-1.2.6-3.8,1.8-9.3,2-12.4,2,1.6-2.8,5.4-7.7,12.4-9.7,1.8-.5,3.8-.8,6-.8s1.1,0,1.7,0c0,0,.1,0,.2,0,0,.1,0,.2,0,.4,0,0,0,0,0,0,0,.2,0,.5,0,.8,0,.9,0,1.7,0,2.6Z"/>
</svg>