<?xml version="1.0" encoding="UTF-8"?>
<svg version="1.1" viewBox="0 0 321.5 395.14" xmlns="http://www.w3.org/2000/svg">
 <g transform="translate(-53.483 -60.703)">
  <path d="m209.15 61.205c-0.5809-0.0106-1.1955 0.0057-1.8148 0.08567-12.684 1.6376-28.265 11.352-31.137 16.494-2.7802 4.9764-3.5725 9.8192-2.4286 15.813l3.3244 10.894-0.34784 9.5853-0.22563 10.404c5.2904 1.4464 11.557 1.834 17.404 0.28372l-7e-3 3.2194s-3.91-0.32575-4.4595 0.96604c-0.54949 1.2918 3.1316 11.258 3.1316 11.258s-6.2522-0.38645-7.5722 0.36715c-1.32 0.7536-3.4704 4.3633-3.4704 4.3633l-10.724 1.5803s-2.9602 3.8636-2.184 4.1411c0.7762 0.27758 2.3378 0.30076 2.3378 0.30076s-8.3301 35.805-8.6359 37.884c-0.30584 2.0793-5.6653 9.0043-5.6653 9.0043l1.2017 3.6832-1.8798 3.085s-1.5428-1.3471-2.8628-0.59346c-1.32 0.75359-17.865 18.668-19.712 19.671-1.8469 1.0029-6.6134 3.7523-7.4178 4.7778s1.4713 4.2204 1.4713 4.2204l-10.334 8.0903-0.62192 4.175s-7.5888 1.6574-8.6595 2.9379c-1.0707 1.2805-3.2598 6.1808-3.2598 6.1808l-10.568-1.292c-1.4943-0.22796-1.1118-7.5464-3.4517-7.8579l-28.909-4.5313c-3.3957-0.73948-3.3902 1.1583-5.5572 3.9679-1.8056 2.3411-2.5483 19.944-1.8932 20.874 2.0872 2.9617 4.9189 3.6034 7.8197 4.0768 8.504 1.3877 22.06 3.6148 24.151 3.3994 2.0906-0.2154 4.9577-8.0327 6.4492-7.6745l8.8247 0.97282-0.0732 3.3742 5.7202 1.4369s2.5871 3.7526 4.5902 4.5381c5.729 2.2464 13.118 2.3408 18.455-0.6 2.04-1.1242 3.0283-4.1541 3.0283-4.1541l7.0181 0.68357c1.6432-3.7292 2.8284-7.4584 1.5554-11.188l-4.4244-0.90952 0.66614-5.9548 6.3671-5.332c4.4136 0.87794 13.386-4.6796 13.386-4.6796s9.0013-9.4336 13.864-13.765c3.2252-2.8728 7.353-4.7748 10.115-8.0951 2.6917-3.2352 5.9613-11.123 5.9613-11.123l2.673 7.9036-1.0128 10.668s-2.3375 0.70858-3.6689 1.9834c-1.3314 1.2748-15.923 23.649-15.945 24.691-0.0226 1.0425 7.3852 8.2558 7.3852 8.2558l-7.9111 40.494s-8.5284 33.455-9.6331 36.3c-1.1046 2.8442-5.5135 13.423-3.2131 15.559 2.3004 2.1358 4.8062 6.1056 4.8062 6.1056s-6.3604 16.552-6.3943 18.116c-0.0339 1.5637 4.0618 5.8394 4.0618 5.8394l-1.0751 13.542-6.2528 8.7102c-20.748 2.4177-37.146 5.5589-46.988 9.0458-4.2865 1.2561-7.9909 2.6075-10.59 4.0526-3.9771 3.0426-1.0022 18.826-1.0022 18.826 2.0995 5.2079 62.467 15.849 147.71 14.956 63.275-0.66281 129-16.064 132.79-20.407 1.4869-1.5565 1.7495-14.719-1.5664-17.132-5.0298-3.6604-19.391-7.8357-40.909-10.389-0.80098-3.0284-3.7637-12.128-10.891-13.802-8.5609-2.0108-25.077-9.671-25.077-9.671l-4.7046-10.792 2.8797-0.1876-3.7569-19.899-1.556-0.31506 1.048-0.75871s-7.5396-37.17-7.4887-39.515c0.0509-2.3456-11.7-37.044-11.7-37.044s6.7595-4.1958 6.5498-6.547c-0.20975-2.3512-2.1464-15.766-3.9029-18.933-1.7565-3.167-13.963-29.247-13.963-29.247l-5.6301-5.5921s0.73369-10.421 0.87059-15.641c0.18682-7.1248-0.10724-19.557-0.0677-21.381 0.0396-1.8243 1.3908-3.5957 1.3908-3.5957s18.817-1.751 27.875 0.3232c1.4563 0.33351 3.0602 2.1084 4.5303 2.9739 8.1358 4.7899 19.519 10.023 22.854 9.8728 3.9149-0.17583 10.193-1.5919 10.193-1.5919l11.353 5.4662s2.1764 8.6652 4.3349 9.6207c2.4703 1.0935 8.1102 5.4552 9.9458 4.9736 0.69217-0.18163 0.84558-0.80482 2.3635-0.88647 2.5076-0.13487 4.6961 1.51 6.5256 0.32907 3.8044-2.4556 4.6808-9.1304 4.4303-14.032-0.16419-3.2136-0.86808-5.893-3.8087-8.8659-3.2927-3.3289-11.747-6.0168-12.534-5.7731-0.78751 0.24367-2.8431-0.0616-2.8431-0.0616l-0.50618-3.3196c-0.20839-1.3667-11.327-4.5013-11.327-4.5013s-7.6561-7.9895-13.361-9.4169c-5.7053-1.4274-14.144-6.4109-21.434-9.0606-8.9938-3.2689-18.082-6.4506-27.449-8.4096-8.2028-1.7155-24.975-2.8859-24.975-2.8859l-0.75261-1.3291-7.825-0.95114s1.8992-9.4234 0.53235-9.5182l-4.4674-0.72579s3.5375-1.1 4.4934-2.5282c1.4557-2.175 0.95046-7.7937 0.95046-7.7937s1.0884-3.9482 1.1611-5.9762c0.13193-3.6805-1.325-10.969-1.325-10.969l-0.15076-4.5789s4.3974-4.1807 3.8739-8.5195c-0.28598-2.3703-1.9817-5.8915-4.2092-7.7296-2.2544-1.8602-6.8417-1.4992-9.1082-5.1987-2.1248-3.4683-6.4323-12.016-15.146-12.175zm13.992 212.38c1.144-0.0205 2.3217 0.32892 3.5699 1.1402 2.8272 1.8865 4.0002 9.1976 6.2044 13.7 2.8395 5.8003 8.8101 15.568 9.0368 17.137 0.2267 1.5694 0.15718 8.2121 0.82774 9.3952 0.56158 0.99077 3.3627 0.6043 3.3627 0.6043s-2.0015 3.0014-1.3772 4.4087c0.61293 1.3816 4.116 1.9022 4.116 1.9022l-0.0454 2.0933 4.8854 26.956s-1.1605 5.454-0.9281 6.7627c0.23236 1.3087 10.617 3.356 10.617 3.356l1.6116 10.725s1.7049 4.4542 2.736 4.998c1.0312 0.54385 1.8952 9.1766 1.85 11.262-0.0397 1.8305-2.0642 12.568-2.6175 15.478-10.754-0.19722-21.939-0.25252-33.506-0.0703-15.923 0.25088-31.148 0.86306-45.393 1.7662l-0.38597-3.8218s0.5938-3.3712 0.89964-5.4505c0.30583-2.0793-2.1223-10.236-2.1223-10.236l1.3684-2.5647-0.52088-12.014 3.4589-3.8322s7.2252-7.916 7.531-9.9953c0.30583-2.0793 3.6492-23.643 3.4394-25.994-0.20975-2.3512 3.6209-8.7824 4.1391-10.694 1.0164-3.7492-0.39402-7.8232 0.25273-11.654 1.8124-10.733 10.051-31.071 10.051-31.071 2.1245-2.4339 4.4215-4.243 6.9384-4.2881z" fill="#217867" stroke="#17280b"/>
  <path d="m229.44 79.344c-14.041 0.18718-31.592 15.284-32.25 18.125-0.46933 2.0274 1.5314 5.8458 2.4688 7.5l-2.0938 15.188v0.0625h-0.0312l0.0312-0.0625s-2.5908-0.71593-3.3438-0.59375c-8.1698 1.3257-12.863 2.7202-17.688 4.7188 3.8388 2.2888 10.088 1.6421 17.844 0.875-0.0826 1.6858-0.1572 3.2747-0.21875 3.5-0.14161 0.51841 5.7188 0.25 5.7188 0.25s-1.386-5.6022 0.59375-6.125c3.2511-0.85859 11.392 3.5315 17.188 4.8125 3.2524 0.71891 9.25-0.46875 9.25-0.46875s-4.8729-0.42716-7.2188-1.0625c-5.3549-1.4503-15.438-6.1875-15.438-6.1875-0.50004-0.98862-0.15625-5.2812-0.15625-5.2812l-4.1875-9.2188c0.0853 0.14349 0.28125 0.46875 0.28125 0.46875s-0.14379-5.532 1.3438-7c6.6395-6.5525 16.697-13.031 22.469-12.594 7.6544 0.57939 10.3 5.4998 9.8438 6.5312 0 0 2.8093-3.9993 2.5-6.2188-0.41745-2.9958-1.6646-6.9609-5.5625-7.1875-0.44498-0.02586-0.89082-0.03729-1.3438-0.03125zm-53.844 3.0625c-1.348 2.6442-1.355 4.8909-1.1875 7.5625 0.29661 4.7318 3.6875 14.062 3.6875 14.062l-0.59375 18.812 5.1875-1.7188 0.0312-18.25s-6.5839-15.663-7.125-20.469zm52.375 9.1875c-0.46436 0.02802-0.8756 0.13751-1.1562 0.40625 0 0-0.99653 3.2604-0.25 4.9062s2.4062 4.5 2.4062 4.5l2.9688-1.3125 1.0625-1.0625s7e-3 -3.6667 0.0937-4.625c0.10243-1.1349-3.1127-2.9339-5.125-2.8125zm-9.5938 0.03125c-0.40633-0.0027-0.83942 0.0089-1.3125 0.03125-3.7846 0.17866-6.8125 6.3438-6.8125 6.3438l2.8438 1.1562s1.5665 2.4929 2.4688 2.9688c0.90228 0.47586 6.4688-2.5938 6.4688-2.5938l1.2188 2.8438 1.7188-3.4375s-2.5426-5.7288-2.5312-6.25c0.01-0.45608-1.2182-1.0436-4.0625-1.0625zm-0.0937 4.0312c1.3697-0.03548 1.8438 0.875 1.8438 0.875s0.0225 2.5154-0.5625 2.4375c-0.58498-0.07787-4.875-0.5625-4.875-0.5625l-0.71875-0.8125s2.9428-1.902 4.3125-1.9375zm11.031 0.78125c0.97591 0.08635 2.1065 0.47611 2.0938 1.0625-0.0127 0.58639 0.0312 1.5 0.0312 1.5s-0.82551 0.52334-1.4062 0.25-1.5625-1.75-1.5625-1.75-0.13215-1.1488 0.84375-1.0625zm-1 7.0625c-0.5089-0.0395-1.0421 0.0438-1.5 0.1875-1.3497 0.42337-3.1875 2.7812-3.1875 2.7812l2.8125 2.9375 2.125-1.8438 2.0312-0.46875s-0.0851-2.405-0.90625-3.0938c-0.36767-0.3084-0.86609-0.4605-1.375-0.5zm-0.75 7.5312c-1.8703-5e-3 -5.4375 1.5312-5.4375 1.5312s5.2685-0.2648 6.0938-0.0625c0.82528 0.20227 3.4062 0.75 3.4062 0.75s-1.9127-1.5402-3.375-2.125c-0.18278-0.0731-0.42032-0.0931-0.6875-0.0937zm0.78125 2.9375c-1.4388-5e-3 -3.9375 0.3125-3.9375 0.3125s2.8286 2.0738 3.75 2.0938c0.92143 0.02 1.5777-1.9027 1.125-2.2812-0.11319-0.0947-0.45788-0.12339-0.9375-0.125zm-38.25 15.25 2.9688 11.781 2 1.6875 4.9688 0.1875-3.5625-12.938zm35.406 0-1.5938 11.75 2.75-0.40625s2.4832-10.861 2.0625-11zm-40.344 12.812c-1.0615 0.17408-2.1672 1.4607-2.5625 2.4062 0 0 1.6844 0.56866 2.5938 0.71875 0.90934 0.1501 20.255 25.665 21.906 27.656 1.6516 1.9914 38.906 47.031 38.906 47.031l5.0625 0.90625s-44.582-51.125-46.344-54.031c-1.7621-2.9064-17.776-24.981-19.562-24.688zm36.125 0.125c-0.0911 6e-3 -0.19448 2e-3 -0.25 0.0312l-0.375 4.625 1.5312 4.9375 1.9375 12.5c-0.8322-7.0477-0.61032-15.083-0.84375-20.875-0.0298-0.739-1.3616-1.2605-2-1.2188zm-46.188 5.625-3.875 0.28125-1.7812 2.1875 2.5 0.125s-2.2675 7.9261-4.25 17.406c-1.7454 8.3462-3.0421 17.953-5.6875 23.781-1.268 2.7937-4.5625 6.25-4.5625 6.25l0.71875 4.5312 4 1.375-2.4375-4.6562s4.0938-5.3767 5.3438-8.4688c4.9998-12.368 8.125-39.188 8.125-39.188l2.6562-0.3125zm75.656 14.625c1.1443 3.7737 2.0674 7.5652 3.4375 11.344 8.8706-0.55211 17.644-0.29688 26.719-0.1875 0 0 5.0328 2.0626 5.75 3 0.71715 0.93741 19.42 9.8984 23.094 10.531 0.7266 0.12515 11.125-2.1562 11.125-2.1562l11.688 6.1562s2.8038 8.6377 3.4688 9.125c0.90744 0.66499 8.5578 5.1627 9.8438 5.375 1.286 0.21226 2.0312-1.25 2.0312-1.25l5.5625-0.0625s-3.3143-1.0581-4.9375-2.4375c-0.86078-0.73151-1.2052-3.9928-2.6875-3.6562-1.4823 0.3366 2.935 5.1261-0.53125 4.1562-6.6092-1.8492-9.8513-9.0362-10.562-10.25-0.4167-0.71125 0.6875-7.5625 0.6875-7.5625l-1.5625 3.8438-12.969-4.9062s-8.0716 2.1-12.094 1.5c-7.9399-1.1845-21.114-9.6082-22.031-9.8125-0.91742-0.20427-0.125-2.5625-0.125-2.5625s0.25765-2.5114-0.65625-2.875c-1.4569-0.57963-4.2873 0.16118-3.9375 2.5938 0.23465 1.6319-23.953-1.4272-26.156-1.8438-2.2034-0.41653 1.215-5.3113-0.125-7.5625-0.91045-1.5295-1.3074 3.787-2.2188 2.4062-0.84942-1.2869-2.8125-2.9062-2.8125-2.9062zm-23.287 1.9522s2.4378 11.392 2.5007 16.412c0.0394 3.1481 0.53198 4.8155 2.2891 5.0665l11.622 0.35009 4.2188-1.2812-12.9-0.25793c-1.5692-0.0314-3.1368-14.113-3.1368-14.113l6.6467-1.0202-7.7346-0.8082c-1.744-0.18223-3.5059-4.348-3.5059-4.348zm-39.495 6.5478c-0.14818 0.0434-0.20816 0.29258-0.21875 0.78125-0.0565 2.6062-1.0625 6.0938-1.0625 6.0938l-1.5938-4.5938s-0.88142 4.154-0.125 5.3438c0.75642 1.1897 1.7812 2.625 1.7812 2.625l1.25 14.625s-3.2729-4.8783-4.3125-5.0312c-1.0396-0.15292 1 6.0312 1 6.0312l2.75 12.312 4.0625 8.8438-1.3438 11.281-3.1875 1.875-16.406 24.531 8.0312 8.6562s0.17378 0.0569 0.1875 0.0625l-7.6562 36.812s-7.627 27.422-11.5 43.406c-0.61462 2.5367-5.0362 8.5125-1.7188 11.844l4.3438 5.4375-7.1875 18.469 4.9375 5.4688-1.4688 14.562s-5.2305 6.4477-7 10.156c-2.218 4.6484-1.3364 13.532-0.15625 12.781 0 0-1.5004 3.8641 1.3438 4.9688 2.8442 1.1046 24.719 2.375 24.719 2.375s-2.5784-1.6361-2.5625-3.3125c0.0122-1.2895 1.5938-1.4062 1.5938-1.4062-0.0341 0.0647-5.7241-0.36606-9.3438-1-3.8516-0.67456-9.9832-2.8123-11.594-7.0312-2.0603-5.397 5.0625-16.562 5.0625-16.562s-0.46846-15.487 4.625-15.531c2.1212-0.0185 4.2821 0.058 7.1562-0.15625l-0.0625 9.4375 1.2812 1.6562c0.29341-3.5036 0.7798-8.2089 1.4062-11.375 1.8333-0.20132 4.5938-1.1875 4.5938-1.1875s-18.818-1.139-19.531-2.5312c-0.61908-1.2091 5.75-17.75 5.75-17.75l20.281 3.0625s-13.767-3.4063-18.844-7.9688c-2.6935-2.4208-5.604-6.6388-5.2812-9.5 0.32279-2.8612 4.9207-30.151 9-30.062 2.6062 0.0565 5.0938 1.0312 5.0938 1.0312s-4.4997-4.1644-4.4375-7.0312c0.0622-2.8668 1.1875-6.4688 1.1875-6.4688l11.094-40.594c3.6807 1.3545 8.3877 2.9549 11.625 3.5312 3.8973 0.69388 9.7539 1.1299 14.375 1.2188l1.4375 3.5625s-5.3329 4.0746-7.4688 6.375c-2.1358 2.3004-1.1601 6.7486 0.4375 5.2188 1.5976-1.5298 10.625-9.9688 10.625-9.9688s6.4766-3.8634 8.6875-3.5938c3.9008 0.47571 6.1562 3.9375 6.1562 3.9375 3.2781 11.153 11.719 24.75 11.719 24.75l2.0625 12.938c0.90086 0.54102 4.1562 0.625 4.1562 0.625l-2.1562 4.5312 4.0938 2.8125 4.9688 28.25s-1.3295 6.5379-0.28125 7.3125c2.1814 1.6117 9.875 2.4375 9.875 2.4375s1.4042 10.935 2.0625 12.469c0.36426 0.84872 0.95956 1.6625 2.4375 3.75 1.2861 3.9375 2.0805 10.047 2.0625 10.875-0.0283 1.3031-3.2765 15.216-3.6875 19.875-0.0597 0.67604 0.53125 1.625 0.53125 1.625l-0.59375 1.7812s-1.3493 2.7275-2.6562 3.0938c-7.5752 2.1229-21.599 2.85-28.125 3.0938 5.469-0.15607 28.081-0.78702 30.406-0.96875 2.6118-0.20409 18.812-0.90625 18.812-0.90625s8.1588-0.59451 12.25-0.5c5.2238 0.12029 12.455 1.8284 15.594 1.375 3.1387-0.45341 12.594-1.5625 12.594-1.5625l-4.9375-2.1875s-9.7274 0.38257-14.594 0.21875c-5.8289-0.19623-13.794-1.0978-17.438-1.4375s-12.172 0.34245-14.312-2.125c-2.2596-2.6051-1.2165-10.017 0.53125-18.844 1.419-7.1662-0.12995-14.559 0.71875-14.781 1.8356-0.48167 12.844-1.5312 12.844-1.5312l-13.594-0.0312c-2.3399-0.31149-5.9375-14.25-5.9375-14.25l16.406-5.5938s-3.9104 0.48044-5.875 0.65625c-5.8219 0.52098-14.661 3.9862-17.469 1.1875-1.8183-1.8126-9.9688-34.156-9.9688-34.156l4.6875 0.40625s-7.1592-1.8808-8.2812-2.8125c-0.63068-0.52367 0.79823-1.4758 1.3438-2.0625 1.4409-1.5496 5.25-2.25 5.25-2.25s-5.8385-2.0625-8.9688-2c-1.0425-0.0226-2.401-14.886-3.625-18.562-1.224-3.6769-9.1875-20.031-9.1875-20.031s8.0095 1.9904 10.344 2.5625c2.3343 0.57209-1.5109-1.5929-4.3438-3.2188-2.8329-1.6259-10.848-4.4073-13.188-4.7188-1.0324-0.13742-4.4952 0.0216-8 0.25 0.78813-0.93439 1.4589-1.8983 1-2.2188-0.77055-0.5382-11.086 0.60595-16.562-0.0937-7.1201-0.90964-20.875-5.2812-20.875-5.2812-2.204-0.56928 10.594-30.875 10.594-30.875 0.15409 0.0577 0.33068 0.13187 0.46875 0.1875 2.849 1.1478 17.438 3.0312 17.438 3.0312l-13.938-3.4375c-1.7447-0.31439-1.25-11.031-1.25-11.031 4.4741 0.93191 12.048 2.4892 13.875 2.4375 2.3815-0.0674 7.245-0.0907 8.1562-0.0937-0.12799 0.12449-0.24498 0.25458-0.28125 0.40625-0.90508 3.785-1.4231 8.1592-1.0312 11.812 0.2041 1.9027 1.9047 2.6587 3.375 2.875 1.4703 0.21623 18.062 0.28125 18.062 0.28125l1.3125-2s-17.128 0.56391-19.5-0.59375c-2.3717-1.1577 0.5-13.719 0.5-13.719s-1.4851 0.26539-2.25 0.84375c-0.67748-0.17469-5.2158-1.3562-7.875-1.6562-2.8612-0.32279-12.616-1.303-14.406-2.9062s-3.6602-7.2389-3.0938-9.3125c0.56646-2.0736 3.842-9.0504 2.25-7.7812-1.592 1.2692-3.875 4.75-3.875 4.75s0.57829-14.201 0.0937-15.906c-0.48445-1.7055-0.49995-12.688-0.49995-12.688 0.25308-1.9012-1.3891-5.2818-2.0312-5.0938zm-56.312 56.656s-2.5131 0.0645-4.0938 0.8125c-1.5807 0.74794 1.8704 5.5328 2.25 6.0625 0.37963 0.52971 11.719 11.594 11.719 11.594l-6.0938 6.0625-17.656-10.875-0.59375 3.625 19.719 9.6875 0.625-1.1875 7.375-6.0938s-7.4968-8.8727-9.4062-11c-1.9094-2.1273-3.8438-8.6875-3.8438-8.6875zm121.53 4.6875c-4.003 1.0796-8.4032 1.2526-12.812 0.84375l-0.84375 0.0625s1.0353 0.56733 2.75 1.25c0.47812 0.19035 9.0948-0.34794 11-1.0625zm-30.531 6 2 2.5c1.0374 1.2889 6.4371 1.6576 7.0312 1.75 1.949 0.30301 7.7754 18.95 8.4375 20.531 1.9832 4.7364 6.5483 4.8147 9.5312 5.5312 2.983 0.71655 12.562-3.25 12.562-3.25l2.5938-4.625s-12.626 1.4891-15.781 1.5c-5.1367 0.0178-13.344-23.781-13.344-23.781zm-114.72 11.875-2 3.1875s-1.3333 6.1035-1.625 7.5312c-0.19787 0.96845-0.99289 2.3882-1.5938 3.4062l-12.969-1.25-3.0938 0.34375c-0.37749 3.2681-0.5253 6.1625 0.34375 7.5625l2.5938-6.7188 12.469 1.2188c0.27127 1.5733-1.0992 3.0633 0.75 3.5938l0.0312 0.0312s0.0306-0.0303 0.0312-0.0312c0.97161 0.25543 2.2494 0.59322 3.7188 0.90625 2.7252 0.58059 3.9946-3.3186 5.0625-4.4688s2.1222-1.6481 5.125-1.8438 11.248-2.4925 13.625-3.875c2.3766-1.3825 0.34375-3.5 0.34375-3.5s-15.851 4.3489-17.281 4.1875c-1.4306-0.1614-3.671 6.5567-4.8438 6.5312-1.1728-0.0254-4.0625 0.1875-4.0625 0.1875-0.22911-0.0576-0.72076-0.2674-0.46875-1.1875 0.15857-1.3003 4.0743-8.5075 4.2188-9.1562 0.14444-0.64872-0.375-6.6562-0.375-6.6562zm-52.625 13.312s-0.80033 3.9167 1.9375 4.5c2.714 0.5782 28.844 4.125 28.844 4.125l-0.84375-3.8438zm209.94 1.3125s2.6425 9.438 3.8125 9.5938c1.17 0.15575 6.25-5.0938 6.25-5.0938l-0.34375-1.0312s-2.5376 2.6784-4.75 2.5c-2.2124-0.17835-4.9688-5.9688-4.9688-5.9688zm-172 158.81 0.2848 16.443c19.341 10.316 110.18 16.527 167.09 13.281l-1.3125-11.781c-22.857 3.3179-112.29 0.32793-158.86-11.218-8.007-1.9848-7.2011-6.7255-7.2011-6.7255z" fill="#0f382f"/>
  <path d="m239.72 138.65 0.64515 1.2903-5.622 1.1981-0.55298-1.659c1.8288-0.62558 3.6117-0.42111 5.5298-0.82948zm-9.2223 21.959c4.3488-0.24228 16.879 0.39102 16.879 0.39102 0.97755-0.0652 1.9551 6.0608 1.4337 5.0181-0.2437-0.4874-1.0287-3.3887-2.1879-3.7108-4.1723-1.1592-16.842-0.78595-16.842-0.78595s0.16389-0.88157 0.71687-0.91238zm-148.6 84.332s5.9033 0.67026 6.0289 2.4857c0.11056 1.5984 0.36866 4.4015 0.36866 4.4015l1.55-1.0452s0.63034-5.0824-0.54272-5.0824zm241.28-79.668c1.3823 2.6502 2.2392 5.3005 1.8899 7.9507 0.7564-1.3112 1.2811-3.0859 2.3461-3.7799zm12.773 6.8428 3.1282 1.4989c0.45619 1.5641 0.65667 3.1457 0 3.9102-0.7617 0.88681-2.0203 3.2585-1.8899 2.4764s1.2542-2.9664 1.6292-4.4967c0.52429-2.1394-2.8675-3.3888-2.8675-3.3888zm11.014 6.8428s5.8384 2.9228 7.0384 3.7799c2.7371 1.9551 4.8226 8.3418 4.8226 8.3418-2.3837-5.8348-7.0979-9.0061-11.861-12.122zm-68.819-32.585c11.668 2.9868 22.915 7.6606 33.888 13.425 0 0-8.8006-2.3275-10.818-3.5192-8.7545-5.1706-23.07-9.9058-23.07-9.9058zm38.711 247.52s4.8226 0.78204 7.0384 2.8675c1.349 1.2696 2.8231 3.2406 1.4337 2.4765-2.6068-1.4337-8.4721-5.3439-8.4721-5.3439zm-131.77 13.034c-1.9684 2.6168-3.5296 4.6984-11.47 5.9956-5.3719 0.87766 5.1791 8.1289 9.1238 6.517 4.3703-1.7858 2.3461-12.513 2.3461-12.513zm24.981-344.76c-0.23458 0.02345-0.46261 0.09685-0.66016 0.17323 5.2011 4.4509 10.259 8.6821 11.516 13.784 0.88914-0.50144 2.2451-0.63962 3.8584-0.63524 0 0-5.0053-8.6734-9.0372-11.355-1.5961-1.0615-4.0353-2.1315-5.6774-1.9673zm19.035 15.885c-3.0958-0.05325-7.2538 1.2077-7.7196 1.3955-1.953 0.78732-0.39186 1.5777 0.6317 1.139l11.878-0.02371s-1.756-2.0744-3.5428-2.3899c-0.38493-0.06797-0.80541-0.11322-1.2477-0.12083zm-31.794 19.003-2.6009 20.48c-0.10137 0.80016 3.1223 2.2402 3.2541 1.2896l2.3749-17.265-3.028-4.5042zm29.273 2.1352 1.0387 3.9922 2.0811 0.60777-3.1198-4.6zm-18.809 16.94s8.7987 4.9164 13.706 6.4862c4.4764 1.4319 9.0777 1.3704 11.584 0.59505l0.11744-1.0915s-4.5663 0.55649-6.819 0.2272c-6.4612-0.94445-18.588-6.217-18.588-6.217zm5.6339 14.063c-0.38952-0.0736-3.0176 0.77851-3.0176 0.77851-1.051 0.36832 0.95597 12.168 2.0789 12.235 0.6407 0.0386 2.5184-0.82059 2.5184-0.82059s-1.1902-12.12-1.5797-12.193zm-8.6789 21.129c1.3459 4.9309 10.14 14.185 13.667 19.832 5.9364 7.8078 18.035 21.646 18.035 21.646l-31.702-41.478zm22.322 67.562c-1.2139-6e-3 -2.0009 0.0191-2.0009 0.0191s11.565 1.1565 12.46 1.9581 1.5632 7.1918 1.5632 7.1918 0.79123-7.1293-0.22864-8.1944c-0.7649-0.79881-8.1523-0.95684-11.794-0.9747zm25.105 2.6387c-1.7587 0.33063-10.466 1.1796-10.466 1.1796s8.6014 0.14208 9.2186 0.10615c1.7506-0.10192 1.7096-1.3679 1.2469-1.2858zm0.16163 12.725-0.82247 0.45103 10.504 25.859c1.301-0.10664 2.1215 0.13767 2.9626-1.1235l-12.644-25.186zm-30.885 4.4564c-0.44934 11.797-1.2317 16.689-2.401 25.673-0.21296 1.6362 0.81491 1.6048 0.92441 0.61394 0.21935-1.9849 1.9455-14.373 2.2469-22.894 0.0812-2.2947-0.77037-3.3925-0.77037-3.3925zm-104.71 27.392c-0.83492 0.0363-2.0652-0.0715-3.5127 0.54897-1.4475 0.62046 4.078 1.3305 4.9079 1.4192 1.9695 0.21046 9.3406 3.1148 12.96 3.4068 0.63051 0.0509 0.57042-1.8006 0.57042-1.8006s-6.4963-0.66511-9.6255-1.5216c-2.2807-0.62422-2.9382-2.1556-5.3005-2.0529zm250.28 149.77s2.9223 2.3885 2.5275 4.5246c-1.2384 6.7002-31.556 10.881-31.556 10.881s16.423-0.4323 22.219-2.6751c3.3148-1.2825 6.264-2.0465 9.0955-4.3038 2.2514-1.7949 1.5376 11.255 1.5376 11.255l1.9852-0.73838s1.3-11.284-1.1303-15.622c-0.9336-1.6663-4.6791-3.321-4.6791-3.321z" fill="#5fd3bc"/>
  <path d="m232.81 404.06c-15.553 0.1189-44.812 1.0966-44.812 1.875l0.375 3.3125s9.9575-1.1886 14.938-0.9375c14.8 0.74633 43.875 7.1875 43.875 7.1875s10.893 0.27228 15.844-1.6562c1.1607-0.45216 3-2.2188 3-2.2188l-6.125-1.4688s1.7109-2.7314 0.71875-2.9375c-10.802-2.2433-16.302-2.2622-18.406-2.9688-0.55299-0.18568-4.222-0.22713-9.4062-0.1875zm-82.062 5.0938c-9.9363 1.4033-19.648 2.5876-31 5.4062l18.844 0.625s3.2073 4.5083 4.25 6.5938 9.125 5.7188 9.125 5.7188l-1.8125-3.625s-0.6288-5.7122-0.375-8.6875c0.1744-2.0445 0.96875-6.0312 0.96875-6.0312z" fill="#165044"/>
 </g>
</svg>
