<?xml version="1.0" encoding="UTF-8"?>
<svg viewBox="0 0 500.00568 327.89243" xmlns="http://www.w3.org/2000/svg">
 <g transform="translate(131.48 97.294)" fill="#fff" stroke="#000">
  <g transform="matrix(3.1918 0 0 3.1918 -211.83 -177.53)" stroke-width="2">
   <path d="m70.062 87.969-32.812 18.938c-2.0019-2.0596-5.2393-2.5662-7.8438-1.0625-3.0744 1.775-4.1502 5.6754-2.375 8.75 1.0739 1.8601 2.9524 2.9857 4.9375 3.1875-0.81765 1.82-0.79279 4.0149 0.28125 5.875 1.7751 3.0746 5.738 4.1188 8.8125 2.3438 2.5932-1.4972 3.7346-4.5526 2.9688-7.3125l35.375-20.406c-0.9397-3.6661-5.0989-5.9555-9.3438-10.312zm98.938-61.812c-1.0358 0.03009-2.1017 0.28902-3.0625 0.84375-2.6079 1.5057-3.7267 4.546-2.9375 7.3125l-24.594 14.188c3.2342 3.4595 5.6244 7.4091 6.9375 11.688l24.438-14.094c2.007 2.0454 5.2183 2.5602 7.8125 1.0625 3.0747-1.7752 4.1189-5.7067 2.3438-8.7812-1.0739-1.8601-2.9523-2.9858-4.9375-3.1875 0.81791-1.8201 0.79269-3.9836-0.28125-5.8438-1.2204-2.1138-3.44-3.2537-5.7188-3.1875z"/>
   <path d="m136.44 87.688c-3.7876 3.8859-7.4754 7.147-8.75 10.625l35.281 20.375c-0.76585 2.7599 0.37552 5.8153 2.9688 7.3125 3.0745 1.775 7.0374 0.73082 8.8125-2.3438 1.074-1.8601 1.0989-4.055 0.28125-5.875 1.9851-0.20183 3.8636-1.3274 4.9375-3.1875 1.7752-3.0746 0.69939-6.975-2.375-8.75-2.6045-1.5037-5.8419-0.99705-7.8438 1.0625l-33.312-19.219zm-99.062-61.531c-2.0576 0.13854-3.9843 1.2659-5.0938 3.1875-1.0739 1.8601-1.0992 4.0236-0.28125 5.8438-1.9852 0.20174-3.8636 1.3274-4.9375 3.1875-1.7751 3.0746-0.73091 7.0061 2.3438 8.7812 2.5942 1.4978 5.8055 0.98292 7.8125-1.0625l23.688 13.688c1.0807-4.2802 3.5502-8.2289 7-11.688l-23.906-13.781c0.78918-2.7665-0.32956-5.8068-2.9375-7.3125-1.153-0.66568-2.453-0.92687-3.6875-0.84375z"/>
  </g>
  <path d="m118.52-49.36c-65.882 0-127.13 41.826-119.29 91.964 12.272 78.509 74.406 62.779 45.184 109.62 0 10.846 13.636 20.394 34.212 25.834v-29.524h15.959v32.616c5.1047 0.7204 10.42 1.2513 15.959 1.4962v-34.112h15.959v34.112c5.541-0.24481 10.85-0.77576 15.959-1.4962v-32.616h15.959v29.524c20.606-5.4402 34.312-14.988 34.312-25.834-33.43-37.388 43.295-50.21 45.084-109.62 0-50.747-53.412-91.964-119.29-91.964zm-54.36 71.317c12.59 0 22.841 10.251 22.841 22.841s-10.251 22.742-22.841 22.742-22.742-10.151-22.742-22.742 10.151-22.841 22.742-22.841zm114.01 0c12.591 0 22.842 10.251 22.842 22.841s-10.251 22.742-22.842 22.742-22.742-10.151-22.742-22.742 10.151-22.841 22.742-22.841z" stroke-width="6.3836"/>
 </g>
</svg>
