<?xml version="1.0" encoding="UTF-8"?>
<svg viewBox="0 0 200 500" xmlns="http://www.w3.org/2000/svg">
 <g transform="matrix(.4882 0 0 .4882 -186.35 31.182)">
  <path d="m543.15 26.113-2.6113 237.63-32.642 15.668-18.279 10.445-23.502 37.864-9.1396 524.88 63.977 23.502 69.2 1.3057 124.04-16.974-3.917-501.37-22.196-62.672-37.864-24.808-23.502-10.445 1.3057-238.94-84.868-5.2226v9.1396z" fill="#930" fill-opacity=".9375" fill-rule="evenodd" stroke="#000"/>
  <path d="m543.15 22.196 3.917 237.63-54.838 24.808-14.362 26.113-14.362 39.17-7.834 498.76 23.502 13.057 2.6113-118.82 10.445-356.45s-3.5906-44.392 28.725-58.755 75.63-0.68532 100.54 1.3057c29.679 2.3725 44.392-5.2226 32.642-24.808-11.42-19.033-69.526 11.425-87.479-9.1396s10.772-39.496 5.2226-77.034-11.751-79.645-11.751-79.645 1.2152-62.738 0-86.174c-1.1424-22.033 50.921-16.974 50.921-16.974v-10.445l-67.894-2.6113z" fill="#966600" fill-rule="evenodd"/>
  <path d="m459.59 366.89c137.09 57.097 250.69 6.7173 250.69 6.7173l1.3057 475.25-79.645 28.548-147.54-11.755-28.725-25.009 3.917-473.75z" fill-opacity=".33333" fill-rule="evenodd"/>
  <path d="m518.36 414.39c103.11 17.276 201.05-4.354 201.05-4.354l1e-5 378.8s-42.754 21.776-100.01 23.227-101.04-15.97-101.04-15.97l-1e-5 -381.7z" fill="#f8f3c8" fill-rule="evenodd" stroke="#000" stroke-width="1.0647"/>
  <g transform="matrix(1.0708 0 0 1.0355 -63.879 -11.178)">
   <path d="m577.28 20.648c-0.28943 17.936-2.2473 29.246-1.9038 47.241 0.70113 36.994-2.4064 72.99 0.11597 109.85 2.5781 23.467-0.46347 47.77-0.13113 71.643 2.5833 22.093-13.656 30.098-25.13 29.869-15.761-3.0781-39.853 27.243-45.381 45.803-8.3044 31.705-8.4391 66.012-8.6258 99.854-0.12615 44.037 0.0427 88.075 0.071 132.11-0.05169 36.025 0.05158 72.051 0.28124 108.07-0.85399 15.351 1.6831 31.498-0.50162 46.591-0.98265 6.8639-0.7604 13.996-0.74011 21-0.14294 12.679-0.22839 25.354-0.0613 38.033 0.08666 7.3857 0.05475 14.773 0.07122 22.159-6.9e-4 6.919-0.01602 13.838-0.00418 20.757-0.00196 3.9581-0.00567 7.9159 0.00363 11.874l-16.955 14.089c0.00928-3.9602 0.00562-7.92 0.00362-11.88 0.01181-6.9167-0.00344-13.833-0.00417-20.75 0.01649-7.4259-0.01511-14.852 0.0713-22.277 0.16313-12.64 0.0924-25.277-0.07129-37.916 0.00373-7.2387-0.21197-14.56 0.54319-21.719 2.7681-14.87 0.61991-31.148 1.4274-46.485 0.22826-36.179 0.3337-72.361 0.28179-108.54 0.02669-44.056 0.14664-88.112-0.01511-132.17-0.06542-34.064-0.18942-68.261 7.6491-100.49 5.1806-18.853 12.569-34.589 23.459-45.473 17.767-16.955 32.486-31.088 53.514-30.479 22.872-1.6814-13.523 30.761-6.6918 1.93 0.20392-24.019 4.8964-47.74 4.5683-71.322-2.6527-36.913 4.0568-73.316 3.0843-110.37-0.5143-17.771-1.8256-44.249-17.479-53.472l28.55-7.5357z"/>
   <path d="m637.66 23.26c0.28943 17.936 2.2473 29.246 1.9038 47.241-0.70113 36.994 2.4064 72.99-0.11597 109.85-2.5781 23.467 0.46347 47.77 0.13113 71.643-2.5833 22.093 13.656 30.098 25.13 29.869 15.761-3.0781 47.707 26.032 21.18 1.6404 10.931 10.629 18.674 25.602 24.201 44.163 8.3044 31.705 8.4391 66.012 8.6258 99.854 0.12615 44.037-0.0427 88.075-0.071 132.11 0.05169 36.025-0.05158 72.051-0.28124 108.07 0.85399 15.351-1.6831 31.498 0.50162 46.591 0.98265 6.8639 0.7604 13.996 0.74011 21 0.14294 12.679 0.22839 25.354 0.0613 38.033-0.08666 7.3857-0.05475 14.773-0.07122 22.159 6.9e-4 6.919 0.01602 13.838 0.00418 20.757 0.00196 3.9581 0.00567 7.9159-0.00363 11.874l16.955 14.089c-0.00928-3.9602-0.00562-7.92-0.00362-11.88-0.01181-6.9167 0.00344-13.833 0.00417-20.75-0.01649-7.4259 0.01511-14.852-0.0713-22.277-0.16313-12.64-0.0924-25.277 0.07129-37.916-0.00373-7.2387 0.21197-14.56-0.54319-21.719-2.7681-14.87-0.61991-31.148-1.4274-46.485-0.22826-36.179-0.3337-72.361-0.28179-108.54-0.02669-44.056-0.14664-88.112 0.01511-132.17 0.06542-34.064 0.18942-68.261-7.6491-100.49-5.1806-18.853-12.569-34.589-23.459-45.473-17.767-16.955-32.486-31.088-53.514-30.479-22.872-1.6814 13.523 30.761 6.6918 1.93-0.20392-24.019-4.8964-47.74-4.5683-71.322 2.6527-36.913-4.0568-73.316-3.0843-110.37 0.5143-17.771 1.8256-44.249 17.479-53.472l-28.55-7.5357z"/>
   <path d="m736.24 840.88c-1.5928 9.8202-3.52 9.359-24.131 14.749s-68.506 10.1-89.301 10.947c-23.176 0.19625-46.353-0.09606-69.53 0.0685-17.465-1.1297-32.746-3.906-46.195-7.7727s-27.046-17.862-28.802-19.344l12.086-20.288c1.6976 1.4394 8.1366 8.8592 9.8815 10.243 7.3109 6.4669 15.516 12.947 28.767 16.495s43.781 6.2531 61.092 6.4444c23.214 0.18225 35.724 0.0473 58.702-3.5176 73.098-12.959 65.272-10.951 74.534-27.935l12.897 19.911z"/>
   <path d="m642.57 53.902c-7.1953-14.863-23.258-17.305-39.426-15.46-9.5706 1.2426-26.8-5.0313-36.433-4.8744l10.116-12.837c9.3599 0.04935 16.117 5.8403 25.429 4.792 16.623-1.7161 18.816-2.2707 35.541-2.189l4.7726 30.569z"/>
  </g>
  <path d="m689.39 306.83s7.6586 493.49-7.834 520.96c-14.362 25.46-25.787 1.9585-63.977 10.445s-117.51 33.947-117.51 33.947l91.396 10.445 122.73-24.808-1.3057-515.74-23.502-35.253z" fill-opacity=".16667" fill-rule="evenodd"/>
  <path d="m608.89 20.431s2.76 184.48 3.4602 248.54c0.19601 17.295 46.469 13.41 46.469 13.41l-19.05-10.798-13.057-31.336v-212.82l-17.822-6.9884z" fill-opacity=".20417" fill-rule="evenodd"/>
 </g>
</svg>
