<?xml version="1.0" encoding="UTF-8"?>
<svg viewBox="0 0 744.09448819 1052.3622047" xmlns="http://www.w3.org/2000/svg" xmlns:xlink="http://www.w3.org/1999/xlink">
 <defs>
  <linearGradient id="b" x1="209.64" x2="230.01" gradientUnits="userSpaceOnUse">
   <stop stop-color="#6c2f07" offset="0"/>
   <stop stop-color="#7e4932" offset="1"/>
  </linearGradient>
  <linearGradient id="a" x1="743.21" x2="494.23" y1="349.57" y2="187.47" gradientTransform="scale(.61308 1.6311)" gradientUnits="userSpaceOnUse">
   <stop stop-color="#002f00" stop-opacity=".70103" offset="0"/>
   <stop stop-color="#009300" stop-opacity=".4902" offset="1"/>
  </linearGradient>
  <linearGradient id="c" x2="0" y1="60.906" y2="754.2" gradientUnits="userSpaceOnUse">
   <stop stop-color="#002f00" offset="0"/>
   <stop stop-color="#009300" offset="1"/>
  </linearGradient>
  <linearGradient id="g">
   <stop stop-color="#7d3c06" offset="0"/>
   <stop stop-color="#f1ce4b" offset="1"/>
  </linearGradient>
  <linearGradient id="f" x1="86.643" x2="201.21" gradientUnits="userSpaceOnUse" xlink:href="#g"/>
  <linearGradient id="e" x1="58.511" x2="130.45" gradientUnits="userSpaceOnUse" xlink:href="#g"/>
  <linearGradient id="d" x1="107.22" x2="166.02" gradientUnits="userSpaceOnUse" xlink:href="#g"/>
  <linearGradient id="j" x1="508.78" x2="458.73" gradientUnits="userSpaceOnUse" xlink:href="#g"/>
  <linearGradient id="i" x1="477.87" x2="446.44" gradientUnits="userSpaceOnUse" xlink:href="#g"/>
  <linearGradient id="h" x1="493.41" x2="467.72" gradientUnits="userSpaceOnUse" xlink:href="#g"/>
 </defs>
 <path d="m15.714 243.79c27.619-30.952 109.74-64.527 142.86-82.857 93.964-52.004 208.1-129.05 271.43-150 0 34.762 11.946 59.439 28.571 91.429 38.287 73.67 86.304 145.68 142.86 204.29 35.352 36.634 88.571 54.286 132.86 81.429l-212.86 112.86c-8.5714-11.429-52.937-7.0018-72.857-17.143-6.2705-3.1922-15.238-10.952-17.143-18.571-0.95238 10.952 2.911 21.268 8.5714 28.571 9.1015 11.744 38.571 9.0476 47.143 24.286l-242.86 114.29c4.7619-19.524 3.2717-37.315-7.1428-45.714-19.109-15.411-48.058-20.424-64.286-38.571-28.058-31.377-52.147-70.793-68.571-110-13.099-31.27-6.051-70.831-20-101.43-15.575-34.164-32.857-70.476-68.571-92.857z" fill="#f0ce64" fill-rule="evenodd" stroke="#803600" stroke-linejoin="round" stroke-width="11.2"/>
 <path d="m445.19 505.84c12.118 4.216 24.938 1.0909 30.906 11.594-12.645 5.8902-20.855 7.8911-33.5 13.781 1.7623-12.673 4.3547-17.203 2.5938-25.375zm2.6562-24.188c-6.2705-3.1922-15.22-10.975-17.125-18.594-0.95238 10.952 2.9021 21.29 8.5625 28.594 9.1015 11.744 38.585 9.0432 47.156 24.281-80.952 38.095-161.92 76.186-242.88 114.28 4.7619-19.524 3.2895-37.32-7.125-45.719-19.109-15.411-48.053-20.415-64.281-38.562-28.058-31.377-52.169-70.793-68.594-110-13.099-31.27-6.051-70.84-20-101.44-15.575-34.164-32.848-70.463-68.562-92.844 27.619-30.952 109.72-64.544 142.84-82.875s20.149-18.202 31.031-9.2188 23.724 17.667 27.625 29.25c8.3769 24.875-4.1765 13.809-6.9688 33.156s3.4913 18.998-4.1875 44.219-26.531 25.594-26.531 56.688 8.0323 43.189 26.531 67.719 23.385 41.085 47.469 30.375 20.572-55.63 48.844-73.25 37.374-14.493 64.25 2.7812 31.065 36.977 43.281 66.344 1.025 38.687 5.5625 51.125c2.5381 6.957 6.3294 7.8838 13.531 12.375-1.1169-4.162 0.7229-7.1102 1.125-11.688 1.8615 7.3704 10.622 14.881 16.75 17.969 19.468 9.8101 21.607 15.172 1.6875 5.0312z" fill="#1590db" fill-opacity=".4153" fill-rule="evenodd"/>
 <path d="m419.67 21.677c-4.7958 1.7919-9.7917 3.8343-15.057 6.1367 2.6056 12.097 6.082 26.63-4.123 26.21-15.799-0.6516-22.636-5.2662-32.556-8.3435-53.313 27.943-118.88 68.978-179.37 103.48 10.882 8.9837 23.708 17.65 27.609 29.233 8.3769 24.875-4.171 13.815-6.9633 33.162s3.4947 19.006-4.1841 44.227-26.54 25.588-26.54 56.682 8.0409 43.186 26.54 67.716 23.377 41.091 47.46 30.381 20.593-55.628 48.865-73.248 37.351-14.493 64.227 2.7812 31.06 36.959 43.276 66.325 1.0515 38.712 5.589 51.149c2.5381 6.957 6.3028 7.8582 13.505 12.349-1.1169-4.162 0.75269-7.107 1.1548-11.684 1.8615 7.3704 10.608 14.899 16.736 17.987 19.468 9.8101 62.844 5.5105 71.221 16.566 65.085-34.157 130.16-68.293 195.25-102.45-0.16459-1.5514-0.2472-3.0771-0.48865-4.6555-0.54745-3.5786-1.2674-7.1993-2.1378-10.853-39.737-21.653-83.897-38.658-114.44-69.983-55.27-56.692-102.21-126.35-139.63-197.61-14.424-27.471-25.178-49.415-27.426-77.51-3.1875-3.1253-6.0539-5.8467-8.5209-8.0412zm25.195 483.75c1.761 8.1718-0.82378 12.692-2.586 25.365 12.645-5.8902 20.844-7.8857 33.489-13.776-5.9685-10.503-18.785-7.3736-30.903-11.59z" fill="#79ca12" fill-opacity=".35519" fill-rule="evenodd" stroke="#a56c00" stroke-width="6.2229"/>
 <g transform="matrix(.06633 -.015876 .0052402 .021893 457.55 338.66)" fill-rule="evenodd">
  <path transform="translate(-178.85 -7.5303)" d="m399.03 31.531c-8.0925 0.5713-72.664 106.72-87.156 176.56-21.528 125.42-31.826 285.19-50.938 410.97-5.671 29.099-3.2978 64.859 3.8125 82.344 7.2306 23.698 27.771 48.489 52.344 62.812 29.993 19.426 52.515 18.901 81.75 19.281 0.15343 0.09462 0.35417 0.11827 0.53125 0 30.618-0.03434 53.486-1.238 81.75-19.281 24.573-14.323 45.113-39.114 52.344-62.812 7.1102-17.485 9.4835-53.244 3.8125-82.344-19.112-125.77-29.41-285.55-50.938-410.97-14.492-69.847-79.064-175.99-87.156-176.56h-0.15625z" fill="url(#c)"/>
  <path transform="translate(-178.85 -7.5303)" d="m399.03 29.649c-8.0925 0.5713-72.664 106.72-87.156 176.56-21.528 125.42-31.826 285.19-50.938 410.97-5.671 29.099-3.2978 64.859 3.8125 82.344 7.2306 23.698 27.771 48.489 52.344 62.812 29.993 19.426 52.515 18.901 81.75 19.281 0.15343 0.09462 0.35417 0.11827 0.53125 0 30.618-0.03434 53.486-1.238 81.75-19.281 24.573-14.323 45.113-39.114 52.344-62.812 7.1102-17.485 9.4835-53.244 3.8125-82.344-19.112-125.77-29.41-285.55-50.938-410.97-14.492-69.847-79.064-175.99-87.156-176.56h-0.15625z" fill="url(#a)"/>
  <path d="m190.56 772.75-9.7812 223.44h84.875l-14.875-223.44h-60.219z" fill="url(#b)"/>
 </g>
 <text transform="matrix(.75472,-.86672,.70056,.52047,0,0)" x="-17.45727" y="844.052" font-family="Balthazar" font-size="165.81">
  <tspan x="-17.45727" y="844.052">X</tspan>
 </text>
 <g transform="matrix(-.43689 0 0 .55035 379.73 150.97)" fill-rule="evenodd" stroke="#674605" stroke-linecap="round">
  <path d="m87.143 93.791c9.4643-7.1429 16.964-21.964 37.857-28.571s26.786-5.5357 45.714 2.1429 22.5 21.429 30 28.571" fill="url(#f)" stroke-width="3.25"/>
  <path d="m60.136 95.847c8.1312-6.0782 8.585-16.425 20.982-21.959s19.564-5.9342 28.607-0.17543 14.328 15.643 19.105 20.857" fill="url(#e)" stroke-linejoin="round" stroke-width="3.25"/>
  <path d="m164.18 94.518c-6.6384-4.7181-7.2017-13.008-17.251-17.207s-15.805-4.3824-22.946 0.4104-11.19 12.822-14.92 17.096" fill="url(#d)" stroke-linejoin="round" stroke-width="3.6775"/>
 </g>
 <g transform="matrix(-.43689 0 0 .55035 416.27 161.36)" fill-rule="evenodd" stroke="#674605" stroke-linecap="round">
  <path d="m87.143 93.791c9.4643-7.1429 16.964-21.964 37.857-28.571s26.786-5.5357 45.714 2.1429 22.5 21.429 30 28.571" fill="url(#f)" stroke-width="3.25"/>
  <path d="m60.136 95.847c8.1312-6.0782 8.585-16.425 20.982-21.959s19.564-5.9342 28.607-0.17543 14.328 15.643 19.105 20.857" fill="url(#e)" stroke-linejoin="round" stroke-width="3.25"/>
  <path d="m164.18 94.518c-6.6384-4.7181-7.2017-13.008-17.251-17.207s-15.805-4.3824-22.946 0.4104-11.19 12.822-14.92 17.096" fill="url(#d)" stroke-linejoin="round" stroke-width="3.6775"/>
 </g>
 <g transform="matrix(-.43689 0 0 .55035 343.41 157.07)" fill-rule="evenodd" stroke="#674605" stroke-linecap="round">
  <path d="m87.143 93.791c9.4643-7.1429 16.964-21.964 37.857-28.571s26.786-5.5357 45.714 2.1429 22.5 21.429 30 28.571" fill="url(#f)" stroke-width="3.25"/>
  <path d="m60.136 95.847c8.1312-6.0782 8.585-16.425 20.982-21.959s19.564-5.9342 28.607-0.17543 14.328 15.643 19.105 20.857" fill="url(#e)" stroke-linejoin="round" stroke-width="3.25"/>
  <path d="m164.18 94.518c-6.6384-4.7181-7.2017-13.008-17.251-17.207s-15.805-4.3824-22.946 0.4104-11.19 12.822-14.92 17.096" fill="url(#d)" stroke-linejoin="round" stroke-width="3.6775"/>
 </g>
 <g transform="matrix(-.43689 0 0 .55035 385.55 164.93)" fill-rule="evenodd" stroke="#674605" stroke-linecap="round">
  <path d="m87.143 93.791c9.4643-7.1429 16.964-21.964 37.857-28.571s26.786-5.5357 45.714 2.1429 22.5 21.429 30 28.571" fill="url(#f)" stroke-width="3.25"/>
  <path d="m60.136 95.847c8.1312-6.0782 8.585-16.425 20.982-21.959s19.564-5.9342 28.607-0.17543 14.328 15.643 19.105 20.857" fill="url(#e)" stroke-linejoin="round" stroke-width="3.25"/>
  <path d="m164.18 94.518c-6.6384-4.7181-7.2017-13.008-17.251-17.207s-15.805-4.3824-22.946 0.4104-11.19 12.822-14.92 17.096" fill="url(#d)" stroke-linejoin="round" stroke-width="3.6775"/>
 </g>
 <g transform="matrix(-.43689 0 0 .55035 352.7 169.93)" fill-rule="evenodd" stroke="#674605" stroke-linecap="round">
  <path d="m87.143 93.791c9.4643-7.1429 16.964-21.964 37.857-28.571s26.786-5.5357 45.714 2.1429 22.5 21.429 30 28.571" fill="url(#f)" stroke-width="3.25"/>
  <path d="m60.136 95.847c8.1312-6.0782 8.585-16.425 20.982-21.959s19.564-5.9342 28.607-0.17543 14.328 15.643 19.105 20.857" fill="url(#e)" stroke-linejoin="round" stroke-width="3.25"/>
  <path d="m164.18 94.518c-6.6384-4.7181-7.2017-13.008-17.251-17.207s-15.805-4.3824-22.946 0.4104-11.19 12.822-14.92 17.096" fill="url(#d)" stroke-linejoin="round" stroke-width="3.6775"/>
 </g>
 <g transform="matrix(-.43689 0 0 .55035 509.12 406.36)" fill-rule="evenodd" stroke="#674605" stroke-linecap="round">
  <path d="m87.143 93.791c9.4643-7.1429 16.964-21.964 37.857-28.571s26.786-5.5357 45.714 2.1429 22.5 21.429 30 28.571" fill="url(#f)" stroke-width="3.25"/>
  <path d="m60.136 95.847c8.1312-6.0782 8.585-16.425 20.982-21.959s19.564-5.9342 28.607-0.17543 14.328 15.643 19.105 20.857" fill="url(#e)" stroke-linejoin="round" stroke-width="3.25"/>
  <path d="m164.18 94.518c-6.6384-4.7181-7.2017-13.008-17.251-17.207s-15.805-4.3824-22.946 0.4104-11.19 12.822-14.92 17.096" fill="url(#d)" stroke-linejoin="round" stroke-width="3.6775"/>
 </g>
 <g transform="translate(0 -1.4286)" fill-rule="evenodd" stroke="#674605" stroke-linecap="round">
  <path d="m508.57 470.12c-4.1348-3.9311-7.4115-12.088-16.539-15.724s-11.702-3.0466-19.972 1.1793-9.83 11.793-13.107 15.724" fill="url(#j)" stroke-width="1.5936"/>
  <path d="m477.16 471.25c-3.5525-3.3451-3.7507-9.0397-9.1669-12.085s-8.5475-3.2659-12.498-0.09655-6.2599 8.609-8.3466 11.479" fill="url(#i)" stroke-linejoin="round" stroke-width="1.5936"/>
  <path d="m468.52 470.52c2.9002-2.5966 3.1463-7.1589 7.5368-9.4699s6.9051-2.4118 10.025 0.22587 4.8889 7.0564 6.5185 9.4085" fill="url(#h)" stroke-linejoin="round" stroke-width="1.8033"/>
 </g>
 <g transform="translate(-129.29 -244.29)" fill-rule="evenodd" stroke="#674605" stroke-linecap="round">
  <path d="m508.57 470.12c-4.1348-3.9311-7.4115-12.088-16.539-15.724s-11.702-3.0466-19.972 1.1793-9.83 11.793-13.107 15.724" fill="url(#j)" stroke-width="1.5936"/>
  <path d="m477.16 471.25c-3.5525-3.3451-3.7507-9.0397-9.1669-12.085s-8.5475-3.2659-12.498-0.09655-6.2599 8.609-8.3466 11.479" fill="url(#i)" stroke-linejoin="round" stroke-width="1.5936"/>
  <path d="m468.52 470.52c2.9002-2.5966 3.1463-7.1589 7.5368-9.4699s6.9051-2.4118 10.025 0.22587 4.8889 7.0564 6.5185 9.4085" fill="url(#h)" stroke-linejoin="round" stroke-width="1.8033"/>
 </g>
 <g transform="matrix(.06633 -.015876 .0052402 .021893 448.08 279.36)" fill-rule="evenodd">
  <path transform="translate(-178.85 -7.5303)" d="m399.03 31.531c-8.0925 0.5713-72.664 106.72-87.156 176.56-21.528 125.42-31.826 285.19-50.938 410.97-5.671 29.099-3.2978 64.859 3.8125 82.344 7.2306 23.698 27.771 48.489 52.344 62.812 29.993 19.426 52.515 18.901 81.75 19.281 0.15343 0.09462 0.35417 0.11827 0.53125 0 30.618-0.03434 53.486-1.238 81.75-19.281 24.573-14.323 45.113-39.114 52.344-62.812 7.1102-17.485 9.4835-53.244 3.8125-82.344-19.112-125.77-29.41-285.55-50.938-410.97-14.492-69.847-79.064-175.99-87.156-176.56h-0.15625z" fill="url(#c)"/>
  <path transform="translate(-178.85 -7.5303)" d="m399.03 29.649c-8.0925 0.5713-72.664 106.72-87.156 176.56-21.528 125.42-31.826 285.19-50.938 410.97-5.671 29.099-3.2978 64.859 3.8125 82.344 7.2306 23.698 27.771 48.489 52.344 62.812 29.993 19.426 52.515 18.901 81.75 19.281 0.15343 0.09462 0.35417 0.11827 0.53125 0 30.618-0.03434 53.486-1.238 81.75-19.281 24.573-14.323 45.113-39.114 52.344-62.812 7.1102-17.485 9.4835-53.244 3.8125-82.344-19.112-125.77-29.41-285.55-50.938-410.97-14.492-69.847-79.064-175.99-87.156-176.56h-0.15625z" fill="url(#a)"/>
  <path d="m190.56 772.75-9.7812 223.44h84.875l-14.875-223.44h-60.219z" fill="url(#b)"/>
 </g>
 <g transform="matrix(.06633 -.01588 .00524 .02189 426.12 315.09)" fill-rule="evenodd">
  <path transform="translate(-178.85 -7.5303)" d="m399.03 31.531c-8.0925 0.5713-72.664 106.72-87.156 176.56-21.528 125.42-31.826 285.19-50.938 410.97-5.671 29.099-3.2978 64.859 3.8125 82.344 7.2306 23.698 27.771 48.489 52.344 62.812 29.993 19.426 52.515 18.901 81.75 19.281 0.15343 0.09462 0.35417 0.11827 0.53125 0 30.618-0.03434 53.486-1.238 81.75-19.281 24.573-14.323 45.113-39.114 52.344-62.812 7.1102-17.485 9.4835-53.244 3.8125-82.344-19.112-125.77-29.41-285.55-50.938-410.97-14.492-69.847-79.064-175.99-87.156-176.56h-0.15625z" fill="url(#c)"/>
  <path transform="translate(-178.85 -7.5303)" d="m399.03 29.649c-8.0925 0.5713-72.664 106.72-87.156 176.56-21.528 125.42-31.826 285.19-50.938 410.97-5.671 29.099-3.2978 64.859 3.8125 82.344 7.2306 23.698 27.771 48.489 52.344 62.812 29.993 19.426 52.515 18.901 81.75 19.281 0.15343 0.09462 0.35417 0.11827 0.53125 0 30.618-0.03434 53.486-1.238 81.75-19.281 24.573-14.323 45.113-39.114 52.344-62.812 7.1102-17.485 9.4835-53.244 3.8125-82.344-19.112-125.77-29.41-285.55-50.938-410.97-14.492-69.847-79.064-175.99-87.156-176.56h-0.15625z" fill="url(#a)"/>
  <path d="m190.56 772.75-9.7812 223.44h84.875l-14.875-223.44h-60.219z" fill="url(#b)"/>
 </g>
 <g transform="matrix(.0789 -.02104 .00623 .02901 415.57 330.41)" fill-rule="evenodd">
  <path transform="translate(-178.85 -7.5303)" d="m399.03 31.531c-8.0925 0.5713-72.664 106.72-87.156 176.56-21.528 125.42-31.826 285.19-50.938 410.97-5.671 29.099-3.2978 64.859 3.8125 82.344 7.2306 23.698 27.771 48.489 52.344 62.812 29.993 19.426 52.515 18.901 81.75 19.281 0.15343 0.09462 0.35417 0.11827 0.53125 0 30.618-0.03434 53.486-1.238 81.75-19.281 24.573-14.323 45.113-39.114 52.344-62.812 7.1102-17.485 9.4835-53.244 3.8125-82.344-19.112-125.77-29.41-285.55-50.938-410.97-14.492-69.847-79.064-175.99-87.156-176.56h-0.15625z" fill="url(#c)"/>
  <path transform="translate(-178.85 -7.5303)" d="m399.03 29.649c-8.0925 0.5713-72.664 106.72-87.156 176.56-21.528 125.42-31.826 285.19-50.938 410.97-5.671 29.099-3.2978 64.859 3.8125 82.344 7.2306 23.698 27.771 48.489 52.344 62.812 29.993 19.426 52.515 18.901 81.75 19.281 0.15343 0.09462 0.35417 0.11827 0.53125 0 30.618-0.03434 53.486-1.238 81.75-19.281 24.573-14.323 45.113-39.114 52.344-62.812 7.1102-17.485 9.4835-53.244 3.8125-82.344-19.112-125.77-29.41-285.55-50.938-410.97-14.492-69.847-79.064-175.99-87.156-176.56h-0.15625z" fill="url(#a)"/>
  <path d="m190.56 772.75-9.7812 223.44h84.875l-14.875-223.44h-60.219z" fill="url(#b)"/>
 </g>
 <g transform="matrix(.07796 -.0263 .0102 .02508 435.04 318.53)" fill-rule="evenodd">
  <path transform="translate(-178.85 -7.5303)" d="m399.03 31.531c-8.0925 0.5713-72.664 106.72-87.156 176.56-21.528 125.42-31.826 285.19-50.938 410.97-5.671 29.099-3.2978 64.859 3.8125 82.344 7.2306 23.698 27.771 48.489 52.344 62.812 29.993 19.426 52.515 18.901 81.75 19.281 0.15343 0.09462 0.35417 0.11827 0.53125 0 30.618-0.03434 53.486-1.238 81.75-19.281 24.573-14.323 45.113-39.114 52.344-62.812 7.1102-17.485 9.4835-53.244 3.8125-82.344-19.112-125.77-29.41-285.55-50.938-410.97-14.492-69.847-79.064-175.99-87.156-176.56h-0.15625z" fill="url(#c)"/>
  <path transform="translate(-178.85 -7.5303)" d="m399.03 29.649c-8.0925 0.5713-72.664 106.72-87.156 176.56-21.528 125.42-31.826 285.19-50.938 410.97-5.671 29.099-3.2978 64.859 3.8125 82.344 7.2306 23.698 27.771 48.489 52.344 62.812 29.993 19.426 52.515 18.901 81.75 19.281 0.15343 0.09462 0.35417 0.11827 0.53125 0 30.618-0.03434 53.486-1.238 81.75-19.281 24.573-14.323 45.113-39.114 52.344-62.812 7.1102-17.485 9.4835-53.244 3.8125-82.344-19.112-125.77-29.41-285.55-50.938-410.97-14.492-69.847-79.064-175.99-87.156-176.56h-0.15625z" fill="url(#a)"/>
  <path d="m190.56 772.75-9.7812 223.44h84.875l-14.875-223.44h-60.219z" fill="url(#b)"/>
 </g>
 <g transform="matrix(.078902 -.02104 .0062334 .029014 437.53 294.67)" fill-rule="evenodd">
  <path transform="translate(-178.85 -7.5303)" d="m399.03 31.531c-8.0925 0.5713-72.664 106.72-87.156 176.56-21.528 125.42-31.826 285.19-50.938 410.97-5.671 29.099-3.2978 64.859 3.8125 82.344 7.2306 23.698 27.771 48.489 52.344 62.812 29.993 19.426 52.515 18.901 81.75 19.281 0.15343 0.09462 0.35417 0.11827 0.53125 0 30.618-0.03434 53.486-1.238 81.75-19.281 24.573-14.323 45.113-39.114 52.344-62.812 7.1102-17.485 9.4835-53.244 3.8125-82.344-19.112-125.77-29.41-285.55-50.938-410.97-14.492-69.847-79.064-175.99-87.156-176.56h-0.15625z" fill="url(#c)"/>
  <path transform="translate(-178.85 -7.5303)" d="m399.03 29.649c-8.0925 0.5713-72.664 106.72-87.156 176.56-21.528 125.42-31.826 285.19-50.938 410.97-5.671 29.099-3.2978 64.859 3.8125 82.344 7.2306 23.698 27.771 48.489 52.344 62.812 29.993 19.426 52.515 18.901 81.75 19.281 0.15343 0.09462 0.35417 0.11827 0.53125 0 30.618-0.03434 53.486-1.238 81.75-19.281 24.573-14.323 45.113-39.114 52.344-62.812 7.1102-17.485 9.4835-53.244 3.8125-82.344-19.112-125.77-29.41-285.55-50.938-410.97-14.492-69.847-79.064-175.99-87.156-176.56h-0.15625z" fill="url(#a)"/>
  <path d="m190.56 772.75-9.7812 223.44h84.875l-14.875-223.44h-60.219z" fill="url(#b)"/>
 </g>
 <g transform="matrix(.077959 -.026302 .010202 .025083 457 282.8)" fill-rule="evenodd">
  <path transform="translate(-178.85 -7.5303)" d="m399.03 31.531c-8.0925 0.5713-72.664 106.72-87.156 176.56-21.528 125.42-31.826 285.19-50.938 410.97-5.671 29.099-3.2978 64.859 3.8125 82.344 7.2306 23.698 27.771 48.489 52.344 62.812 29.993 19.426 52.515 18.901 81.75 19.281 0.15343 0.09462 0.35417 0.11827 0.53125 0 30.618-0.03434 53.486-1.238 81.75-19.281 24.573-14.323 45.113-39.114 52.344-62.812 7.1102-17.485 9.4835-53.244 3.8125-82.344-19.112-125.77-29.41-285.55-50.938-410.97-14.492-69.847-79.064-175.99-87.156-176.56h-0.15625z" fill="url(#c)"/>
  <path transform="translate(-178.85 -7.5303)" d="m399.03 29.649c-8.0925 0.5713-72.664 106.72-87.156 176.56-21.528 125.42-31.826 285.19-50.938 410.97-5.671 29.099-3.2978 64.859 3.8125 82.344 7.2306 23.698 27.771 48.489 52.344 62.812 29.993 19.426 52.515 18.901 81.75 19.281 0.15343 0.09462 0.35417 0.11827 0.53125 0 30.618-0.03434 53.486-1.238 81.75-19.281 24.573-14.323 45.113-39.114 52.344-62.812 7.1102-17.485 9.4835-53.244 3.8125-82.344-19.112-125.77-29.41-285.55-50.938-410.97-14.492-69.847-79.064-175.99-87.156-176.56h-0.15625z" fill="url(#a)"/>
  <path d="m190.56 772.75-9.7812 223.44h84.875l-14.875-223.44h-60.219z" fill="url(#b)"/>
 </g>
 <g transform="matrix(.06633 -.01588 .00524 .02189 421.12 343.66)" fill-rule="evenodd">
  <path transform="translate(-178.85 -7.5303)" d="m399.03 31.531c-8.0925 0.5713-72.664 106.72-87.156 176.56-21.528 125.42-31.826 285.19-50.938 410.97-5.671 29.099-3.2978 64.859 3.8125 82.344 7.2306 23.698 27.771 48.489 52.344 62.812 29.993 19.426 52.515 18.901 81.75 19.281 0.15343 0.09462 0.35417 0.11827 0.53125 0 30.618-0.03434 53.486-1.238 81.75-19.281 24.573-14.323 45.113-39.114 52.344-62.812 7.1102-17.485 9.4835-53.244 3.8125-82.344-19.112-125.77-29.41-285.55-50.938-410.97-14.492-69.847-79.064-175.99-87.156-176.56h-0.15625z" fill="url(#c)"/>
  <path transform="translate(-178.85 -7.5303)" d="m399.03 29.649c-8.0925 0.5713-72.664 106.72-87.156 176.56-21.528 125.42-31.826 285.19-50.938 410.97-5.671 29.099-3.2978 64.859 3.8125 82.344 7.2306 23.698 27.771 48.489 52.344 62.812 29.993 19.426 52.515 18.901 81.75 19.281 0.15343 0.09462 0.35417 0.11827 0.53125 0 30.618-0.03434 53.486-1.238 81.75-19.281 24.573-14.323 45.113-39.114 52.344-62.812 7.1102-17.485 9.4835-53.244 3.8125-82.344-19.112-125.77-29.41-285.55-50.938-410.97-14.492-69.847-79.064-175.99-87.156-176.56h-0.15625z" fill="url(#a)"/>
  <path d="m190.56 772.75-9.7812 223.44h84.875l-14.875-223.44h-60.219z" fill="url(#b)"/>
 </g>
 <g transform="matrix(.0789 -.02104 .00623 .02901 410.57 358.98)" fill-rule="evenodd">
  <path transform="translate(-178.85 -7.5303)" d="m399.03 31.531c-8.0925 0.5713-72.664 106.72-87.156 176.56-21.528 125.42-31.826 285.19-50.938 410.97-5.671 29.099-3.2978 64.859 3.8125 82.344 7.2306 23.698 27.771 48.489 52.344 62.812 29.993 19.426 52.515 18.901 81.75 19.281 0.15343 0.09462 0.35417 0.11827 0.53125 0 30.618-0.03434 53.486-1.238 81.75-19.281 24.573-14.323 45.113-39.114 52.344-62.812 7.1102-17.485 9.4835-53.244 3.8125-82.344-19.112-125.77-29.41-285.55-50.938-410.97-14.492-69.847-79.064-175.99-87.156-176.56h-0.15625z" fill="url(#c)"/>
  <path transform="translate(-178.85 -7.5303)" d="m399.03 29.649c-8.0925 0.5713-72.664 106.72-87.156 176.56-21.528 125.42-31.826 285.19-50.938 410.97-5.671 29.099-3.2978 64.859 3.8125 82.344 7.2306 23.698 27.771 48.489 52.344 62.812 29.993 19.426 52.515 18.901 81.75 19.281 0.15343 0.09462 0.35417 0.11827 0.53125 0 30.618-0.03434 53.486-1.238 81.75-19.281 24.573-14.323 45.113-39.114 52.344-62.812 7.1102-17.485 9.4835-53.244 3.8125-82.344-19.112-125.77-29.41-285.55-50.938-410.97-14.492-69.847-79.064-175.99-87.156-176.56h-0.15625z" fill="url(#a)"/>
  <path d="m190.56 772.75-9.7812 223.44h84.875l-14.875-223.44h-60.219z" fill="url(#b)"/>
 </g>
 <g transform="matrix(.07796 -.0263 .0102 .02508 430.04 347.11)" fill-rule="evenodd">
  <path transform="translate(-178.85 -7.5303)" d="m399.03 31.531c-8.0925 0.5713-72.664 106.72-87.156 176.56-21.528 125.42-31.826 285.19-50.938 410.97-5.671 29.099-3.2978 64.859 3.8125 82.344 7.2306 23.698 27.771 48.489 52.344 62.812 29.993 19.426 52.515 18.901 81.75 19.281 0.15343 0.09462 0.35417 0.11827 0.53125 0 30.618-0.03434 53.486-1.238 81.75-19.281 24.573-14.323 45.113-39.114 52.344-62.812 7.1102-17.485 9.4835-53.244 3.8125-82.344-19.112-125.77-29.41-285.55-50.938-410.97-14.492-69.847-79.064-175.99-87.156-176.56h-0.15625z" fill="url(#c)"/>
  <path transform="translate(-178.85 -7.5303)" d="m399.03 29.649c-8.0925 0.5713-72.664 106.72-87.156 176.56-21.528 125.42-31.826 285.19-50.938 410.97-5.671 29.099-3.2978 64.859 3.8125 82.344 7.2306 23.698 27.771 48.489 52.344 62.812 29.993 19.426 52.515 18.901 81.75 19.281 0.15343 0.09462 0.35417 0.11827 0.53125 0 30.618-0.03434 53.486-1.238 81.75-19.281 24.573-14.323 45.113-39.114 52.344-62.812 7.1102-17.485 9.4835-53.244 3.8125-82.344-19.112-125.77-29.41-285.55-50.938-410.97-14.492-69.847-79.064-175.99-87.156-176.56h-0.15625z" fill="url(#a)"/>
  <path d="m190.56 772.75-9.7812 223.44h84.875l-14.875-223.44h-60.219z" fill="url(#b)"/>
 </g>
 <g transform="matrix(.078902 -.02104 .0062334 .029014 446.99 353.98)" fill-rule="evenodd">
  <path transform="translate(-178.85 -7.5303)" d="m399.03 31.531c-8.0925 0.5713-72.664 106.72-87.156 176.56-21.528 125.42-31.826 285.19-50.938 410.97-5.671 29.099-3.2978 64.859 3.8125 82.344 7.2306 23.698 27.771 48.489 52.344 62.812 29.993 19.426 52.515 18.901 81.75 19.281 0.15343 0.09462 0.35417 0.11827 0.53125 0 30.618-0.03434 53.486-1.238 81.75-19.281 24.573-14.323 45.113-39.114 52.344-62.812 7.1102-17.485 9.4835-53.244 3.8125-82.344-19.112-125.77-29.41-285.55-50.938-410.97-14.492-69.847-79.064-175.99-87.156-176.56h-0.15625z" fill="url(#c)"/>
  <path transform="translate(-178.85 -7.5303)" d="m399.03 29.649c-8.0925 0.5713-72.664 106.72-87.156 176.56-21.528 125.42-31.826 285.19-50.938 410.97-5.671 29.099-3.2978 64.859 3.8125 82.344 7.2306 23.698 27.771 48.489 52.344 62.812 29.993 19.426 52.515 18.901 81.75 19.281 0.15343 0.09462 0.35417 0.11827 0.53125 0 30.618-0.03434 53.486-1.238 81.75-19.281 24.573-14.323 45.113-39.114 52.344-62.812 7.1102-17.485 9.4835-53.244 3.8125-82.344-19.112-125.77-29.41-285.55-50.938-410.97-14.492-69.847-79.064-175.99-87.156-176.56h-0.15625z" fill="url(#a)"/>
  <path d="m190.56 772.75-9.7812 223.44h84.875l-14.875-223.44h-60.219z" fill="url(#b)"/>
 </g>
 <g transform="matrix(.06633 -.015876 .0052402 .021893 469.69 287.95)" fill-rule="evenodd">
  <path transform="translate(-178.85 -7.5303)" d="m399.03 31.531c-8.0925 0.5713-72.664 106.72-87.156 176.56-21.528 125.42-31.826 285.19-50.938 410.97-5.671 29.099-3.2978 64.859 3.8125 82.344 7.2306 23.698 27.771 48.489 52.344 62.812 29.993 19.426 52.515 18.901 81.75 19.281 0.15343 0.09462 0.35417 0.11827 0.53125 0 30.618-0.03434 53.486-1.238 81.75-19.281 24.573-14.323 45.113-39.114 52.344-62.812 7.1102-17.485 9.4835-53.244 3.8125-82.344-19.112-125.77-29.41-285.55-50.938-410.97-14.492-69.847-79.064-175.99-87.156-176.56h-0.15625z" fill="url(#c)"/>
  <path transform="translate(-178.85 -7.5303)" d="m399.03 29.649c-8.0925 0.5713-72.664 106.72-87.156 176.56-21.528 125.42-31.826 285.19-50.938 410.97-5.671 29.099-3.2978 64.859 3.8125 82.344 7.2306 23.698 27.771 48.489 52.344 62.812 29.993 19.426 52.515 18.901 81.75 19.281 0.15343 0.09462 0.35417 0.11827 0.53125 0 30.618-0.03434 53.486-1.238 81.75-19.281 24.573-14.323 45.113-39.114 52.344-62.812 7.1102-17.485 9.4835-53.244 3.8125-82.344-19.112-125.77-29.41-285.55-50.938-410.97-14.492-69.847-79.064-175.99-87.156-176.56h-0.15625z" fill="url(#a)"/>
  <path d="m190.56 772.75-9.7812 223.44h84.875l-14.875-223.44h-60.219z" fill="url(#b)"/>
 </g>
 <g transform="matrix(.078902 -.02104 .0062334 .029014 459.14 303.27)" fill-rule="evenodd">
  <path transform="translate(-178.85 -7.5303)" d="m399.03 31.531c-8.0925 0.5713-72.664 106.72-87.156 176.56-21.528 125.42-31.826 285.19-50.938 410.97-5.671 29.099-3.2978 64.859 3.8125 82.344 7.2306 23.698 27.771 48.489 52.344 62.812 29.993 19.426 52.515 18.901 81.75 19.281 0.15343 0.09462 0.35417 0.11827 0.53125 0 30.618-0.03434 53.486-1.238 81.75-19.281 24.573-14.323 45.113-39.114 52.344-62.812 7.1102-17.485 9.4835-53.244 3.8125-82.344-19.112-125.77-29.41-285.55-50.938-410.97-14.492-69.847-79.064-175.99-87.156-176.56h-0.15625z" fill="url(#c)"/>
  <path transform="translate(-178.85 -7.5303)" d="m399.03 29.649c-8.0925 0.5713-72.664 106.72-87.156 176.56-21.528 125.42-31.826 285.19-50.938 410.97-5.671 29.099-3.2978 64.859 3.8125 82.344 7.2306 23.698 27.771 48.489 52.344 62.812 29.993 19.426 52.515 18.901 81.75 19.281 0.15343 0.09462 0.35417 0.11827 0.53125 0 30.618-0.03434 53.486-1.238 81.75-19.281 24.573-14.323 45.113-39.114 52.344-62.812 7.1102-17.485 9.4835-53.244 3.8125-82.344-19.112-125.77-29.41-285.55-50.938-410.97-14.492-69.847-79.064-175.99-87.156-176.56h-0.15625z" fill="url(#a)"/>
  <path d="m190.56 772.75-9.7812 223.44h84.875l-14.875-223.44h-60.219z" fill="url(#b)"/>
 </g>
 <g transform="matrix(.077959 -.026302 .010202 .025083 478.61 291.39)" fill-rule="evenodd">
  <path transform="translate(-178.85 -7.5303)" d="m399.03 31.531c-8.0925 0.5713-72.664 106.72-87.156 176.56-21.528 125.42-31.826 285.19-50.938 410.97-5.671 29.099-3.2978 64.859 3.8125 82.344 7.2306 23.698 27.771 48.489 52.344 62.812 29.993 19.426 52.515 18.901 81.75 19.281 0.15343 0.09462 0.35417 0.11827 0.53125 0 30.618-0.03434 53.486-1.238 81.75-19.281 24.573-14.323 45.113-39.114 52.344-62.812 7.1102-17.485 9.4835-53.244 3.8125-82.344-19.112-125.77-29.41-285.55-50.938-410.97-14.492-69.847-79.064-175.99-87.156-176.56h-0.15625z" fill="url(#c)"/>
  <path transform="translate(-178.85 -7.5303)" d="m399.03 29.649c-8.0925 0.5713-72.664 106.72-87.156 176.56-21.528 125.42-31.826 285.19-50.938 410.97-5.671 29.099-3.2978 64.859 3.8125 82.344 7.2306 23.698 27.771 48.489 52.344 62.812 29.993 19.426 52.515 18.901 81.75 19.281 0.15343 0.09462 0.35417 0.11827 0.53125 0 30.618-0.03434 53.486-1.238 81.75-19.281 24.573-14.323 45.113-39.114 52.344-62.812 7.1102-17.485 9.4835-53.244 3.8125-82.344-19.112-125.77-29.41-285.55-50.938-410.97-14.492-69.847-79.064-175.99-87.156-176.56h-0.15625z" fill="url(#a)"/>
  <path d="m190.56 772.75-9.7812 223.44h84.875l-14.875-223.44h-60.219z" fill="url(#b)"/>
 </g>
 <g transform="matrix(.077959 -.026302 .010202 .025083 466.47 342.11)" fill-rule="evenodd">
  <path transform="translate(-178.85 -7.5303)" d="m399.03 31.531c-8.0925 0.5713-72.664 106.72-87.156 176.56-21.528 125.42-31.826 285.19-50.938 410.97-5.671 29.099-3.2978 64.859 3.8125 82.344 7.2306 23.698 27.771 48.489 52.344 62.812 29.993 19.426 52.515 18.901 81.75 19.281 0.15343 0.09462 0.35417 0.11827 0.53125 0 30.618-0.03434 53.486-1.238 81.75-19.281 24.573-14.323 45.113-39.114 52.344-62.812 7.1102-17.485 9.4835-53.244 3.8125-82.344-19.112-125.77-29.41-285.55-50.938-410.97-14.492-69.847-79.064-175.99-87.156-176.56h-0.15625z" fill="url(#c)"/>
  <path transform="translate(-178.85 -7.5303)" d="m399.03 29.649c-8.0925 0.5713-72.664 106.72-87.156 176.56-21.528 125.42-31.826 285.19-50.938 410.97-5.671 29.099-3.2978 64.859 3.8125 82.344 7.2306 23.698 27.771 48.489 52.344 62.812 29.993 19.426 52.515 18.901 81.75 19.281 0.15343 0.09462 0.35417 0.11827 0.53125 0 30.618-0.03434 53.486-1.238 81.75-19.281 24.573-14.323 45.113-39.114 52.344-62.812 7.1102-17.485 9.4835-53.244 3.8125-82.344-19.112-125.77-29.41-285.55-50.938-410.97-14.492-69.847-79.064-175.99-87.156-176.56h-0.15625z" fill="url(#a)"/>
  <path d="m190.56 772.75-9.7812 223.44h84.875l-14.875-223.44h-60.219z" fill="url(#b)"/>
 </g>
 <g transform="matrix(.06633 -.015876 .0052402 .021893 481.12 350.09)" fill-rule="evenodd">
  <path transform="translate(-178.85 -7.5303)" d="m399.03 31.531c-8.0925 0.5713-72.664 106.72-87.156 176.56-21.528 125.42-31.826 285.19-50.938 410.97-5.671 29.099-3.2978 64.859 3.8125 82.344 7.2306 23.698 27.771 48.489 52.344 62.812 29.993 19.426 52.515 18.901 81.75 19.281 0.15343 0.09462 0.35417 0.11827 0.53125 0 30.618-0.03434 53.486-1.238 81.75-19.281 24.573-14.323 45.113-39.114 52.344-62.812 7.1102-17.485 9.4835-53.244 3.8125-82.344-19.112-125.77-29.41-285.55-50.938-410.97-14.492-69.847-79.064-175.99-87.156-176.56h-0.15625z" fill="url(#c)"/>
  <path transform="translate(-178.85 -7.5303)" d="m399.03 29.649c-8.0925 0.5713-72.664 106.72-87.156 176.56-21.528 125.42-31.826 285.19-50.938 410.97-5.671 29.099-3.2978 64.859 3.8125 82.344 7.2306 23.698 27.771 48.489 52.344 62.812 29.993 19.426 52.515 18.901 81.75 19.281 0.15343 0.09462 0.35417 0.11827 0.53125 0 30.618-0.03434 53.486-1.238 81.75-19.281 24.573-14.323 45.113-39.114 52.344-62.812 7.1102-17.485 9.4835-53.244 3.8125-82.344-19.112-125.77-29.41-285.55-50.938-410.97-14.492-69.847-79.064-175.99-87.156-176.56h-0.15625z" fill="url(#a)"/>
  <path d="m190.56 772.75-9.7812 223.44h84.875l-14.875-223.44h-60.219z" fill="url(#b)"/>
 </g>
 <g transform="matrix(.078902 -.02104 .0062334 .029014 470.57 365.41)" fill-rule="evenodd">
  <path transform="translate(-178.85 -7.5303)" d="m399.03 31.531c-8.0925 0.5713-72.664 106.72-87.156 176.56-21.528 125.42-31.826 285.19-50.938 410.97-5.671 29.099-3.2978 64.859 3.8125 82.344 7.2306 23.698 27.771 48.489 52.344 62.812 29.993 19.426 52.515 18.901 81.75 19.281 0.15343 0.09462 0.35417 0.11827 0.53125 0 30.618-0.03434 53.486-1.238 81.75-19.281 24.573-14.323 45.113-39.114 52.344-62.812 7.1102-17.485 9.4835-53.244 3.8125-82.344-19.112-125.77-29.41-285.55-50.938-410.97-14.492-69.847-79.064-175.99-87.156-176.56h-0.15625z" fill="url(#c)"/>
  <path transform="translate(-178.85 -7.5303)" d="m399.03 29.649c-8.0925 0.5713-72.664 106.72-87.156 176.56-21.528 125.42-31.826 285.19-50.938 410.97-5.671 29.099-3.2978 64.859 3.8125 82.344 7.2306 23.698 27.771 48.489 52.344 62.812 29.993 19.426 52.515 18.901 81.75 19.281 0.15343 0.09462 0.35417 0.11827 0.53125 0 30.618-0.03434 53.486-1.238 81.75-19.281 24.573-14.323 45.113-39.114 52.344-62.812 7.1102-17.485 9.4835-53.244 3.8125-82.344-19.112-125.77-29.41-285.55-50.938-410.97-14.492-69.847-79.064-175.99-87.156-176.56h-0.15625z" fill="url(#a)"/>
  <path d="m190.56 772.75-9.7812 223.44h84.875l-14.875-223.44h-60.219z" fill="url(#b)"/>
 </g>
 <g transform="matrix(.077959 -.026302 .010202 .025083 490.04 353.53)" fill-rule="evenodd">
  <path transform="translate(-178.85 -7.5303)" d="m399.03 31.531c-8.0925 0.5713-72.664 106.72-87.156 176.56-21.528 125.42-31.826 285.19-50.938 410.97-5.671 29.099-3.2978 64.859 3.8125 82.344 7.2306 23.698 27.771 48.489 52.344 62.812 29.993 19.426 52.515 18.901 81.75 19.281 0.15343 0.09462 0.35417 0.11827 0.53125 0 30.618-0.03434 53.486-1.238 81.75-19.281 24.573-14.323 45.113-39.114 52.344-62.812 7.1102-17.485 9.4835-53.244 3.8125-82.344-19.112-125.77-29.41-285.55-50.938-410.97-14.492-69.847-79.064-175.99-87.156-176.56h-0.15625z" fill="url(#c)"/>
  <path transform="translate(-178.85 -7.5303)" d="m399.03 29.649c-8.0925 0.5713-72.664 106.72-87.156 176.56-21.528 125.42-31.826 285.19-50.938 410.97-5.671 29.099-3.2978 64.859 3.8125 82.344 7.2306 23.698 27.771 48.489 52.344 62.812 29.993 19.426 52.515 18.901 81.75 19.281 0.15343 0.09462 0.35417 0.11827 0.53125 0 30.618-0.03434 53.486-1.238 81.75-19.281 24.573-14.323 45.113-39.114 52.344-62.812 7.1102-17.485 9.4835-53.244 3.8125-82.344-19.112-125.77-29.41-285.55-50.938-410.97-14.492-69.847-79.064-175.99-87.156-176.56h-0.15625z" fill="url(#a)"/>
  <path d="m190.56 772.75-9.7812 223.44h84.875l-14.875-223.44h-60.219z" fill="url(#b)"/>
 </g>
 <g transform="matrix(.06633 -.01588 .00524 .02189 312.93 78.02)" fill-rule="evenodd">
  <path transform="translate(-178.85 -7.5303)" d="m399.03 31.531c-8.0925 0.5713-72.664 106.72-87.156 176.56-21.528 125.42-31.826 285.19-50.938 410.97-5.671 29.099-3.2978 64.859 3.8125 82.344 7.2306 23.698 27.771 48.489 52.344 62.812 29.993 19.426 52.515 18.901 81.75 19.281 0.15343 0.09462 0.35417 0.11827 0.53125 0 30.618-0.03434 53.486-1.238 81.75-19.281 24.573-14.323 45.113-39.114 52.344-62.812 7.1102-17.485 9.4835-53.244 3.8125-82.344-19.112-125.77-29.41-285.55-50.938-410.97-14.492-69.847-79.064-175.99-87.156-176.56h-0.15625z" fill="url(#c)"/>
  <path transform="translate(-178.85 -7.5303)" d="m399.03 29.649c-8.0925 0.5713-72.664 106.72-87.156 176.56-21.528 125.42-31.826 285.19-50.938 410.97-5.671 29.099-3.2978 64.859 3.8125 82.344 7.2306 23.698 27.771 48.489 52.344 62.812 29.993 19.426 52.515 18.901 81.75 19.281 0.15343 0.09462 0.35417 0.11827 0.53125 0 30.618-0.03434 53.486-1.238 81.75-19.281 24.573-14.323 45.113-39.114 52.344-62.812 7.1102-17.485 9.4835-53.244 3.8125-82.344-19.112-125.77-29.41-285.55-50.938-410.97-14.492-69.847-79.064-175.99-87.156-176.56h-0.15625z" fill="url(#a)"/>
  <path d="m190.56 772.75-9.7812 223.44h84.875l-14.875-223.44h-60.219z" fill="url(#b)"/>
 </g>
 <g transform="matrix(.0789 -.02104 .00623 .02901 302.37 93.336)" fill-rule="evenodd">
  <path transform="translate(-178.85 -7.5303)" d="m399.03 31.531c-8.0925 0.5713-72.664 106.72-87.156 176.56-21.528 125.42-31.826 285.19-50.938 410.97-5.671 29.099-3.2978 64.859 3.8125 82.344 7.2306 23.698 27.771 48.489 52.344 62.812 29.993 19.426 52.515 18.901 81.75 19.281 0.15343 0.09462 0.35417 0.11827 0.53125 0 30.618-0.03434 53.486-1.238 81.75-19.281 24.573-14.323 45.113-39.114 52.344-62.812 7.1102-17.485 9.4835-53.244 3.8125-82.344-19.112-125.77-29.41-285.55-50.938-410.97-14.492-69.847-79.064-175.99-87.156-176.56h-0.15625z" fill="url(#c)"/>
  <path transform="translate(-178.85 -7.5303)" d="m399.03 29.649c-8.0925 0.5713-72.664 106.72-87.156 176.56-21.528 125.42-31.826 285.19-50.938 410.97-5.671 29.099-3.2978 64.859 3.8125 82.344 7.2306 23.698 27.771 48.489 52.344 62.812 29.993 19.426 52.515 18.901 81.75 19.281 0.15343 0.09462 0.35417 0.11827 0.53125 0 30.618-0.03434 53.486-1.238 81.75-19.281 24.573-14.323 45.113-39.114 52.344-62.812 7.1102-17.485 9.4835-53.244 3.8125-82.344-19.112-125.77-29.41-285.55-50.938-410.97-14.492-69.847-79.064-175.99-87.156-176.56h-0.15625z" fill="url(#a)"/>
  <path d="m190.56 772.75-9.7812 223.44h84.875l-14.875-223.44h-60.219z" fill="url(#b)"/>
 </g>
 <g transform="matrix(.07796 -.0263 .0102 .02508 321.84 81.461)" fill-rule="evenodd">
  <path transform="translate(-178.85 -7.5303)" d="m399.03 31.531c-8.0925 0.5713-72.664 106.72-87.156 176.56-21.528 125.42-31.826 285.19-50.938 410.97-5.671 29.099-3.2978 64.859 3.8125 82.344 7.2306 23.698 27.771 48.489 52.344 62.812 29.993 19.426 52.515 18.901 81.75 19.281 0.15343 0.09462 0.35417 0.11827 0.53125 0 30.618-0.03434 53.486-1.238 81.75-19.281 24.573-14.323 45.113-39.114 52.344-62.812 7.1102-17.485 9.4835-53.244 3.8125-82.344-19.112-125.77-29.41-285.55-50.938-410.97-14.492-69.847-79.064-175.99-87.156-176.56h-0.15625z" fill="url(#c)"/>
  <path transform="translate(-178.85 -7.5303)" d="m399.03 29.649c-8.0925 0.5713-72.664 106.72-87.156 176.56-21.528 125.42-31.826 285.19-50.938 410.97-5.671 29.099-3.2978 64.859 3.8125 82.344 7.2306 23.698 27.771 48.489 52.344 62.812 29.993 19.426 52.515 18.901 81.75 19.281 0.15343 0.09462 0.35417 0.11827 0.53125 0 30.618-0.03434 53.486-1.238 81.75-19.281 24.573-14.323 45.113-39.114 52.344-62.812 7.1102-17.485 9.4835-53.244 3.8125-82.344-19.112-125.77-29.41-285.55-50.938-410.97-14.492-69.847-79.064-175.99-87.156-176.56h-0.15625z" fill="url(#a)"/>
  <path d="m190.56 772.75-9.7812 223.44h84.875l-14.875-223.44h-60.219z" fill="url(#b)"/>
 </g>
 <g transform="matrix(.06633 -.01588 .00524 .02189 345.2 63.591)" fill-rule="evenodd">
  <path transform="translate(-178.85 -7.5303)" d="m399.03 31.531c-8.0925 0.5713-72.664 106.72-87.156 176.56-21.528 125.42-31.826 285.19-50.938 410.97-5.671 29.099-3.2978 64.859 3.8125 82.344 7.2306 23.698 27.771 48.489 52.344 62.812 29.993 19.426 52.515 18.901 81.75 19.281 0.15343 0.09462 0.35417 0.11827 0.53125 0 30.618-0.03434 53.486-1.238 81.75-19.281 24.573-14.323 45.113-39.114 52.344-62.812 7.1102-17.485 9.4835-53.244 3.8125-82.344-19.112-125.77-29.41-285.55-50.938-410.97-14.492-69.847-79.064-175.99-87.156-176.56h-0.15625z" fill="url(#c)"/>
  <path transform="translate(-178.85 -7.5303)" d="m399.03 29.649c-8.0925 0.5713-72.664 106.72-87.156 176.56-21.528 125.42-31.826 285.19-50.938 410.97-5.671 29.099-3.2978 64.859 3.8125 82.344 7.2306 23.698 27.771 48.489 52.344 62.812 29.993 19.426 52.515 18.901 81.75 19.281 0.15343 0.09462 0.35417 0.11827 0.53125 0 30.618-0.03434 53.486-1.238 81.75-19.281 24.573-14.323 45.113-39.114 52.344-62.812 7.1102-17.485 9.4835-53.244 3.8125-82.344-19.112-125.77-29.41-285.55-50.938-410.97-14.492-69.847-79.064-175.99-87.156-176.56h-0.15625z" fill="url(#a)"/>
  <path d="m190.56 772.75-9.7812 223.44h84.875l-14.875-223.44h-60.219z" fill="url(#b)"/>
 </g>
 <g transform="matrix(.0789 -.02104 .00623 .02901 334.65 78.907)" fill-rule="evenodd">
  <path transform="translate(-178.85 -7.5303)" d="m399.03 31.531c-8.0925 0.5713-72.664 106.72-87.156 176.56-21.528 125.42-31.826 285.19-50.938 410.97-5.671 29.099-3.2978 64.859 3.8125 82.344 7.2306 23.698 27.771 48.489 52.344 62.812 29.993 19.426 52.515 18.901 81.75 19.281 0.15343 0.09462 0.35417 0.11827 0.53125 0 30.618-0.03434 53.486-1.238 81.75-19.281 24.573-14.323 45.113-39.114 52.344-62.812 7.1102-17.485 9.4835-53.244 3.8125-82.344-19.112-125.77-29.41-285.55-50.938-410.97-14.492-69.847-79.064-175.99-87.156-176.56h-0.15625z" fill="url(#c)"/>
  <path transform="translate(-178.85 -7.5303)" d="m399.03 29.649c-8.0925 0.5713-72.664 106.72-87.156 176.56-21.528 125.42-31.826 285.19-50.938 410.97-5.671 29.099-3.2978 64.859 3.8125 82.344 7.2306 23.698 27.771 48.489 52.344 62.812 29.993 19.426 52.515 18.901 81.75 19.281 0.15343 0.09462 0.35417 0.11827 0.53125 0 30.618-0.03434 53.486-1.238 81.75-19.281 24.573-14.323 45.113-39.114 52.344-62.812 7.1102-17.485 9.4835-53.244 3.8125-82.344-19.112-125.77-29.41-285.55-50.938-410.97-14.492-69.847-79.064-175.99-87.156-176.56h-0.15625z" fill="url(#a)"/>
  <path d="m190.56 772.75-9.7812 223.44h84.875l-14.875-223.44h-60.219z" fill="url(#b)"/>
 </g>
 <g transform="matrix(.07796 -.0263 .0102 .02508 354.12 67.032)" fill-rule="evenodd">
  <path transform="translate(-178.85 -7.5303)" d="m399.03 31.531c-8.0925 0.5713-72.664 106.72-87.156 176.56-21.528 125.42-31.826 285.19-50.938 410.97-5.671 29.099-3.2978 64.859 3.8125 82.344 7.2306 23.698 27.771 48.489 52.344 62.812 29.993 19.426 52.515 18.901 81.75 19.281 0.15343 0.09462 0.35417 0.11827 0.53125 0 30.618-0.03434 53.486-1.238 81.75-19.281 24.573-14.323 45.113-39.114 52.344-62.812 7.1102-17.485 9.4835-53.244 3.8125-82.344-19.112-125.77-29.41-285.55-50.938-410.97-14.492-69.847-79.064-175.99-87.156-176.56h-0.15625z" fill="url(#c)"/>
  <path transform="translate(-178.85 -7.5303)" d="m399.03 29.649c-8.0925 0.5713-72.664 106.72-87.156 176.56-21.528 125.42-31.826 285.19-50.938 410.97-5.671 29.099-3.2978 64.859 3.8125 82.344 7.2306 23.698 27.771 48.489 52.344 62.812 29.993 19.426 52.515 18.901 81.75 19.281 0.15343 0.09462 0.35417 0.11827 0.53125 0 30.618-0.03434 53.486-1.238 81.75-19.281 24.573-14.323 45.113-39.114 52.344-62.812 7.1102-17.485 9.4835-53.244 3.8125-82.344-19.112-125.77-29.41-285.55-50.938-410.97-14.492-69.847-79.064-175.99-87.156-176.56h-0.15625z" fill="url(#a)"/>
  <path d="m190.56 772.75-9.7812 223.44h84.875l-14.875-223.44h-60.219z" fill="url(#b)"/>
 </g>
 <g transform="matrix(.078902 -.02104 .0062334 .029014 372.14 63.082)" fill-rule="evenodd">
  <path transform="translate(-178.85 -7.5303)" d="m399.03 31.531c-8.0925 0.5713-72.664 106.72-87.156 176.56-21.528 125.42-31.826 285.19-50.938 410.97-5.671 29.099-3.2978 64.859 3.8125 82.344 7.2306 23.698 27.771 48.489 52.344 62.812 29.993 19.426 52.515 18.901 81.75 19.281 0.15343 0.09462 0.35417 0.11827 0.53125 0 30.618-0.03434 53.486-1.238 81.75-19.281 24.573-14.323 45.113-39.114 52.344-62.812 7.1102-17.485 9.4835-53.244 3.8125-82.344-19.112-125.77-29.41-285.55-50.938-410.97-14.492-69.847-79.064-175.99-87.156-176.56h-0.15625z" fill="url(#c)"/>
  <path transform="translate(-178.85 -7.5303)" d="m399.03 29.649c-8.0925 0.5713-72.664 106.72-87.156 176.56-21.528 125.42-31.826 285.19-50.938 410.97-5.671 29.099-3.2978 64.859 3.8125 82.344 7.2306 23.698 27.771 48.489 52.344 62.812 29.993 19.426 52.515 18.901 81.75 19.281 0.15343 0.09462 0.35417 0.11827 0.53125 0 30.618-0.03434 53.486-1.238 81.75-19.281 24.573-14.323 45.113-39.114 52.344-62.812 7.1102-17.485 9.4835-53.244 3.8125-82.344-19.112-125.77-29.41-285.55-50.938-410.97-14.492-69.847-79.064-175.99-87.156-176.56h-0.15625z" fill="url(#a)"/>
  <path d="m190.56 772.75-9.7812 223.44h84.875l-14.875-223.44h-60.219z" fill="url(#b)"/>
 </g>
 <g transform="matrix(.077959 -.026302 .010202 .025083 389.59 77.471)" fill-rule="evenodd">
  <path transform="translate(-178.85 -7.5303)" d="m399.03 31.531c-8.0925 0.5713-72.664 106.72-87.156 176.56-21.528 125.42-31.826 285.19-50.938 410.97-5.671 29.099-3.2978 64.859 3.8125 82.344 7.2306 23.698 27.771 48.489 52.344 62.812 29.993 19.426 52.515 18.901 81.75 19.281 0.15343 0.09462 0.35417 0.11827 0.53125 0 30.618-0.03434 53.486-1.238 81.75-19.281 24.573-14.323 45.113-39.114 52.344-62.812 7.1102-17.485 9.4835-53.244 3.8125-82.344-19.112-125.77-29.41-285.55-50.938-410.97-14.492-69.847-79.064-175.99-87.156-176.56h-0.15625z" fill="url(#c)"/>
  <path transform="translate(-178.85 -7.5303)" d="m399.03 29.649c-8.0925 0.5713-72.664 106.72-87.156 176.56-21.528 125.42-31.826 285.19-50.938 410.97-5.671 29.099-3.2978 64.859 3.8125 82.344 7.2306 23.698 27.771 48.489 52.344 62.812 29.993 19.426 52.515 18.901 81.75 19.281 0.15343 0.09462 0.35417 0.11827 0.53125 0 30.618-0.03434 53.486-1.238 81.75-19.281 24.573-14.323 45.113-39.114 52.344-62.812 7.1102-17.485 9.4835-53.244 3.8125-82.344-19.112-125.77-29.41-285.55-50.938-410.97-14.492-69.847-79.064-175.99-87.156-176.56h-0.15625z" fill="url(#a)"/>
  <path d="m190.56 772.75-9.7812 223.44h84.875l-14.875-223.44h-60.219z" fill="url(#b)"/>
 </g>
 <g transform="matrix(.061141 -.030225 .0099764 .020181 198.87 146.23)" fill-rule="evenodd">
  <path transform="translate(-178.85 -7.5303)" d="m399.03 31.531c-8.0925 0.5713-72.664 106.72-87.156 176.56-21.528 125.42-31.826 285.19-50.938 410.97-5.671 29.099-3.2978 64.859 3.8125 82.344 7.2306 23.698 27.771 48.489 52.344 62.812 29.993 19.426 52.515 18.901 81.75 19.281 0.15343 0.09462 0.35417 0.11827 0.53125 0 30.618-0.03434 53.486-1.238 81.75-19.281 24.573-14.323 45.113-39.114 52.344-62.812 7.1102-17.485 9.4835-53.244 3.8125-82.344-19.112-125.77-29.41-285.55-50.938-410.97-14.492-69.847-79.064-175.99-87.156-176.56h-0.15625z" fill="url(#c)"/>
  <path transform="translate(-178.85 -7.5303)" d="m399.03 29.649c-8.0925 0.5713-72.664 106.72-87.156 176.56-21.528 125.42-31.826 285.19-50.938 410.97-5.671 29.099-3.2978 64.859 3.8125 82.344 7.2306 23.698 27.771 48.489 52.344 62.812 29.993 19.426 52.515 18.901 81.75 19.281 0.15343 0.09462 0.35417 0.11827 0.53125 0 30.618-0.03434 53.486-1.238 81.75-19.281 24.573-14.323 45.113-39.114 52.344-62.812 7.1102-17.485 9.4835-53.244 3.8125-82.344-19.112-125.77-29.41-285.55-50.938-410.97-14.492-69.847-79.064-175.99-87.156-176.56h-0.15625z" fill="url(#a)"/>
  <path d="m190.56 772.75-9.7812 223.44h84.875l-14.875-223.44h-60.219z" fill="url(#b)"/>
 </g>
 <g transform="matrix(.06633 -.015876 .0052402 .021893 361.48 82.111)" fill-rule="evenodd">
  <path transform="translate(-178.85 -7.5303)" d="m399.03 31.531c-8.0925 0.5713-72.664 106.72-87.156 176.56-21.528 125.42-31.826 285.19-50.938 410.97-5.671 29.099-3.2978 64.859 3.8125 82.344 7.2306 23.698 27.771 48.489 52.344 62.812 29.993 19.426 52.515 18.901 81.75 19.281 0.15343 0.09462 0.35417 0.11827 0.53125 0 30.618-0.03434 53.486-1.238 81.75-19.281 24.573-14.323 45.113-39.114 52.344-62.812 7.1102-17.485 9.4835-53.244 3.8125-82.344-19.112-125.77-29.41-285.55-50.938-410.97-14.492-69.847-79.064-175.99-87.156-176.56h-0.15625z" fill="url(#c)"/>
  <path transform="translate(-178.85 -7.5303)" d="m399.03 29.649c-8.0925 0.5713-72.664 106.72-87.156 176.56-21.528 125.42-31.826 285.19-50.938 410.97-5.671 29.099-3.2978 64.859 3.8125 82.344 7.2306 23.698 27.771 48.489 52.344 62.812 29.993 19.426 52.515 18.901 81.75 19.281 0.15343 0.09462 0.35417 0.11827 0.53125 0 30.618-0.03434 53.486-1.238 81.75-19.281 24.573-14.323 45.113-39.114 52.344-62.812 7.1102-17.485 9.4835-53.244 3.8125-82.344-19.112-125.77-29.41-285.55-50.938-410.97-14.492-69.847-79.064-175.99-87.156-176.56h-0.15625z" fill="url(#a)"/>
  <path d="m190.56 772.75-9.7812 223.44h84.875l-14.875-223.44h-60.219z" fill="url(#b)"/>
 </g>
 <path d="m102.86 246.65c41.786 23.929 64.423-27.097 115.71-18.571 30.081 5.0001 53.571 46.429 51.429 85.714-2.7316 50.078-28.476 79.411-14.286 111.43 18.308 41.308 65.985 33.691 104.29 14.286 26.786-13.571 31.708-70.46 42.857-102.86 15.789-45.879 36.518-76.895 65.714-78.571 74.643-4.2857 36.071 89.286 94.286 117.14" fill="none" stroke="#000" stroke-dasharray="14.525000,43.575000" stroke-linecap="round" stroke-linejoin="round" stroke-width="14.525"/>
 <path d="m342.86 330.22c-5-8.8095-14.495-17.137-12.857-25 1.9333-9.2798 13.156-21.51 23.571-26.429 15.299-7.2247 35.571-4.8099 51.429-11.429 11.524-4.8099 27.941-13.746 30.714-22.857 2.227-7.3173-10.202-17.792-15.714-26.429-8.773-13.744-25.811-27.841-27.143-40.714-0.81113-7.8409 12.065-17.627 20.714-21.429 13.018-5.7221 29.718-4.0472 44.286-7.1429 4.48-0.95199 10.087-2.8282 14.372-4.4949-0.71429-1.4286-0.35714-0.35714-1.0714-1.7857-4.0476 2.1429-10.329 2.5592-14.73 3.4235-8.9332 1.7547-18.832-0.48594-27.857 1.4286-14.546 3.0855-33.905 8.8838-38.571 18.571-8.6065 17.868 0.75494 22.969 7.1429 35 7.8978 14.874 31.292 28.566 31.429 40.714 0.1016 9.0426-19.328 17.586-30.714 22.857-14.328 6.6332-35.588 1.861-49.286 9.2857-11.779 6.3848-22.296 21.137-30 32.143-5.6292 8.0417 2.2619 17.976-3.5714 26.429" fill="#94b495" fill-rule="evenodd" stroke="#0078a7" stroke-linecap="round" stroke-linejoin="round" stroke-width="5.125"/>
</svg>
