<?xml version="1.0" encoding="UTF-8"?>
<svg enable-background="new 0 0 208.65 566.93" viewBox="0 0 208.65 566.93" xmlns="http://www.w3.org/2000/svg">
 <path d="m49.627,227.962c-.012-3.838.074-7.568.211-11.252-2.205-54.323 18.481-92.03 30.556-109.203 3.036-5.032 5.72-8.889 7.719-11.582 1.888-4.177 3.312-7.684 4.043-10.879 .539-2.37 1.532-6.329 2.711-10.904-.286-35.198 9.223-54.133 18.275-64.173l.186-.177c1.91-1.938 3.803-3.484 5.643-4.723l.127.02c4.244-2.638 7.812-3.86 10.555-4.4 2.484-.403 4.586-.336 6.109-.143 .934.198 1.848.394 2.717.582 95.305,27.83 63.256,75.063 63.256,75.063s2.529,5.902 6.75,19.398c3.379,52.29-45.545,42.167-45.545,42.167s.844-7.587.844-12.649-6.75.845-9.279.845c0,0 8.311,23.886 10.422,54.92 5.426,16.188 24.436,81.167-10.961,104.965l.168.086 .135.077 .324.223c5.51,4.043 7.375,10.75 5.113,18.408-1.984,6.694-7.314,13.993-13.277,14.324-1.832.11-3.27-.169-4.385-.629-1.836,1.533-3.869,2.535-5.982,2.652-4.84.279-6.904-2.104-7.707-3.55l-.566-2.257c0,0-.504,1.359-1.793,3.252-.41.65-.836,1.284-1.293,1.891l-.045-.104c-2.213,2.678-5.775,5.839-11.273,7.936 .127.776.275,1.572.459,2.381 13.697,89.76 15.23,231.01-25.997,236.795-57.284-20.012-38.368-182.514-28.166-248.517l.14-.416 2.307-15.372c-4.18-.596-13.207-2.088-18.918-4.495-14.517,3.858-35.918,8.359-42.418,3.487-6.057-4.403 23.832-32.943 48.835-74.047z" fill="#1a171b"/>
 <path d="m197.164,81.459c-10.75-.634-27.834.634-27.834.634s6.961,17.079-32.893,24.035c-1.262,6.328 6.328,10.757 6.328,10.757l15.178-1.268-2.529,3.794c0,0 23.406-6.956 19.609,13.284 0,.001 44.284-17.71 22.141-51.236zm-6.697,26.885c-4.221-10.545-7.383-10.014-.537-15.813 0-.001 5.279,6.324.537,15.813z" fill="#9b9c9e"/>
 <path d="m152.844,58.544c-12.637-1.805-14.393,16.595-2.387,20.114-1.467-.024-3.004-.106-4.684-.304-37.949-4.519-9.396-41.218 1.357-39.753 13.826,1.89 26.047,22.544 19.463,33.434-.203.353-.447.684-.672,1.03-.441.579-.916,1.152-1.492,1.66 3.671-5.564.43-14.465-11.585-16.181z" fill="#fdcc00"/>
 <path d="m153.54 63.558a2.665 2.665 0 1 0 -5.33 0 2.665 2.665 0 1 0 5.33 0" fill="#fff"/>
 <path d="m107.033,333.589-.037-4.055c-3.091.695-14.323,3.181-13.314-3.439 0,0 9.309-24.043-6.248-22.098-.011-.041-.022-.08-.031-.124-2.753.792-8.606,1.813-20.089,1.574-1.188,9.088-2.893,23.306-4.04,34.403-7.704,67.332-18.456,206.265 19.952,219.118-.486-21.368 1.216-104.319 4.051-113.637 2.961,15.578 4.663,90.304 5.1,111.849 11.459-9.66 40.42-51.36 14.879-218.689l-.223-4.902z" fill="#00519c"/>
 <path d="m107.033,333.589-.037-4.055c-3.091.695-14.323,3.181-13.314-3.439 0,0 3.592-9.285 2.58-15.847-6.474.046-13.154-.789-19.628-.887-4.059-.062-7.032.581-10.014,1.51-1.033,8.229-2.254,18.602-3.178,27.364 4.818-.032 6.806-1.039 11.634-2.203 4.049-.98 8.328-.466 12.512-.401 6.469.098 13.031.076 19.521-.377l-.076-1.665z" fill="#172982"/>
 <path d="m7.823,300.532c28.346-2.715 50.959-12.77 67.126-22.823 9.895-4.479 20.369-11.433 28.45-22.93l.568-.634-.062-.062c8.181-11.973 13.775-28.769 13.558-52.649-.631-69.581-5.695-74.643-26.568-93.621l-4.672-2.036c0,0-34.531,43.004-29.643,111.748 5.208-8.145 10.148-14.815 15.334-19.46-.839,9.7-6.437,18.886-6.437,18.886-14.634,29.186-37.263,56.39-57.654,83.581zm153.741-97.266c2.002,21.611 1.896,63.772-26.795,77.298l-.141.106c9.449,6.569 50.951.818 26.703-85.88 .001.001.228,3.236.233,8.476zm39.475-139.879v-.091c-.014-.574-.053-1.174-.094-1.779-.002-.094-.014-.191-.02-.292-.045-.597-.109-1.208-.18-1.833-.016-.1-.029-.203-.041-.302-.078-.654-.17-1.313-.287-1.99l-.018-.083c-.113-.674-.254-1.36-.408-2.054-.018-.08-.035-.159-.049-.24-.156-.685-.336-1.388-.537-2.096l-.1-.354c-.203-.71-.426-1.433-.672-2.161l-.102-.274c-.26-.759-.545-1.525-.859-2.298-.006-.009-.006-.015-.006-.02-.32-.774-.668-1.55-1.039-2.336-.049-.111-.102-.226-.152-.334-.367-.763-.766-1.525-1.184-2.293-.07-.12-.133-.246-.207-.365-.438-.789-.898-1.579-1.402-2.376-.037-.052-.074-.103-.102-.155-.506-.788-1.047-1.582-1.607-2.375l-.16-.223c-.574-.791-1.186-1.588-1.828-2.381l-.314-.385c-.645-.792-1.33-1.577-2.045-2.368-.1-.103-.203-.208-.299-.314-1.518-1.639-3.195-3.272-5.055-4.894-.113-.106-.24-.214-.359-.32-.908-.78-1.854-1.551-2.838-2.322-.158-.126-.322-.249-.486-.377-1.01-.774-2.059-1.551-3.16-2.316-.096-.069-.197-.134-.295-.203-1.113-.768-2.27-1.531-3.479-2.282-.08-.054-.156-.105-.236-.154-1.213-.757-2.486-1.502-3.799-2.242l-.629-.351c-1.305-.722-2.652-1.436-4.053-2.139-.207-.103-.416-.206-.625-.305-1.479-.731-2.992-1.454-4.586-2.162-4.707-2.102-9.941-4.092-15.711-5.951l.002-.009c0,0-4.285-1.949-8.814-2.607l-.264-.074-.045.026c-.252-.122-.49-.25-.736-.375-.795-.076-1.684-.096-2.609-.007 .178.078.352.158.533.234-2.203.053-4.24.6-5.609,2.073-4.729,5.094-31.533,27.213-22.412,69.226-1.271,5.827-5.012,21.642-5.012,21.642l.163.094-1.894,5.671c0,0 30.365,13.284 30.365,88.555 0,72.747-26.584,84.645-67.201,102.486-.485.598-.951,1.166-1.399,1.706 12.464-.652 28.546.032 43.969-5.748 50.432-9.021 57.758-55.865 53.752-97.236 .205-19.372-3.746-41.21-14.332-65.028 .006-.031.012-.06.014-.091-.102-.18-.182-.337-.285-.517-.205-.455-.395-.903-.602-1.354-.047,0-.133-.075-.203-.103-9.783-17.662-9.973-24.38-9.822-25.897 22.629,7.562 32.658-6.49 34.484-9.529 1.889-3.164-.641-8.223-.641-8.223s.057-.049.125-.115c2.822-2.461 4.305-3.592 4.875-4.009l31.115-1.576c.051.04.119.071.166.111 0,0 .008-.037.023-.094 .006-.011.006-.011.01-.025 .021-.065.053-.166.086-.292l.018-.062c.039-.137.08-.294.129-.485 .008-.021.012-.043.016-.066 .053-.185.104-.403.156-.642 .008-.023.008-.046.016-.066 .055-.246.115-.522.172-.819 .008-.052.02-.103.035-.155 .057-.302.113-.625.168-.965 .008-.06.014-.114.021-.174 .066-.369.121-.754.172-1.168 .004-.002.004-.011.004-.014 .053-.411.096-.848.145-1.302 .004-.061.01-.12.016-.18 .039-.446.074-.911.1-1.394 .006-.086.01-.168.018-.257 .021-.491.041-.999.051-1.527v-.191c.006-.536 0-1.09-.016-1.658zm-53.74,18.914c-34.482,0-27.357-51.328 0-47.121 29.883,4.597 34.484,47.121 0,47.121z" fill="#00519c"/>
 <path d="m122.525,103.667c.311-11.531 15.229-4.732 19.621-2.476-3.67.012-7.842-.617-12.57-2.196-.15,1.516.039,8.235 9.822,25.896 .07.028.156.103.203.103 .207.452.396.9.602,1.354 .104.18.184.337.285.517-.002.031-.008.06-.014.091 .416.935.805,1.862 1.199,2.791-11.607-1.89-19.476-13.982-19.148-26.08z" fill="#fdcc00"/>
 <path d="m10.605,315.641c1.108-6.233 6.712-5.984 12.904-7.728 10.003-2.802 20.33-3.445 30.331-6.231 8.203-2.29 12.277-4.985 20.707-4.854 8.181.124 16.671,1.354 24.745.84 7.742-.488 17.671-3.738 24.812-6.414 4.572-1.711 6.982-3.45 12.07-3.608 4.01-.135 8.115.126 12.123.183 10.109.162 20.094-.874 29.811-1.807 3.516-.336 6.869-.37 10.166-.278 2.625,1.657 10.73,7.536 9.494,16.202-1.473,10.313-5.895,10.806-10.316,12.28-.404.134-.795.409-1.174.741-3.811-.271-7.619-.228-11.631.076-9.199.707-18.615.156-27.619,2.612-8.803,2.405-18.785,4.179-27.57,5.651-10.822,1.814-22.096,1.964-33.12,1.797-4.503-.071-9.108-.624-13.467.432-5.499,1.325-7.569,2.463-13.45,2.37-6.242-.091-13.722-.887-19.559.956-5.99,1.902-17.547,11.169-25.187,8.062-5.448-2.211-4.958-16.281-4.07-21.282z" fill="#1a171b"/>
 <path d="m162.574,305.862c-.596,2.003-1.459,4.05-2.527,5.988 4.107-.242 8.314-.336 12.717-.336 3.611,0 7.525-.323 11.25-.195 14.723-3.532 3.912-17.702 1.811-20.268-.818.156-1.639.306-2.451.499-2.832,1.626-5.273,3.545-7.01,6.197-1.951,2.969-5.115,4.625-8.775,4.666-.367-3.456 4.168-3.261 4.654-6.039 .242-1.359-.625-1.825-.625-2.554-2.779.295-5.658.418-8.572.468 .884,3.466.765,7.391-.472,11.574zm-34.222-6.38c.861,2.572 1.15,5.408.869,8.438 1.453-3.404 1.816-5.499 1.816-6.691 0-.95-.217-1.258-.217-1.263-.23-.317-1.414-.529-2.468-.484zm-101.741,28.66c2.062-.686 4.092-1.364 5.899-2.182 3.34-1.507 3.679-2.331 8.224-2.53h.249c-.612-1.214-1.427-3.058-1.577-4.28 1.495.018 3,1.226 4.498,1.768 4.924,1.773 9.571,3.255 14.656,3.562 1.402-.302 2.245-.935 4.678-1.743 7.574-2.503 17.083-1.878 26.223-1.44 .463-1.357 1.062-2.468 1.47-3.118 2.617-5.304 3.169-8.335 3.169-9.938 0-1.104-.258-1.498-.291-1.537 0,0-14.219-1.75-14.405-3.406-.023-.204 0-.43.058-.673-5.369-.128-10.844.426-15.743,2.54-9.854,4.256-18.848,5.043-29.147,5.583l.144.282c-3.329.331-4.759,6.125-8.337,4.725 .104-.735 1.622-3.276 2.726-4.725l-1.789.089c-4.935.251-8.172,2.32-12.089,4.46 5.758.752 16.054,3.405 11.384,12.563zm29.736-12.815c3.981-5.415 10.678-3.233 15.203-1.842l-.494.735c-2.933-.103-13.124,4.057-14.709,1.107zm-38.157,19.437c4.498-1.251 4.498-4.998 4.498-4.998s.249-11.247-7.996-11.741c-3.001,7.491-1.002,16.488 3.498,16.739z" fill="#aa804d"/>
 <path d="m128.107,295.801c0,0 13.975-2.11 4.875,16.263-.812,1.134-3.25,6.013 2.438,5.691 3.898-.229 9.645-8.198 9.775-15.506-.572-.542-1.166-1.071-1.85-1.537-1.82-1.236-3.762-1.99-5.635-2.32-.191-.017-.391-.054-.586-.061l.105-.03-.006-.004 .025-.005c2.203-.897 4.762-.856 6.996.399 .234.128.426.297.629.457-.465-1.951-1.447-3.762-3.146-5.226 3.475.722 7.709,3.831 1.617,16.115-.812,1.141-3.248,6.011 2.439,5.689 4.088-.231 10.229-9.007 9.779-16.585-.426-.362-.881-.712-1.361-1.037-1.818-1.235-3.76-1.99-5.633-2.317-.193-.018-.395-.055-.586-.063l.104-.032-.01-.002 .033-.007c2.154-.876 4.656-.839 6.863.343-.627-1.776-1.736-3.39-3.498-4.682-3.438-1.945-11.535-4.42-12.814.889-4.305-1.643-10.553-2.439-10.553,3.568zm-27.927,23.507c-.885,1.24-3.54,6.553 2.662,6.201 4.291-.242 10.648-9.128 10.65-17.166-.572-.545-1.166-1.076-1.857-1.549-1.82-1.233-3.762-1.99-5.633-2.315-.193-.02-.391-.057-.584-.065l.102-.028-.002-.002c.008,0 .014,0 .023-.009 2.201-.897 4.762-.854 6.998.399 .227.126.414.29.609.442-.52-2.157-1.609-4.157-3.516-5.766 3.834.663 8.908,3.875 2.084,17.65-.879,1.24-3.541,6.553 2.662,6.206 4.258-.243 10.59-8.99 10.725-16.98-.625-.605-1.303-1.187-2.064-1.705-1.822-1.235-3.76-1.992-5.633-2.315-.195-.02-.395-.057-.586-.065l.1-.027c-.004,0-.004-.007-.006-.007l.031-.007c2.199-.896 4.758-.856 6.994.397 .305.171.553.4.826.601-.547-2.473-1.812-4.749-4.182-6.486-3.768-2.129-12.676-4.848-14.002,1.055-4.697-1.848-11.718-2.843-11.718,3.81 .001-.002 15.246-2.301 5.317,17.731z" fill="#9b9c9e"/>
 <path d="m90.895,107.812-4.672-2.036c0,0-34.531,43.004-29.643,111.748 5.208-8.145 10.148-14.815 15.334-19.46-.839,9.7-6.437,18.886-6.437,18.886-14.634,29.187-37.264,56.39-57.655,83.582l.018-.002c39.25-25.684 70.323-77.552 70.323-103.933 0-25.247 15.934-61.859 23.963-77.863-3.108-3.513-6.814-6.905-11.231-10.922zm46.632-103.853c-1.312-.389-2.801-.756-4.322-.978l-.264-.074-.045.026c-.252-.122-.49-.25-.736-.375-.795-.076-1.684-.096-2.609-.007 .178.078.352.158.533.234-2.203.053-4.24.6-5.609,2.073-4.729,5.094-31.533,27.213-22.412,69.226-1.271,5.827-5.012,21.642-5.012,21.642l.163.094-1.894,5.671c0,0 4.963,2.174 10.875,9.734 4.457-7.03 11.289-13.325 6.939-34.528-4.769-25.681 12.282-55.479 24.393-72.738z" fill="#006cb2"/>
</svg>
