<?xml version="1.0" encoding="UTF-8"?>
<svg id="svg8" xmlns="http://www.w3.org/2000/svg" version="1.1" viewBox="0 0 595.3 841.9">
  <!-- Generator: Adobe Illustrator 29.1.0, SVG Export Plug-In . SVG Version: 2.1.0 Build 142)  -->
  <defs>
    <style>
      .st0 {
        fill: #a05a2c;
      }

      .st1 {
        fill: #784421;
      }

      .st2 {
        fill-opacity: .2;
      }

      .st3 {
        fill: #ccc;
      }

      .st4 {
        fill: #dcb100;
      }

      .st5 {
        fill: #aa5f00;
      }

      .st6 {
        fill: #9e2b2b;
      }

      .st7 {
        fill: #f9f9f9;
      }

      .st8 {
        fill: #fca;
      }

      .st9 {
        fill: #681c1c;
      }

      .st10 {
        fill: #c83737;
      }

      .st11 {
        fill: #f2f2f2;
      }

      .st12 {
        fill: #a40;
      }

      .st13 {
        fill: #333;
      }
    </style>
  </defs>
  <g id="layer1">
    <g id="g4622">
      <ellipse id="path4624" class="st2" cx="282.3" cy="703.8" rx="210.9" ry="32.3"/>
      <g id="g4559">
        <path id="path4514" class="st12" d="M124.4,209.6c-10.8,3.7-19.2,12.6-29.7,17.3-5.8,1.6-15.5,8.3-3.7,9.1,7.2,2.8,16.6,2.2,22.4,7.5.5,8.5-10.3,11-15.3,16.2-10.4,8.9-23.2,17.3-28.2,30.4-.6,6.9,9,4.3,13,4.6,2.6.9,8.5-1.9,9.9,1-2.3,8.3-9.9,14.1-13,22.2-4.9,10.7-11.3,22.5-9.4,34.5,4.2,4.4,14.2-1.5,15.5,6.9,3.6,14.9,1.7,32.2,11.5,44.9,7.2,5.2,15.6-4.7,23.2-2.5,8.3,5.6,12.8,16.8,22.7,19.7,3.8-.2,6.4-3.1,10.3-3.2,7.1-1.6,13.5-11.6,21-6.7,9.8,4.9,21.3,15.9,32.7,8.6,12.3-8.2,20.9-20.8,32.8-29.5,8.4,2.9,19.3,10.7,27.4,2.8,9.9-10.8,4.8-27,2.5-39.7-1.1-6.5-4.3-14-4.2-19.9,5.1-5.7,14-2,20.8-3.3,14.3-.7,20-16.8,22.1-28.7,3.2-15.2-10.2-27.2-13.1-41.1,1.8-4,8.6-2,12-3.3,5.9-1.2,16,.7,18.5-6.4-1-8.7-10.3-13.4-15.4-19.7-8-.3-16.9.3-24.8,2.1-1.7,19.6.9,39.9-2.5,59.3-4,3.5-7.8-4.2-10.5-6.3-8.2-9.7-16.4-23.7-31.1-22.5-13-1-27.1,1.3-36.3,11.5-5.4,3.8-9.8,14.3-16.8,7.6-11.5-7.6-26.1-6.2-38.9-3.5-18,6-30.2,21.3-45.2,31.9-1.6-3.1,3.1-7.6,4.1-10.8,13.8-25.6,23.8-53.1,33.1-80.6-.9-7.1-11.6-9.2-17.3-10.3h0ZM247.6,276.3c6.3,4.6,7.3,13.9,9.9,20.7,3.2,11.7,5.8,24.7,4.2,36.5-1,13.2-6.4,29.5-21,32.9-15.8,2.8-31.8-2.5-47.6-3.5-24.4-2.6-48.7-7.8-73.1-9.9-2.3-8.5.9-18.1,1.3-26.9.8-6.7,3.3-16.2,12-15,22-.2,43.9-3.5,64.6-11.1,16.7-4.9,33.3-11.4,46.7-22.8.9-.5,1.9-1.1,2.9-.9h0Z"/>
        <path id="path4516" class="st5" d="M387.6,272.2c-8.9,1.1-18.5,3.1-26.4,6.9-1.9,30.1-.5,61,4.4,91,1,4.6,5.1,7.7,5,12.8.2,6.1,6,8.7,11.4,7.1,5.2-1.5,15,1.3,16.2-5.9,5.6-32.8,1.3-66.3-1.7-99.2-.8-5.3-1.4-14.1-9-12.8h0Z"/>
        <path id="path4518" class="st4" d="M403.3,278.8c.8,26.7,4.1,53.8,4.7,80.7-1.1,4.9,3.8,7.5,7.8,5.2,27.9-8.7,43-48.3,22.7-71.2-8.8-9.6-22.1-16.2-35.1-14.7Z"/>
        <path id="path4520" class="st3" d="M523.9,228.8c-.9,5,7.6,5.1,10.3,8.7,14.1,10.1,14.5,31.9,2.8,44.1-9.1,10.2-23.7,14.1-37,11.8-15.8-.3-31.4,2.7-46.9,5.3-3,3.7.9,9.3,2,13.4,4.3,6.7,13.5,1.3,19.6,1.3,5.7-.4,11.5-3.4,17-3.4,7.5,10.1,21.4,6.8,31.9,4.8,17.8-3.3,36.8-15.3,39.7-34.4,3.5-17.9-1.8-40.2-20.1-47.9-6-2.5-13-4.3-19.4-3.6Z"/>
        <path id="path4522" class="st4" d="M246.7,430.9c-13.8-.5-23.5,16.2-16.2,27.9,3.9,9.1,16,11.7,23.5,5.4,8.7-5.2,15.5-18.1,9.4-27.3-4.5-4-10.7-6.1-16.7-6h0Z"/>
        <path id="path4524" class="st4" d="M243.8,496.7c-10.6-.2-12.2,13-10.9,20.9.8,8.4,8.6,15.3,17.2,13.4,9.6.2,22-7.5,20.1-18.3-4.6-9.7-15.6-16.5-26.4-16.1Z"/>
        <path id="path4538" class="st10" d="M63.5,333.8c-4.3,2-7.8,5.8-12,8.1-13.7,9-27.4,18.1-41.7,26.1-1.5,3.3,2,6.5,2.8,9.6,13.7,26.8,22,56.4,39.2,81.4,5.4,7.2,11.1,14.4,18,20.1,3.6,0,4.9-4.6,7.2-6.7,13.2-17.5,25.7-35.6,38.2-53.5,1.7-3.4,5.2-6.6,5.2-10.7-2.2-3-5.9.6-8.5,1.1-6.5,2.6-15.8,4.7-20.4-2.4-9-13.5-9.3-30.3-11.2-45.8-2-3.4-6.2.4-9.3-.4-6.1-.2-7.7-7.5-7.3-12.4,0-4.4,1-8.8,1.8-13.1-.1-.9-1.1-1.7-2-1.6h0Z"/>
        <path id="path4540" class="st10" d="M351.8,288.8c-10.7,4.3-22,7.2-32.6,11.8-5.7,3.8-5.4,11.7-8.1,17.2-2.1,7.1-7.4,12.8-14.1,15.8-5,3.1-10.9,3.9-16.7,3.1-2.4.2-7.8-1.4-7.5,2.6,4.3,15.6,10.2,32.2,5.1,48.3-2.8,8.9-11.8,16.2-21.4,14.8-4.6.3-8.2-3.7-12.7-3.8-2.8,2,0,5.9,0,8.7,1.6,5.9,2.2,12.5,5.1,17.9,7.1.7,16,.8,20.1,7.9,6.7,10,2.8,23.6-5.6,31.3-4.6,4.8-10.8,7.8-17.1,9.5-1.8,3-.1,7.2-.5,10.7-1,4.2,1.4,6.9,5.6,7.3,8.9,3.3,19.6,7,23.7,16.5,3.5,9.8-3.7,19.6-12.3,23.8-2.7,2-7.3,1.9-8.9,5,0,24.2-.4,48.2-2.1,72.3-.8,8.1,4.7,15.3,10.8,19.9,6.8,3.5,14.9,2.5,22.2,3.2,33.9.9,67.9,1.2,101.7,1.9,2.6-1.9.7-6.2,1.2-9.2-.7-26.4-1.5-53.5-12-78.1-10.7-26.1-24.6-50.9-41.3-73.7-10.6-14.8-20.5-30.4-26.2-47.8-2.2-5.6-3.8-11.8-7.5-16.6,0-3.9,5.2-3.9,7.8-5.6,16.4-6.3,33.1-11.8,49.7-17.6,4.2-1.6,1.3-6.6,1.5-9.8-3.3-28.4-4.9-57.1-5.5-85.7-.2-1.2-1.2-2-2.4-1.6h0ZM317.4,533.3c4.8,6.5,8.6,14,15.1,19.1,5.2,5.1,12.7,7,18.1,11.7-2.3,2.8-5.7-.7-8.4-1.1-10.9-4-19.3-13.2-24.4-23.5-.8-1.9-1.4-4.6-.5-6.2Z"/>
        <path id="path4542" class="st10" d="M236,401.4c-8.7,6.1-15,15.3-23.5,21.8-6,4.6-14.2,4.6-21.3,2.8-7.5-2.5-13.2-9-20.9-11.3-4.1.3-7,4.2-9.7,6.7-.5,3.2,3.8,5,5.4,7.5,4,3.1,4.4,8.3,5.8,12.7,1.7,2.6,5.4,2.6,7.3,5.1,6.5,6.4,12.4,14.2,14.9,23.1.6,3.1,0,6.5-3.3,7.8-5.4,3.2-12.4,3.4-17.3,7.4-2,4.6-.2,10.1.4,14.9.9,3.8,2,10.4,7.4,9.5,11-1.1,23-2.7,33.1,3.1,3,1.6,6.9,3.4,8.3,6.5-5.4-.5-9.8-5.4-15.3-5-3.3,2.3,1.4,5.3,3.3,6.6,1,.7,2.8,2.2,2.7,2.5-10.1-2-18.8-8.9-29.2-9.4-4.6-.4-7.5,3.9-8,8-1.1,7.5-5.9,14.3-13,17.1-2.9,1.6-.3,5,2.3,4.5,19.5,0,39.7,3.8,55.9,15.2,4.7,4,10.9,6.4,13.7,12.2,2.8,3.7,4.9,8.2,8.4,11.1,3.6-.9,1.7-6,2.6-8.8.5-11.3,1.3-22.8-.2-34.1-2.6-4.7-9-5.1-12-9.6-6.5-8-7-19.7-3.6-29.1,1.7-5.1,7-7.1,10.3-10.6-.8-5.5.6-11.8-2.3-16.8-4-3.4-8.9-6-11.3-11-3.2-5.9-5.8-12.7-3-19.3,2.2-7.9,8.7-14,16.3-16.7,3.7-1.1,2.7-5.3,1.9-8.1-1.6-5.4-2.1-11.3-4.6-16.3-.3-.7-1-.4-1.6-.5h0Z"/>
        <path id="path4544" class="st10" d="M128.1,525.7c-3.8,1.9-3.4,7.3-5,10.8-2.2,8.3-4.6,16.5-6.5,24.8,1,3.6,4.7.4,6-1.2,4.5-5.5,10.7-9.1,17.5-11.1,3.1-1.5,7.4-1.7,9.7-4.5.3-3.8-4.9-3.1-7.1-4.8-3-.8-6.9-5-9.8-2.1-1.3,1.5-1.9,4-3.7,4.9-.5-5.4,3.7-11.3.7-16.4-.5-.4-1.1-.6-1.8-.5h0Z"/>
        <path id="path4546" class="st6" d="M124.1,416.6c-4.1,4-6.4,9.8-9.9,14.4-13.3,20.1-26.2,40.4-39.7,60.4-1.2,2.1-6.2,4.3-2.7,6.6,15.1,9.1,29.6,19,44.2,28.8,3.6.7,4.1-4.5,5.9-6.6,7.8-14.1,14.4-28.7,21.6-43.1,6.1-11.7,15.2-21.7,20.2-33.9,1.7-4,.4-8.5-3.2-10.9-3.2-3.6-7.9-6.3-12.8-4.9-6.8,1.8-12.8-2.4-17.4-6.9-1.9-1.3-3.6-4.2-6.2-3.9h0Z"/>
        <path id="path4548" class="st8" d="M171.4,446.9c-3.7,1.3-4,6.2-6.5,8.9-7.8,11.2-15.5,22.7-21,35.4-3.3,7.8-8.1,15.1-9.8,23.4.4,8.1,4.9,18,13.8,19.3,6.5.5,14.2-.6,18.8-5.7,5.4-8.4,3.6-19,.8-28-2.1-7.8-2-18.2,5.9-22.7,4.1-2.9,10.2-2.1,13.7-5.8,1.3-4.3-2.6-8-4.3-11.6-3.2-4.5-5.7-10.1-10.5-13.1-.3,0-.6,0-.9,0h0Z"/>
        <path id="path4550" class="st8" d="M148.7,217.2c-3.2,1.5-2.6,6.3-4,9.2-6,19.2-14.1,37.7-20.5,56.8.9,3.7,5,.3,6.8-.7,11.1-7.5,24.7-11.9,38-10.8,7.5.2,14.9,2.2,21.9,5.1,5.4,1.1,8.5-4.9,12.5-7.4,5.2-4.4,10.8-8.6,17.5-10.1,3.4-2.5-1.7-4.3-3.8-5-2.2-.4-5.2-3.1-2.7-5,9.9-6.9,22.3-8.9,33.9-10.5,2.3-1,4.7,2.9,1.6,3.7-3.8,2.8-8.9,3.2-12.5,6.1-1.3,4.1,4.8,3.7,7.3,4.6,6.5,1.6,13.6,2.8,19.1,6.7-2.4,2.1-.9,5.2.9,7.1,4.1,5.2,7.6,10.9,11.9,15.8,3.8.9,3-4.5,3.2-6.8,0-13.8.4-27.8-.1-41.5-2.6-2.5-7.6-.8-11.1-1.6-36.1-1.2-72.4-4.1-107.6-13.2-4.1-.9-8.1-2.1-12.3-2.6h0ZM155.7,237.8c12.2,1.2,23.3,5.6,35.2,8.6,2.7.8-1.1,3.6-2.5,3.5-4.4,1.5-8.9-1.6-13.2-.8-3.6,2.5-3.1,8.7-7.5,10.3-3.1-1.4-6.4-5-4.3-8.6,2-3.3-.4-6.9-3.8-7.8-2.1-.9-4.8-2.7-5.3-4.9.3-.5,1-.4,1.5-.4h0Z"/>
        <path id="path4552" class="st11" d="M246,284.4c-6.6,3.7-12.7,8.3-19.8,11.1-21.1,9.2-43.6,15.2-66.3,19.4-9.5,1.8-19.4.6-28.9.2-2.9,2.5-3.5,7.5-2.8,11.2,1.8,3.1,6.5,2.2,9.5,3.3,2.1.7,5.2.3,6.6,2.1.3,2-3.2.8-4.2,1.2-4.5.4-9.6-1.6-13.9.4-2.4,2.8-2.7,7.6-1.1,10.9,5.5,2.8,12,2.9,18,4.4,24.7,4.4,49.7,7,74.5,10.6,9.4.7,20.4,3.6,28.5-2.9,7.4-5.6,10.1-17.3,4.9-25.2-3.5-1.8-7.4,1.3-10.9,1.7-4.8,1.2-10.4,3.7-15,1.2-1.2-2.3,2.9-2.5,4-3.4,7.4-3.2,16.7-4.3,21.1-11.9,6.4-9,2-20.5-.7-30-.7-1.6-.7-4.8-3.2-4.5h0Z"/>
        <path id="path4554" class="st13" d="M127.4,76.3c-13.9.5-28.6,1.8-41,8.8-10.8,7.7-11.9,22.2-12.9,34.3-1.1,9.9.6,20.7-4.4,29.6-2.1,6.4-2.4,14.4,2.4,19.8,10.9,12.6,25.9,20.7,40.6,28.1,41.6,19.4,87.6,27,133.2,29.2,28.9.3,57.9-.3,86.7-2.5,17.3-2.1,35-6.1,49.8-15.6,12.3-8.7,15.1-25.8,11.7-39.6-1.6-6.5-8.2-12.1-15.1-10.2-17,3.6-32.8,11.5-50.2,13.4-12,1.4-24.3,2.1-36.4,2.2-13.5-4.4-27.5-7.5-40.4-13.4-16.3-10.7-28.1-26.6-40.6-41.3-16.8-19.7-39.7-33.9-64.5-41.2-6.1-1.5-12.5-1.7-18.7-1.6h0Z"/>
        <path id="path4556" class="st13" d="M252.5,13.5c-10.7.4-22.2,1.4-31.3,7.6-4.8,3.5-2.1,9.9-1,14.6,1.3,4.5,6.6,1.7,9.7,1.6,10.1-1,21.7-.5,29.7,7,2.9,2.2,5.1,5.5,8.5,7,3.7-2.5,6.4-8.5,11.9-7.2,6.4,2,13,6.9,14.5,13.8,0,4.3-5.8,4.3-8.9,5-3.7.6-7.7-.5-11.2.8-1.9,6.4-2,13.7-7.3,18.7-4,5-10.1,8.6-12.6,14.6,1,6.1,9.2,9.6,7.6,16.5-1,5.7-3.9,12.7-10,14.2-6.8-.2-8.4-8.3-9.4-13.7-.7-2.7-.7-8.3-4.8-7.1-4.7,1.6-11.1,5-15.1.2-1.3-2.2-2.2-6.4-5.7-4.8-2.2.8-7.4,1.1-6,4.6,6.3,7.9,12.3,16.1,18.6,24.1,8,9.1,16.1,18.9,27.2,24.3,12.2,5,24.7,10,37.8,12.2,5.4.2,11.1,1.1,16.3,0,9.2-24.2,22.8-46.8,30.4-71.7,3.3-11.6,6.6-24.4,2.7-36.3-5.9-11.3-15.9-20.2-27.6-25.4-15-6.8-30-13.6-45.8-18.4-5.9-1.5-12-2.1-18.1-2.1h0Z"/>
        <path id="path4558" class="st13" d="M200.7,40.6c-4.3,1.8-5.9,7.1-8.6,10.7-5,9-10.8,17.8-13.7,27.8-.1,4,5.8,8.3,8.9,4.6,5.6-2.5,13.9-4,15.1-11.2,1.4-6.8,3-13.5,5-20.1.5-4.4-2.1-9.2-5.7-11.7-.3-.1-.6-.2-.9-.1h0Z"/>
        <path id="path4562" class="st13" d="M247.9,58.4c-2,.2-2.8,2.3-3.5,3.9-1.3,3.1-2.4,6.9-.8,10.2,1,2.1,3.7,3,5.7,1.9,2.4-1.1,3.9-3.7,3.9-6.3.1-3.1-.4-6.7-2.9-8.8-.7-.5-1.5-.8-2.3-.8Z"/>
        <path id="path4570" class="st13" d="M225.7,56c-2,.2-2.8,2.5-3.5,4.1-1,2.9-2,5.9-1.8,9,.1,1.7,2.2,2.8,3.7,1.9,2.4-1.5,3.7-4.4,4.6-7,.7-2.3,1-5.4-1-7.2-.6-.5-1.3-.8-2-.7h0Z"/>
        <path id="path4572" class="st7" d="M212.1,28.3c-.1,0-.2,0-.3,0-2,.5-3,2.6-3.7,4.4-1.1,4.1-.3,8.7,2.2,12.1,1.1,1.4,3,1,4.1-.2,1.6-1.4,3.7-3.3,2.7-5.6-1.2-3.2-1.6-6.6-3.2-9.7-.4-.6-1.1-1.1-1.8-1.1h0ZM236.5,40.6c-6,0-12.4,1-17.4,4.6-1.9,1.5-3.4,3.6-3.5,6,0,1-.4,1.9-1.4,2.3-3.7,1.6-5.7,5.5-6.2,9.3-.7,4.8-.9,9.7,0,14.5.1,1.1,1,2,1.2,3.1-.1,3.4-1.4,6.7-2,10-.4,2.5-1.2,5.3-.3,7.8.9,2,3.4,2.7,5.4,2.3,4.2-.8,7.3-4.2,10.4-6.9.9-.7,1.8-1.7,2.9-2,1.3,1.5,1.9,3.7.9,5.5-.7,2.1-2.3,4-2.3,6.2.1,1.7,2.1,2.3,3.6,2.1,4.5,0,8.1-3.4,11.6-5.6,3.4-2.1,6.9-4,10-6.5,5.5-4.4,10.6-9.2,15.3-14.5,2.1-2.3,3.6-5.2,3.9-8.3.3-2.7.7-5.5-.3-8.1-.6-1.6-2.1-2.7-3.7-3.3-.9-.7-.6-2-.9-3-.6-3.9-3.8-6.6-6.5-9.2-2.9-2.8-6.6-5-10.6-5.6-3.3-.5-6.7-.6-10.1-.6h0ZM278.6,47c-2.7.2-4.1,3-5.7,4.8-1.4,1.8-3.2,4.5-1.6,6.6,1.8,1.9,4.7,1.2,7,1.3,3.2-.3,6.6-.5,9.6-1.9,1.8-.9,1.7-3.4.2-4.6-2.5-2.3-5.2-4.5-8.2-6-.5-.2-1-.3-1.5-.3ZM226.4,53.7c2.7,0,5.2,2.3,5.4,5,.7,4.3-.6,8.9-3.6,12.1-1.9,2-4.5,4-7.4,3.4-1.8-.7-3.1-2.6-2.8-4.5,0-3.9.5-7.8,2-11.4,1.1-2.5,3.4-4.8,6.3-4.6h0ZM246.3,54.7c4.1-.1,7.6,3.1,9.3,6.7,1.6,3.6,1.7,8.1-.6,11.4-2.3,3.2-6.5,5.3-10.4,4.3-2.3-.6-3.8-2.9-3.8-5.3-.4-5.5.5-11.2,2.9-16.2.4-1.1,1.7-.9,2.6-1h0ZM204.4,79.4c-2.3.6-4,2.4-6.1,3.3-2.8,1.6-5.9,2.3-8.7,3.7-1.3,1-.6,2.9.7,3.5,3.4,2.6,6.7,5.5,10.3,7.7,1.7.6,2.7-1.2,2.8-2.6.9-4.7,2.1-9.2,2.8-13.9,0-.9-.8-1.8-1.8-1.8ZM247.6,99.7c-2.3.2-2.3,3-2.3,4.8.2,5.5.7,11.1,2.8,16.2.8,1.8,2.6,4,4.8,3,2.5-1.5,3.7-4.3,5-6.8,1-2,1.7-4.5.4-6.6-2.1-3.8-5.1-7.2-8.5-9.9-.6-.4-1.3-.7-2-.7h0Z"/>
        <path id="path4586" class="st9" d="M116,581.6c-3.2,1.1-4.3,5.1-6.2,7.6-1.1,2.2-4.1,5.6-1.1,7.6,2.6,2,4.7,4.8,7.8,6.1,2.9-1.2,1.9-5.3,2.3-7.9-.2-4.2.4-8.5-.8-12.5-.4-.6-1.2-.9-1.9-.9h0ZM234.1,582.5c-3.2.8-2.4,5-3,7.5-.9,6.8-.7,13.8-2.5,20.5-1.2,2.5-3.6,4.4-6.3,4.8-3.2,2.3-3,6.9-3.7,10.4,0,2.1-1.2,6.3,2.1,6.3,6.9-2.2,14.2-1.6,21.3-1.2,3.1.3,6.2,2.8,9.3,1.9,2.4-1.7-.1-4-1.3-5.5-3.9-5.9-6.2-12.7-6.5-19.7-1-8.1-2.9-16.5-7-23.6-.6-.8-1.5-1.3-2.4-1.3h0Z"/>
        <path id="path4591" class="st0" d="M165.8,551c-10.9-.7-21.6,3.1-31.2,8-6.7,3.2-9.9,10.5-10.2,17.6-.8,9.5-1.3,19.1-1.1,28.6,2.1,3,5.9-1.3,8.6-1.7,13.6-6.5,28.6-7.4,43.3-6.1,14.9.8,29.4,4.7,43.9,8.2,4.1.7,3.5-4.9,4.1-7.5.9-8.7,2-17.5,2.2-26.2-6.2-7.5-15.1-12.7-24.3-15.7-9.1-3.9-19-5.6-28.9-5.1-2.2,0-4.4,0-6.6,0h0ZM204.7,571c3.4.8,7.7,2.4,9.3,5.6-3.4-.7-8-2.1-10.3-5.1,0-.5.7-.5,1-.5ZM205.4,582.8c2.5.7,5.9,1.6,7.4,3.4-2.5,1.1-7.5-.1-7.9-3.3,0-.2.3-.1.4-.1h0Z"/>
        <path id="path4593" class="st1" d="M163.6,603c-13.5-.2-27.2,3.5-38.4,11.2-2.3,3.3.7,7.7,1,11.2,3.9,15.1,3.9,30.8,6.5,46.1,2.9,2.6,6.5-1.3,9.7-1.6,13.8-2.8,28,.8,40.7,6.3,1.8,1,4.3,2.2,4.8,4.2-2,2.1-5.4-.3-7.9-.3-10.3-2.6-20.6-5.5-31.3-4.7-9.7-.1-18.1,5.9-25.2,11.9-7.1,6.3-12.1,14.8-15.5,23.6.3,4,5.9,2.9,8.7,3.6,23.6,1.6,47.8,1.1,70.5,8.6,2.5.8,7.2,1.2,6.8-2.7,5.8-35.1,13.1-70,20.6-104.8,1.1-3.4-2.1-5.4-5-5.9-14.9-4.3-30.5-6.8-46-6.8h0ZM188.2,626.4c4.7.4,8,4.8,10.4,8.3,0,1.7-2.4-.8-3-1-3.4-2.6-7-5-10.6-7.2,1.1-.2,2.1-.2,3.2-.2h0ZM190.9,649.5c1.5,1,3.1,3.9.8,1.7-.4-.3-1-1.7-.8-1.7ZM171.2,700.7c1.6-.8,5.9,1.9,2.8,2.9-5.7.8-12.2,2-17.6-.5,2.1-1.6,6.4-1.5,9.4-2,1.8-.2,3.5-.3,5.4-.4h0Z"/>
        <path id="path4595" class="st1" d="M328.9,641c-10.7.3-21.5-.2-32.1.9-2.6,2.5.6,6.3.9,9.2,3.6,10.9,6.5,22.2,11.3,32.7,1.1,2.5,5.1,2.5,5.7-.3.6-1.8,3.2-3.7,3.8-1-1,1.8-1.3,5.9,2,5,5.5-2.1,10.7-5.8,16.7-6-6.4,4.7-13.4,8.3-20.7,11.3-2.1,1.9-4.7,5.8-2.6,8.4,4.6,1.6,9.8-.3,14.6,0,26.8-1.4,53.7-2.3,80.4-3.4,2.3-2,1-6.2,0-9-5.8-11.8-18.4-18.5-30.4-22.4-14.7-4.4-31.1-3.7-44.9,3.3-2.1,1.1-5.3,2.3-6.2-.9,3.7-5.3,10.6-7.4,16.3-9.9,5.6-2.2,11.9-1.2,17.5-2.9.7-4.5.5-9.4.1-13.9-2.4-2.6-7.2-.5-10.5-1.1-7.3,0-14.6,0-21.9.1h0ZM336,691.2c3.3,0-1.2,2.1-2.5,2.4-1.7.4-4.5,1.3-5.5.5.8-2.9,5.7-2.6,8-2.8Z"/>
        <path id="path4496" d="M193.6,733.9c-.3-.3-6.9-2.1-14.6-4.1-12.5-3.2-17.2-3.7-41.2-4.7-35.2-1.5-40-2.9-40-11.5,0-5.9,7.2-16.7,19.4-28.9l9-9.1-.9-6.9c-.5-3.8-.9-11.8-1-17.7,0-10.9-3.1-23.6-6.8-29.2-.9-1.3-1.6-4.2-1.6-6.5,0-3.7-1-5.1-8.3-11.8l-8.3-7.6.6-6.9c.3-3.8,3-14,5.9-22.8,7-21.1,9.4-30.3,7.8-30.8-.7-.2-4.5-2.9-8.6-6-13.5-10.2-27.2-19.1-36.3-23.7-5-2.5-9.7-5.4-10.6-6.4-1.6-2-1.8-1.6,4.2-9.8,1.9-2.6,1.7-2.9-3.8-9.2-17.2-19.6-26.2-35.4-40.6-71.3-4-10.1-10-23.2-13.2-29.3-7.2-13.5-6.9-14.8,4.7-20.7,4.4-2.2,17.8-10.2,29.8-17.7,14.9-9.4,22.6-13.5,24.4-13.2,1.9.3,2.8-.3,3.4-2,1.3-4.4,8.9-18.9,11.2-21.4l2.3-2.5-6.2.5c-5.2.4-6.6.1-8.4-2-3.4-3.8-3.9-12.8-.9-18.6,4.6-9,19.5-23,35.6-33.5,2.9-1.9,2.8-1.9-6.5-3.9-14-3-17-4.1-19-7.1-1.6-2.5-1.6-3.1,0-6.4,1.4-2.7,4.4-4.8,11.9-8.4,5.5-2.6,14-7.4,18.9-10.6l8.9-5.8-6.3-3.1c-19.2-9.7-37.2-22.3-42.3-29.7-6.5-9.4-7.4-20.2-2.3-27.4,1.5-2,2.6-4.9,2.6-6.3,0-1.4-.4-9-.9-16.7-.9-16.2.2-23.7,5.3-34.4,5.5-11.6,13.4-16,36.8-20.5,21.6-4.2,38.6-2.3,58,6.4,3.8,1.7,7.1,3,7.2,2.8.1-.2,1.2-3.2,2.3-6.8,6.4-20,22.2-41.8,38.9-53.7,11.1-7.9,21.4-10.6,40.1-10.5,11.1,0,16.6.6,20,2,2.6,1,10.8,4.3,18.3,7.2s19.7,8.2,27.3,11.8c12.8,6.1,14.2,7.1,21.7,15.6,4.4,5,8.7,10.9,9.6,13,2.7,6.6,2.1,24.1-1.4,37.6-5.6,21.5-7.2,25.4-25.6,61.2-3,5.8-5.2,10.8-5,11,1.3,1.3,24.7-3.8,36.8-8,20-7,24-7.8,29.6-6.1,6.1,1.8,10.5,5.4,12.6,10.2,6.7,16.1,3.6,36.8-7.3,48.1-8.3,8.6-30,17.2-49.8,19.7-5.5.7-11.6,1.6-13.5,2.1l-3.4.8,3.6,4.1c4.7,5.4,7.8,14.2,6.3,18.2-.6,1.6-3.3,4.4-6.1,6.2-4.3,2.9-6.1,3.3-14.1,3.3h-9.2l1.9,2.9c4.5,6.8,6.2,10.7,8.7,18.7,3,9.8,2.3,9.7,17.1,3.7,4.5-1.8,11.2-4.3,14.7-5.5,5.8-2,6.5-2.6,7.1-6,.7-4.3,1.8-4.8,23.9-11.4,11.7-3.5,14.3-3.2,20.1,1.9,3.3,2.9,5.1,3.5,9.7,3.5,13.6,0,25.2,5,34.6,14.7l5.3,5.5,8.3-.7c4.5-.4,15.1-2.1,23.4-3.7,14.6-2.9,15.3-2.9,21.3-1.1,13.2,4.2,28.6-3.4,34.8-17,2.9-6.4,3.1-11.6.6-17.4-2.4-5.7-4.8-8.3-10.5-11.2-7.4-3.8-14.9-3.3-21.4,1.3-3,2.1-6.5,3.7-8,3.5-2.1-.3-2.6-1.3-2.9-5.9-.4-6.8,2.3-13,6.5-15,4.7-2.2,22.3-4,31.7-3.3,19.2,1.4,34.2,14.9,39.4,35.5,2,7.8.7,25.7-2.5,34.2-1.8,4.9-4.4,8.5-9.9,13.8-4.1,3.9-9,8.1-11,9.3-6.5,3.9-29.3,10.6-36,10.6-9.7-.1-17.2-1.7-20.9-4.4l-3.3-2.5-11,2.3c-6.1,1.3-12.9,2.3-15.3,2.3-4.2,0-4.3.1-5.7,6.4-2.2,9.9-9.9,24.7-16,30.8-5.7,5.7-20.3,13.5-25.3,13.5-4.8,0-5.9,1.5-7.3,9.5-1,5.4-2.2,8.4-4.4,10.6-2.9,2.9-4,3.1-17.8,3.8l-14.7.7-3-3.4-3-3.4-21.2,7.7c-11.7,4.2-23.8,8.4-26.9,9.3-3.1.9-5.9,1.8-6.2,2.1-.9.9,14.6,36,18.5,41.7,2.2,3.2,8.7,12.1,14.4,19.9,12.4,16.8,19.3,28.1,30.4,50.3,10.1,20.3,15.4,34.7,18.6,50.6,2.5,12.4,4.9,40.8,4.9,57.6s-.4,13-16.1,13h-12.4l.4,6,.4,6,8.7,2.2c24.3,6.2,40.2,20.7,40.2,36.7,0,6.6-2.5,9.9-8.5,10.8-6.5,1-97.4,3.3-100,2.5-1.3-.4-2.7-2.2-3-3.9-1.4-6.7-5.2-20.5-11.3-40.6l-6.3-20.9-8.3-.2c-10.1-.2-12-.1-16.7.8-2.5.5-6.5-.2-12.5-2.3-4.8-1.7-11.7-3.4-15.3-3.8-8-.9-18.2,1.2-19.1,4.1-1.4,4.7-14.8,80.1-14.8,83.4,0,5.4-5.8,12-8.4,9.4h0ZM192.6,720c0-4.9,14.1-77.3,18.4-94.5,1.6-6.4,2.6-12,2.3-12.5-.9-1.5-12.9-4.5-26-6.7-15.3-2.5-31-2.5-40.7,0-9,2.3-20,7.4-20.8,9.7-.3.9.5,4.9,1.9,9,1.4,4.2,3,13.2,3.7,21,.7,7.5,1.5,16.3,1.8,19.7l.6,6.1,4.9-2.2c6.6-3,17.8-2.9,30.4.2,15.8,4,23.8,9.2,19.5,12.7-1.2,1-4.9.5-15.6-2.3-19.5-5.1-26-5.1-36.2,0-10.8,5.4-18.5,12.9-23.6,23.2l-4.2,8.4,3.2.9c1.8.5,10.1,1,18.5,1.2,21.9.5,38.6,2.4,49.5,5.7,11.8,3.6,12.4,3.6,12.4.5ZM155.6,704.5c-3.4-2.5,0-4.3,10-5.1,7.3-.6,9-.4,10.3,1.2,1.3,1.5,1.3,2.3.1,3.7-1.9,2.3-17.5,2.5-20.5.2h0ZM191.1,652.9c-2.1-1.2-2.9-5.8-1.1-5.8s6.2,5.4,5.3,6.3c-1,1-1.8,1-4.2-.5h0ZM192.7,633.7c-2.7-2.2-5.9-4.4-7.2-4.8-2.9-.9-3.1-4.1-.3-4.3,4.9-.3,7,.6,11.4,4.8,3,3,4.3,5.2,3.9,6.4-1,2.7-2.4,2.4-7.8-2.2h0ZM371.5,697.6l36.8-1.4v-2.9c0-10.5-17.7-23.6-37.3-27.4-11.9-2.3-23.2-1.1-33.1,3.5-7,3.3-8.8,3.7-10.3,2.5-3.2-2.6-2-5.5,3.8-9.2,7.4-4.7,15.5-7.3,22.7-7.3h5.9v-13h-31.9c-25.1,0-31.8.3-31.3,1.5.3.8,3.6,10.7,7.3,22,7,21.4,6.8,21,10.7,14.6,1.1-1.8,1.8-1.9,3.5-.8,2.2,1.4,2.3,1.9,1,5.4-.6,1.6.6,1.3,5.6-1.4,7.3-4,14.5-5.1,14.5-2.3s-20.3,13.3-21.9,12.3c-.5-.3-1.5,1.1-2.1,3.1l-1.3,3.6,10.3-.6c5.7-.4,26.9-1.3,47.1-2.1h0ZM326.5,695.7c-1.2-1.9.4-4.6,3.2-5.4,4.8-1.3,10.2-.8,10.2.9,0,2.6-12.1,6.7-13.4,4.5ZM385.6,610.9c-1.1-35.3-5.6-53.4-20.8-84.1-11-22.1-16.2-30.6-31.8-52.4-15.1-21.1-20.3-30.6-26.7-49.5-2.4-7.1-5.1-13.4-6-13.9-2.6-1.6-1.7-5.1,1.7-6.7,5.4-2.5,45.3-16.7,51.6-18.3,3.9-1,5.7-2.1,5.4-3.1-.3-.9-.9-5.8-1.4-11-.5-5.2-1.5-15.5-2.2-23-.7-7.5-1.6-23.7-2-36.1l-.7-22.5-9.6,3.5c-5.3,1.9-12.8,4.5-16.8,5.8-4,1.2-7.8,2.9-8.4,3.7-.7.8-2.1,4.9-3.3,9.1-3.5,13-7,17.7-16.4,22.6-7.1,3.7-10.5,4.4-17.7,3.4-3.6-.5-6.5-.5-6.5,0s1.3,5,2.9,10.1c4.4,14.2,5.7,25.1,4.1,34.2-3,17.4-18.2,26.5-32.3,19.3-2.5-1.3-4.7-2.4-4.8-2.4-.3,0,1.7,9.2,3.8,17.4l1.9,7.4h5.2c18.4,0,25.6,21.4,12.8,38.2-3.8,5-10.8,9.9-16.4,11.4l-4.3,1.2v7c0,6.7.1,7,3.2,7.7,5,1.1,16.9,6.7,20.6,9.8,6.6,5.5,8.6,13.7,5.2,21.7-2.1,5.1-10,12-15.6,13.8-6.2,2-6.3,2.2-5.2,8.3,1,5.1-.3,48-1.8,63.7-.7,7.3-.6,7.9,3.2,13.5,7.4,10.9,5.5,10.6,60,11.3,26.3.3,52.7.7,58.8.9l11.1.3-.7-22.1ZM340.9,564.2c-8-3.3-12.1-6.3-17.2-12.8-6.6-8.3-8.7-12.4-8.3-16.4.6-5.9,2.5-5.2,6.9,2.6,5.1,9.1,13.4,16.9,22.1,20.8,7.5,3.4,9,4.8,7.1,7.1-1.7,2-2.8,1.9-10.6-1.3h0ZM250,629.7c-4.1-4.5-7.9-14.2-8-19.9,0-9.4-6-27.8-8.3-25.5-.5.5-1.3,6.8-1.8,13.9-.7,11.3-1.2,13.3-3.5,15.6-1.5,1.5-3.5,2.7-4.4,2.7-2,0-2.7,1.5-3.8,8.9-.8,5.2-.7,5.6,1.4,4.8,4.9-1.9,18.7-2.1,23.4-.3,6.3,2.4,7.2,2.3,5-.1h0ZM131.4,601.8c10.5-4.8,19.6-6.6,32.9-6.7,13.8,0,37,3.4,48.5,7.3,4,1.3,7.6,2.1,8,1.7.4-.4,1.4-7.7,2.1-16.3l1.4-15.5-4.9-4.5c-6.5-5.9-9-7.1-22.8-11.7-10.5-3.5-13-3.8-25.8-3.9-12.4,0-15.4.4-24,3.3-18.9,6.3-20.9,9.3-21.6,32.4-.3,9.2-.4,16.8-.3,16.8s3.1-1.3,6.6-2.9h0ZM207.9,587.8c-2.9-.9-4.2-2.2-4.5-4-.5-3.2,1.3-3.4,7.3-.9,4.5,1.9,5.2,3.1,2.8,5-1,.8-2.8.8-5.6-.2h0ZM207.6,576.2c-3.8-1.7-5.6-3.2-5.6-4.7,0-3,3.7-2.8,9.5.4,4.3,2.4,5.7,5.5,2.9,6.3-.6.2-3.7-.8-6.8-2.1h0ZM117.1,591.7c0-5.4-.5-9.2-1.1-8.8-.6.4-2.5,3.1-4.3,6.2l-3.2,5.5,3.7,3.3c2,1.8,4,3.3,4.3,3.3s.6-4.3.6-9.5ZM245.1,544.2c-.7-5.6-1.2-6.6-3.7-7.2-4.7-1.2-11.7-8.4-13.3-13.7-3.9-13-.6-26.9,7.4-31.2,2.6-1.4,4.1-3,3.7-3.9-.3-.9-.6-4.3-.6-7.7,0-5.8-.2-6.2-4.1-8.3-5.4-2.9-9.4-8.2-11.9-15.9-1.7-5.3-1.8-7.1-.6-12.5,1.7-7.8,8.1-15.3,14.8-17.6,2.6-.9,4.7-2,4.7-2.6,0-3.2-4.6-21.6-5.3-21.4-.5.2-4.5,4.3-8.9,9.2-10,11-14.9,15-20.4,16.5-9.6,2.7-16.7,1-27.3-6.4-4.2-2.9-8.4-5.3-9.3-5.3-.9,0-3.2,1.4-5,3.1l-3.3,3.1,4.2,4.1c4.5,4.4,6.4,8.1,6.4,12.7s.7,2.9,1.5,2.9c6.4,0,22.1,21.1,22.1,29.6s-2.7,7.9-12.6,10.6c-4.4,1.2-8.4,2.9-8.9,3.7-1.3,1.9-.2,11.9,2,18,1.8,5.2,1.3,5.1,13.5,3.1,9.5-1.5,17.3,0,26.8,5,4.9,2.6,7.1,4.5,7.4,6.4.5,3.5-1.9,3.4-9.2-.3-8-4-11.4-3.8-5,.3,11.3,7.3,6,9.3-7.7,2.9-11.7-5.5-15.7-6.6-20.2-5.6-2.8.6-3.3,1.6-4.6,7.7-1.7,8.3-5.7,13.6-12.5,16.5l-4.8,2,12.1.2c18.8.4,40.5,7.2,50.8,16.1,3.4,2.9,6.9,5.3,7.8,5.3s2.5,1.8,3.7,4c1.2,2.2,3.8,6.1,5.7,8.7l3.5,4.7,1-15c.6-8.3.7-18,.2-21.5h0ZM127.8,552.6c1.7-1.2,7.5-3.7,13-5.5,9.8-3.3,9.9-3.3,5.8-4.2-2.3-.5-5.9-1.9-8-3.2s-4-2.2-4.2-1.9c-.2.2-.9,1.9-1.7,3.7-1.4,3.2-4.2,4.3-5.5,2.2-.4-.6.2-3.8,1.2-7.2,1.8-6,1.5-10.2-.5-9-.6.4-1.3,1.8-1.7,3.3-1.5,6.5-7.8,30-8.6,32.1-.5,1.3.9,0,3.2-2.8,2.2-2.9,5.4-6.2,7-7.4h0ZM159.9,530.9c4.9-1.7,5.6-2.4,7.3-7.3,2.3-6.8,2.3-11.6,0-18-6.3-18-1.4-30.2,13-32.3,3-.4,5.7-1.6,6-2.5.9-2.3-12.6-22.9-14.9-22.9s-1.2,1.2-1.6,2.7-4.1,7.3-8.4,13.1c-4.2,5.7-9.6,14.5-12,19.5s-6.6,13.8-9.4,19.6c-4.4,9.1-5,11.2-4.2,14.7,3.2,13.9,10.6,18.1,24,13.5h0ZM259.5,527.9c5.9-2.8,9.7-8.1,9.7-13.5,0-6.9-14.4-17-24.3-17s-10,3.8-10.8,11.7c-.8,8.4.5,13.5,4.4,17.7,3,3.2,4.2,3.6,9.6,3.6s8.1-.9,11.4-2.5h0ZM119.5,521.9c.8-2.1,4.3-8.9,7.7-15s7.9-15.3,9.9-20.3c3.5-8.5,9.7-18.9,20.4-34.3,2.6-3.7,4.8-8.4,5.1-11.1.6-4.3.3-4.9-4.5-9-4.3-3.7-5.6-4.2-8.7-3.5-8.2,1.9-12.7.3-20.4-7-2.8-2.7-5-4.3-5-3.6s-9.7,15.8-21.5,33.5c-11.8,17.8-23,34.8-24.8,37.9-1.8,3.1-3.8,5.6-4.4,5.6-2.8,0-.6,2.3,5.1,5.3,6.9,3.7,24.6,15.3,32.6,21.4,2.8,2.2,5.6,3.9,6,3.9s1.5-1.7,2.4-3.8h0ZM78.5,468c2.4-2.9,8.7-11.7,14-19.5,5.3-7.8,11.9-17.1,14.6-20.6,6-7.9,12.8-18.8,12.1-19.5-.3-.3-2.8.6-5.6,2-7.6,3.8-16.3,4.2-20.4.9-6.6-5.2-12.1-21.5-13.4-39.6l-.8-10.8-4.1,1.1c-8.6,2.4-14-4.1-12.8-15.5.4-3.6,1-7.9,1.5-9.5l.8-2.9-3.4,3.1c-3.6,3.3-28.1,19.2-42.4,27.4l-8.3,4.8,5.4,10.6c3,5.8,8.3,17.7,11.8,26.5,13.2,33.2,21.6,48.3,34.5,62.6q8.6,9.5,10.4,6.8c1-1.5,3.8-5.1,6.2-8.1h0ZM254.9,462.4c7-5.6,9.6-10.4,9.6-17.4s-1.4-8.9-4.4-8.9-2.4-.8-3.4-1.8c-2.9-2.9-14.3-2.7-19.5.3-4.2,2.5-8.1,9.6-8.1,14.9s3.9,13.1,8,15.4c4.9,2.7,12.5,1.6,17.8-2.6h0ZM208.7,418.2c2.1-1.2,5.4-4.2,7.5-6.6,9.9-11.6,21.8-22.6,24.3-22.6s5.2,1.6,8.3,3.5,7.1,3.5,9,3.5c7.3,0,13.1-6.3,14.6-16,.8-5.2-1.4-19.4-5.1-31.5-3.4-11.5-3.5-15.1-.5-17.9,2-1.8,3.6-2,11.7-1.3,8,.7,10,.5,13.9-1.5,7.7-3.9,10.4-8,13.4-19.7,2.7-10.6,2.7-10.8.6-18.5-1.2-4.3-4.4-11.5-7.2-16.1-6.7-10.9-7.1-12.4-4.2-15.4,2.1-2.1,3.9-2.4,13.1-2.4s11.8-.6,14.1-1.7c3.2-1.6,3.3-2,2-5.3-.7-2-4.3-6.5-7.9-10l-6.5-6.5-11.8.7-11.8.7.3,25.5c.4,26.9-.3,33.9-3.6,35.9-3,1.9-7.2-1.8-16.3-13.8-4.3-5.7-9.3-11.3-11.2-12.6-5.6-3.7-13.5-4.8-25.4-3.6-12.8,1.3-18.8,4.6-28.8,15.8l-6.4,7.2-3.2-2c-10.6-6.5-12.7-7.3-22.8-7.8-18.5-.9-32.1,5.5-51.6,24.5-10.7,10.4-14.4,12.3-15.2,8.1-.2-1.1,2.8-7.2,6.6-13.5s8.7-16.1,10.8-21.6c2.1-5.5,7.7-19.9,12.5-31.9s8.9-23.1,9-24.5c.3-2.3-.9-3.1-9-6.3-8.1-3.1-9.5-3.4-10.6-1.9-2.3,3.1-17.6,13-27.2,17.6-5.5,2.6-8.7,4.7-7.7,5,1,.3,6.3,1.5,11.8,2.6,11.7,2.4,16.1,4.3,17.1,7.5,1.2,3.9-1.3,6.8-12.1,13.8-13.1,8.6-30.3,25.4-31.5,30.9-.5,2.2-.4,4.4.2,5,.6.6,4.5.4,9.3-.5,14.8-2.8,17.5,1.5,8,12.4-9,10.3-18.1,32.4-18.1,43.7v4.1l6.2-.5c9.1-.8,10.5,1.3,11.6,16.6,1,14.1,3.9,26.5,7.5,31.8,2.1,3.1,3.3,3.7,6.4,3.5,2.1-.2,5.9-1.4,8.5-2.7,7.2-3.7,11.4-2.7,16,3.6,11,14.9,14.7,17.6,19,13.7,1.2-1,3.6-1.9,5.4-1.9s5.2-1.5,7.6-3.4c9.5-7.4,11.9-7.4,23,.6,6.6,4.8,15,7.6,19.6,6.6,1.6-.3,4.6-1.6,6.7-2.9h0ZM220.4,367.7c-5.8-.5-17.5-2-25.9-3.3-8.5-1.3-21.5-3-29-3.7-7.5-.7-19.2-2.6-26.2-4.3-9.5-2.2-13.2-2.6-14.9-1.7-2.6,1.4-5.6.7-6.4-1.5-1-2.7,1.5-28.4,3.3-34,3.1-9.4,5.1-10.3,23.3-10.2,14.4,0,16.8-.2,32.1-4.3,35.8-9.5,52.1-16.1,62.9-25.6,9.6-8.5,12.1-6.1,19.6,18.5,3.6,11.9,4.3,15.7,4.2,25-.1,25.1-5.8,38.4-18.8,44-5.4,2.3-7.6,2.4-24.3.9ZM242,357.2c4.8-2.5,7.2-5.4,9.3-11.7,1.8-5.2-.5-14.8-3.3-13.6-5.8,2.4-16.1,5.2-19.6,5.2s-4.4-.7-5.2-2.3c-1.6-2.9-.3-3.8,12.3-8.1,7.6-2.6,9.9-4,12.1-7.2,5-7.5,5.4-11.3,1.9-23.3l-3.1-10.9-3.7,2.8c-9.4,7.1-28.3,15-49.5,20.8-28.4,7.8-42.4,10-52.3,8.3-4.1-.7-8.3-1-9.2-.6-2.3.9-3.6,8.6-1.7,9.8.8.5,4.5,1.3,8.3,1.7,6.8.8,8.9,2.4,7,5.4-.7,1.2-3.2,1.4-9.8.9-8.3-.6-8.9-.5-9.5,1.9-1.4,5.1-.8,7.9,1.5,7.9s7.7,1.3,14.4,2.8c6.7,1.6,18.3,3.4,25.7,4.2s20.2,2.4,28.3,3.7c12.7,2,29.1,3.9,38.7,4.5,1.5,0,4.7-.9,7.2-2.1h0ZM388.5,388.2l7.8-.7,1.3-6.6c2.4-12.3,2.9-28.5,1.4-51.2-2.7-43.3-3.3-49.6-4.7-50-.7-.2-1.4-1.7-1.4-3.2,0-5-3.4-4.7-26.8,2l-5,1.4v20.1c.1,11.1.6,24.3,1.2,29.5.5,5.2,1.7,17.2,2.5,26.7.8,9.5,1.8,17.3,2.2,17.2,2.6-.3,3.4,1.1,4.7,7.9,1.7,8.7,1,8.4,16.8,6.9h0ZM420.8,361.4c8.4-3.9,14-9.3,18.7-17.7,8.4-15.1,9.7-28.2,4.1-40.3-5.8-12.4-20.6-22.8-33.2-23.3-4.4-.2-6.1.2-5.9,1.2.2.8.8,10.9,1.5,22.4.7,11.5,1.7,26,2.3,32.1.6,6.2,1.2,15,1.2,19.7,0,8.1.2,8.5,2.7,8.5,1.5,0,5.3-1.3,8.6-2.8h0ZM524.8,313.4c12.7-3.6,17.9-6.1,24.5-11.7,8.6-7.4,10.9-11.3,13-21.8,5.2-26.5-8.7-47.8-32.1-49.6-8-.6-8-.6-3.6,1.1,4.7,1.8,6.5,3,11.9,7.8,9.1,8.1,11.3,23.5,5.1,35.4-4.6,8.8-8.3,12.5-16.8,16.6-8.3,4.1-17.8,5.7-24.6,4.2-7.1-1.6-12-1.5-23.6.6-5.8,1.1-14.1,2.3-18.4,2.7l-7.8.8,1.6,4.3c.9,2.4,1.9,5.8,2.3,7.6.5,2.5,1.4,3.2,3.7,3.2,4.1,0,26.3-4.6,28.9-6,2.7-1.4,5.5-.3,6.4,2.5,1.5,4.9,16.3,5.9,29.8,2.2h0ZM138.3,276.5c8.4-4.4,17.4-6.6,27.1-6.6s21,2.4,25.1,5.3c2.3,1.6,2.9,1.2,9.8-5.1,7.3-6.8,15.7-11.9,20.1-12,1.3,0,.2-.8-2.3-1.7-5.8-2.1-7-3.3-6.1-6.4,1.2-3.9,13.8-9.2,27.1-11.4,11.1-1.9,11.8-1.9,13.2,0,2.5,3.4,0,6-7.7,8.3-3.9,1.2-6.8,2.5-6.5,2.9s2.8,1.1,5.5,1.5c2.8.4,8.7,1.8,13.1,3.2,7.8,2.4,10.9,5.2,7.9,7.1-1.1.7-.6,2.1,2.2,5.5,2,2.5,5.6,7.2,7.8,10.4l4.1,5.9v-48.6l-21.5-.8c-22.5-.9-46.8-3.1-65.6-6.1-9.6-1.5-37.8-7.9-42-9.5-1-.4-1.7,1.2-2.3,4.7-.4,2.9-5.5,17.7-11.3,32.8-5.8,15.1-10.6,27.7-10.6,27.9,0,.2,1.7-.7,3.8-2.1,2.1-1.4,6.2-3.8,9.1-5.3h0ZM163.5,258.6c-2.9-2.9-3.1-4.7-.9-10.4.5-1.3-.6-2.4-4.1-3.8-4.9-1.9-7.3-5.7-5.1-7.8.8-.8,3.2-.7,7.5.4,3.5.9,6.9,1.4,7.7,1.3.8-.2,2.9.5,4.7,1.4,1.8.9,6.2,2.3,9.8,3.1,10,2.2,10.6,2.5,10.6,4.1,0,3.4-4.5,5.8-9.8,5-2.8-.4-5.9-1-7-1.4-1.4-.5-2.3.5-3.5,4.2-2.2,6.7-5.9,8.1-10,4h0ZM305.2,223.9c29.3-1.3,38.2-2.5,52.5-6.7,17.8-5.3,27.1-11,31.2-19.2,7.4-14.6,5.7-33.2-3.5-37.6-4.2-2-8.1-1.2-28,5.7-16.5,5.8-28.1,7.8-49.4,8.8l-16,.7-18-5.4c-9.9-3-19.9-6.4-22.3-7.6-8.4-4.3-24.8-20.1-35-33.8-13.6-18.2-28.7-30.8-48.2-40.5-17.2-8.5-26.1-10.9-39.7-10.9-16.6,0-37.7,5-43.2,10-7.1,6.6-10.7,19.4-10.9,39.5-.1,13.1-.5,15.5-3,20.4-5.9,11.8-2.5,20.3,12.8,31.4,20.2,14.6,44.8,25.6,74,33.1,45.4,11.7,82.9,14.8,146.7,11.9h0ZM311.4,161.1c.8-2.8,6.5-15.1,12.7-27.4,17.4-34.8,24.1-63.3,17.9-75.5-.7-1.3-4.1-5.7-7.7-9.8-5.6-6.4-8.2-8.2-19-13.4-6.9-3.3-16.5-7.5-21.4-9.3-4.9-1.8-12-4.7-15.9-6.5-12.5-5.6-35.2-5.9-49.3-.6-8.2,3.1-9.5,4.6-8.5,10.3,1.5,8.3,1.7,8.6,4.9,7.3,4.1-1.5,18.3-1.4,24.8.2,3.6.9,7.4,3.2,11.7,7.2l6.4,5.9,2.3-3c5.4-6.8,12.2-6.1,21,2.4,4.8,4.5,6.1,8.4,4,11.7-1.5,2.3-7.1,3.9-13.7,3.9h-6.3l-1.4,7.3c-1.3,6.7-2.1,8-8.7,14.4-11.3,11-11,10.5-6.2,15.3,5.7,5.7,6.5,10.8,2.9,18-3.7,7.3-8.2,10.6-12.4,9.1-4.7-1.7-7.5-6.4-8.3-13.9-.4-3.7-1.1-7-1.7-7.3-.5-.3-2.3.3-3.9,1.3-4.4,2.9-11.3,2.5-13.9-.7-1.2-1.4-2.1-3.3-2.1-4.1,0-1.2-.9-1.3-4.1-.3l-4.1,1.3,5.1,6c2.8,3.3,7.3,9.3,10,13.3,4.6,6.8,17.4,20.1,25.5,26.5,1.9,1.5,11.5,5.5,21.2,8.9,15.4,5.3,19,6.1,27.2,6.2h9.4c0,0,1.5-4.9,1.5-4.9h0ZM255.1,118.7c1.3-2.1,2.3-4.8,2.3-5.9,0-2.3-7.8-11.5-9.7-11.5s-.3,13.8,1.6,18.1c1.9,4.1,2.9,4,5.8-.7ZM235.1,100.6c2.2-1.7,6-4,8.3-5.3,2.4-1.2,8.4-6.1,13.4-11,7.4-7.1,9.3-9.6,9.9-13.3,1.1-6.4.4-9.5-2.3-10.2-1.6-.4-2.3-1.6-2.3-3.9s-1.5-4.6-5.3-8.2c-5.9-5.5-8.9-6.4-21-6.4s-18.5,4-18.5,8.9-.9,3.3-2.8,4c-1.6.6-3.4,2.7-4.1,4.9-1.7,4.9-1.7,16.7,0,18.5,1,1,.8,3.3-.7,9-1.1,4.2-1.8,8.5-1.4,9.5,1.3,3.3,6.1,2.1,11.1-2.9,5.6-5.5,6.9-5.8,8.7-1.9,1,2.2.9,3.7-.6,6.7-2.4,4.8-2.4,4.6.8,4.6s4.5-1.4,6.8-3h0ZM240.2,76c-2.2-3.3-1.8-11.3.8-18.6,1.4-3.8,2.1-4.4,5.3-4.4,7.7,0,13.7,8.9,11.7,17.2-2.1,8.3-13.7,12.1-17.9,5.8ZM250.1,71.6c2.8-2.8,1.1-11.6-2.2-11.6s-3.5,5.7-3.5,8.7c0,4.3,2.8,5.7,5.7,2.9ZM218,74.3c-1.8-1.9-2-3.6-1.5-8.3.9-8,3.1-12.1,7.1-13.5,2.5-.9,4.1-.7,6.5.6,5.5,3.1,4.8,14.1-1.4,19.8-4,3.7-8.2,4.3-10.7,1.5ZM226.4,65.5c1.9-4,1.6-7.8-.7-7.8s-3.6,7.1-3.6,10.3c0,2.9,2.4,1.4,4.3-2.5ZM203.8,84.8l.9-4.1-3.3,2.1c-1.8,1.2-5.1,2.8-7.3,3.5l-4,1.4,5.6,4.3,5.6,4.3.8-3.8c.4-2.1,1.2-5.6,1.7-7.9ZM186,82.6c.4-.6,2.9-1.6,5.7-2.3,7-1.8,9.4-4.8,10.4-13.3.5-4,1.7-9.2,2.8-11.6,1.9-4.2,1.9-4.6-.5-9.3-1.4-2.7-3-4.6-3.6-4.2-3.3,2.1-15.3,22.7-20,34.6-1.4,3.6-1.4,4.1.6,5.6,2.6,1.9,3.7,2,4.6.6h0ZM287.4,56.4c1.1-1-.1-2.3-6.3-6.6-2.7-1.9-2.9-1.8-6.1,2-4.6,5.6-3.6,7,4.5,6.2,3.7-.4,7.2-1.1,7.8-1.7ZM215.7,40.1c-.2-.4-1.1-3.1-1.9-6-1.3-4.9-1.5-5.1-3.1-3-2,2.7-2.1,6.6-.3,10.6,1.3,2.8,1.5,2.9,3.5,1.1,1.2-1.1,1.9-2.3,1.7-2.7h0Z"/>
      </g>
    </g>
  </g>
</svg>