<?xml version="1.0" encoding="UTF-8"?>
<svg id="Layer_1" xmlns="http://www.w3.org/2000/svg" version="1.1" viewBox="0 0 263.6 436.2">
  <!-- Generator: Adobe Illustrator 29.1.0, SVG Export Plug-In . SVG Version: 2.1.0 Build 142)  -->
  <defs>
    <style>
      .st0 {
        fill: #c4c8b7;
        stroke-width: 4px;
      }

      .st0, .st1, .st2, .st3, .st4, .st5, .st6, .st7, .st8, .st9, .st10, .st11, .st12 {
        fill-rule: evenodd;
      }

      .st0, .st13, .st14, .st3, .st15, .st8, .st9, .st10, .st11, .st12 {
        stroke: #000;
      }

      .st0, .st13, .st14, .st3, .st15, .st8, .st9, .st11, .st12, .st16 {
        stroke-miterlimit: 4.6;
      }

      .st1 {
        fill: #edf5f8;
      }

      .st2 {
        fill: #f5c052;
      }

      .st13 {
        stroke-width: 3.3px;
      }

      .st13, .st14, .st15, .st16 {
        fill: none;
      }

      .st13, .st15, .st16 {
        stroke-linecap: round;
      }

      .st14, .st3 {
        stroke-width: 7.6px;
      }

      .st3 {
        fill: #d5f6ff;
      }

      .st4 {
        fill: #fcb42c;
      }

      .st15 {
        stroke-width: 2.3px;
      }

      .st5 {
        fill: #efc471;
        fill-opacity: .9;
      }

      .st6 {
        fill: #8a916f;
      }

      .st7 {
        fill: #efece2;
      }

      .st8 {
        stroke-width: .7px;
      }

      .st9 {
        stroke-width: .7px;
      }

      .st10 {
        stroke-miterlimit: 3.2;
        stroke-width: .8px;
      }

      .st11 {
        stroke-width: .6px;
      }

      .st12 {
        stroke-width: .7px;
      }

      .st16 {
        stroke: #c87137;
        stroke-dasharray: 8.5 8.5;
        stroke-width: 2.1px;
      }
    </style>
  </defs>
  <g>
    <path class="st3" d="M46.9,146S30.6,74.6,24.1,55.8c-17,4.1-19.8-7.2-20.3-15.3-.6-8,9.1-19.1,31.2-28.3C57,3.1,73.5.7,81.4,8.4c7.9,7.7,3.9,21.4-6.4,27.7,8.1,18.1,43.4,81.1,43.4,81.1,20.3-8.2,41.2,2.1,49.2,22.1l90,224.5c8,20-7.4,28.4-27,38.9-19.6,10.5-41.2,19.6-61.9,24.9-20.7,5.3-38.1,10.6-46.1-9.4L32.7,193.6c-8-20-6-39.5,14.3-47.6h0Z"/>
    <path class="st2" d="M121.4,117.8c.6,1.6-14.6,15.3-34.9,23.4-20.3,8.1-37.8,7.6-38.5,6.1s15.4-10.1,35.6-18.2,37.1-12.8,37.7-11.3Z"/>
    <path class="st5" d="M46.5,146.2c10.3,7.4,70.9-12.5,71.5-28.8,20.3-8.2,41.2,2.1,49.2,22.1l90,224.5c8,20-7.4,28.4-27,38.9-19.6,10.5-41.2,19.6-61.9,24.9-20.7,5.3-38.1,10.6-46.1-9.4L32.2,193.8c-8-20-6-39.5,14.3-47.6h0Z"/>
    <path class="st4" d="M167.2,428.3c-5.5-4.8-25.7-2.8-34-19.6-16.9-34.3-35.3-85.6-51.4-126.4-24.7-62.4-40.5-93.3-38.3-101.7,2.3-8.4,12.3-23.8,9-25.5s-16.8,11.6-17.5,14.6c-.7,2.9-10.4-.7,7.2,46.1,17.7,46.7,81.4,205,83.3,209,3.2,6.6,42.1,7.1,41.7,3.6h0Z"/>
    <ellipse class="st16" cx="194.4" cy="401.2" rx="72.9" ry="17.8" transform="translate(-135.7 101.5) rotate(-21.9)"/>
    <path class="st0" d="M36.5,199.9c50.3-2,95-20.3,134.5-54.1l60.4,150.1c-37.9,29.6-81.6,49.5-134.5,54.1l-60.4-150.1Z"/>
    <path class="st14" d="M46.9,146S30.6,74.6,24.1,55.8c-17,4.1-19.8-7.2-20.3-15.3-.6-8,9.1-19.1,31.2-28.3C57,3.1,73.5.7,81.4,8.4c7.9,7.7,3.9,21.4-6.4,27.7,8.1,18.1,43.4,81.1,43.4,81.1,20.3-8.2,41.2,2.1,49.2,22.1l90,224.5c8,20-7.4,28.4-27,38.9-19.6,10.5-41.2,19.6-61.9,24.9-20.7,5.3-38.1,10.6-46.1-9.4L32.7,193.6c-8-20-6-39.5,14.3-47.6h0Z"/>
    <path class="st6" d="M108.8,347.1c-3.6-4.8-59.7-145.7-60.5-145.9-.7,0-7.4.6-8.3.5l58.5,146.1c4.8-.4,5.6,0,10.3-.7h0Z"/>
    <path class="st15" d="M98.8,342.7c44.7-4.8,86.8-19.3,124-50.3"/>
    <path class="st15" d="M44.7,208.2c45.1-4,87.2-19.2,124.1-51"/>
    <path class="st13" d="M22.8,38.2c2.9,2.6,13.2,1.3,24.1-3.1,11-4.4,18.4-11.4,18.6-15.2"/>
    <path class="st1" d="M90.1,120.8c5.3.4,16.6-8.6,15.3-10.9,0,0-33.1-64.3-36.6-71-4,3.8-9.1,5.6-16,7.5,3,7.3,37.3,74.5,37.3,74.5h0Z"/>
    <path class="st7" d="M67.3,40.1c-3.8,3-8.4,4.5-14.5,6.2,2.1,5.1,19,38.6,29.3,58.8-.8-7.9-2.5-17.8-3.6-21.1-1.8-5.4-9.9-37.2-11.2-43.9h0Z"/>
    <path class="st11" d="M63.4,224.3c.8,2.1,1.7,4.2,2.5,6.3,3.4-.6,6.7-1.3,10.1-1.9,1.7,5.9,3.4,11.7,5.1,17.6,1.6-.5,3.1-1.1,4.7-1.6-2-5.5-4.1-11-6.1-16.5,4.2-1.1,8.4-2.3,12.6-3.4-1.3-1.9-2.5-3.7-3.8-5.6-8.4,1.7-16.7,3.4-25.1,5h0Z"/>
    <path class="st11" d="M89.1,225c2.4,5.8,4.9,11.7,7.3,17.5,3.6-1.2,7.2-2.3,10.9-3.5-1.2-1.5-2.5-3-3.7-4.5-1.8.7-3.7,1.4-5.5,2.1-.5-1.8-.9-3.5-1.4-5.3,1.9-.6,3.8-1.1,5.8-1.7-.8-.9-.9-2.9-2.5-2.6-1.6-.1-3.2-.3-4.8-.4.3-1.1-.7-3.2,1.1-3.1,1.8-.4,3.6-.8,5.4-1.2-.9-1.5-1.8-3.1-2.6-4.6-3.8,1.2-7.5,2.5-11.3,3.7.5,1.2,1,2.4,1.5,3.6h0Z"/>
    <path class="st11" d="M108.9,215.3c-1,2.5-2.2,5-3,7.5.3,2.2.6,4.4,1.8,6.4.4,1.4,1.3,2.4,2.5,3.2,1.5,1.3,3.1,2.4,5,2.9,1,0,3,.3,3.2-1.1.3-1.3,1-2.4,2.1-3,.4-1.3.4-3.1,2.1-2,1.3.1,2.2,1.2,3.2,1.9,1.4-.5,2.1-1.4,1.9-2.9,0-1.3-1.4-2.1-2-3.2-.8-1.3-2.5-1.5-3.7-2.3,1.2-1,0-2.4-.2-3.6-.4-1.5-1.3-2.9-2.2-4.1-1.5-1.1-3-2-4.8-2.3-1.5,0-2.8,1.3-4.2,1.8-.6.3-1.2.6-1.8.9h0ZM113.1,219.7l3.3,2.3-2,2.8,2.5,2.4-4.7.5-1.9-4.2,2.8-3.9Z"/>
    <path class="st11" d="M138.3,201.4c1.7,3.5,3.7,6.8,4.6,10.6,1.1,3.5,2.2,7,3.2,10.5,1.1,1,2.4.7,3.6,0,1.2-.5,2.7-1.1,1.2-2.4-1.4-2.2-1-5.1-2.2-7.5-.7-2.6-2-4.8-3.4-7.1-.1-1.6.1-3.4-1-4.7-.5-1.6-1-3.3-1.7-4.8-1.1.8-2.6,1.2-3.4,2.1-.3,1-.6,2.1-.8,3.1h0Z"/>
    <path class="st11" d="M148.1,194.1c1.2,3.4,2,7,4.1,9.9,1.2,1.8,2.1,3.7,2.4,5.8.5,2.5,1.6,4.8,2.8,7,.9,1.6,1.9,1.1,3,0,1.5-1.4,3.6-2,5-3.4.7-1.2,1.9-2.2,1.5-3.6,0-1.7-.1-4.8-2.5-2.8-1.8,1.1-3.7,1.9-5.1,3.5-1-1-2-2-2-3.5-.7-3.9-2.1-7.7-3.3-11.5-.8-.8-1-3.2-2.4-2.5-1.1.4-2.3.7-3.4,1.1h0Z"/>
    <path class="st11" d="M164.2,185.6c.2,5.2,1.9,11.4,3.8,16.3.5,1.5.6,3.3,2.1,4.2,1,1.6,1.9,1,2.8-.3,1.5-.8.5-2.2.2-3.4l-2.2-7.5c1.2.5,2.6.8,3.1,2.2,1.3,2.2,3.3,4.1,3.7,6.7l2.8-3.9c-1.6-2.9-2.9-5.9-4.6-8.7-1.9-1.1-3.6-2.6-5.7-3.5l-6.1-2h0ZM167.3,189.6l1.7.4,1.2.7.3,1.5-1.4.5-2.1-1.3.3-1.9h0Z"/>
    <path class="st8" d="M108.7,299.2c.8-1.6,1.3-3.4,2.9-4.4,1-1.4,2.1.7,3.2.8,1.1.7,2.8.9,3.5,1.9.4,2.1,4.4,4.4,5.5,3.8.8-1.4,1-2.9.9-4.5-.2-2.1,1.5-3.7,2-5.6.2-1,1.7-2.5,2.5-2.1,1,1.2,3,.5,4.2,1.6,1.9.3.7,1.9.4,3.1-.7,2.4-1.5,4.7-2.9,6.7-1.1,1.1-.3,2.5-.1,3.8,2.9,1.1,5.6,2.4,8.2,4.1.6,1.3,0,2.5-.8,3.5-.9,1.2-1.6,2.7-2.7,3.7-2,0-4.1.9-5.8-.6-2.7-.7-3.2-4.3-6-4.8-1.5-1.1-1.6,1.2-2.3,2-1.1,2.3-2.7,4.4-2.9,7.1-1.8,1.1-6,0-6.1-3.1-.7-2.9,2.8-4.4,3.4-7.1,0-1.2,2.9-2,1.3-2.8-2.1-1.8-4.9-2.3-7.2-3.7-1.6-.3-.8-2.1-1-3.2h0q0-.1,0-.1Z"/>
    <path class="st9" d="M141.3,286.1c.7-1.5,1.2-3.3,2.8-4.2.9-1.2,2,.9,3.2,1,1.4.8,3.5,1,3.6,2.9,1.5.9,4.8,4.6,5.2,1.2.8-1.8-.4-4.1.9-5.7,1-1.6,1.1-3.8,3-4.7.8-.2,1.9,1.2,3.2.9.9.5,3.2.9,2.2,2.3-.9,2.7-1.5,5.5-3.2,7.8-1,1-.1,2.3,0,3.4,2.7,1,5.3,2.3,7.7,3.9.7,1.3,0,2.4-.8,3.4-.9,1.1-1.5,2.6-2.5,3.4-1.9,0-3.9.8-5.5-.6-2.6-.8-3.2-4.3-6-4.7-1.3-.7-1.4,1.8-2.2,2.5-1,2-2.3,4-2.5,6.3-2.4,1-6.1-.9-5.9-4.2.7-2.2,2.9-3.8,3.5-6.1.8-1,2.4-1.8.4-2.6-1.9-1.4-4.3-1.9-6.4-3.2-1.5-.3-.6-2.1-.9-3.2h0Z"/>
    <path class="st12" d="M170.9,271.9c.7-1.5,1.2-3.2,2.8-4.1.9-1.2,2,.9,3.2,1,1.4.8,3.4.9,3.5,2.8,1.5.9,4.7,4.5,5.2,1.1.8-1.8-.3-4,1-5.6,1-1.6,1.1-3.8,3-4.6.8-.2,1.9,1.1,3.2.9.9.5,3.1.8,2.1,2.2-.9,2.7-1.7,5.5-3.4,7.9-.7.9-.3,2.7.4,3.3,2.5.9,4.9,2.1,7.2,3.6.7,1.4-.2,2.5-1,3.5-.8,1-1.4,2.4-2.4,3.1-1.8,0-3.8.8-5.4-.5-2.6-.7-3.1-4.2-5.9-4.6-1.3-.6-1.4,1.8-2.2,2.5-1.1,2-2.4,3.9-2.5,6.2-2.5.9-6.1-.8-5.8-4.1.8-2.2,2.9-3.7,3.6-6.1.9-1,2.4-1.8.4-2.5-1.9-1.4-4.3-1.8-6.3-3.1-1.4-.3-.5-2-.8-3h0Z"/>
  </g>
  <path class="st10" d="M124.5,207.7l-4.2,3.5c1.3,1.8,2.7,3.5,4,5.2,1.4,2.2,2.7,4.4,4.2,6.5l3.1,3,4.2.7c.7-.3,1.4-.5,2-.8l2.2-2.6c.2-1.3.3-2.6.3-3.9l-.3-5.1c-.7-.9-1.5-1.7-2.2-2.6-.9-2.2-1.8-4.3-2.6-6.6-.1-.4-.3-.9-.6-1.1l-.2-1.5c-.5,0-1.6.1-2.1.2l-3.1,1.2c1.1,2.5,2.1,5,3.3,7.3.4.9.9,1.7,1.1,2.6l.6,2.4c.6.4,1.2,1.4.4,1.9l-1.1,1.2c-.7-.4-1.4-.6-2-1-.6-.7-1.3-1.4-1.9-2.1-.4-.7-.9-1.4-1.2-2.1-.3-.9-.5-1.9-.9-2.7-.3-.6-.6-1.1-1.1-1.5l-1.9-1.9Z"/>
</svg>